<svg id="Layer_1" data-name="Layer 1" xmlns="http://www.w3.org/2000/svg" viewBox="0 0 1697.17 570.41"><defs><style>.cls-1,.cls-3{fill:#231f20;}.cls-1{stroke:#231f20;stroke-miterlimit:10;stroke-width:2px;}.cls-2{fill:#58595b;}.cls-4{fill:#2b3990;}.cls-5{fill:#fff;}.cls-6{fill:#4f5fab;}.cls-7{fill:#314ba0;}.cls-8{fill:#1c1b4f;}.cls-9{fill:#d1d3d4;}.cls-10{fill:#a7a9ac;}</style></defs><title>crypto monster logo light theme tr</title><path class="cls-1" d="M772.18,443.56A40.37,40.37,0,0,1,758,455.69a39.85,39.85,0,0,1-18.81,4.55,39.37,39.37,0,0,1-20.42-5.47A40.85,40.85,0,0,1,704,440a39.77,39.77,0,0,1-5.46-20.48,40.71,40.71,0,0,1,11.9-28.82A39.8,39.8,0,0,1,723.57,382a41.66,41.66,0,0,1,34.34,1.38,38.69,38.69,0,0,1,14.15,12.25L767,399.15a32.74,32.74,0,0,0-7.36-7.31A34.24,34.24,0,0,0,750,386.9a34.94,34.94,0,0,0-10.87-1.67A33.89,33.89,0,0,0,722,389.77a33.2,33.2,0,0,0-12.54,12.6A34.36,34.36,0,0,0,722,449.31a34.52,34.52,0,0,0,33,.8,34.28,34.28,0,0,0,12-10.23Z" transform="translate(-151.42 -214.79)"/><path class="cls-1" d="M798.75,380.51a27.82,27.82,0,0,1,25.08,40.15,27.28,27.28,0,0,1-7.94,9.78,28.21,28.21,0,0,1-11,5.29l19.56,23H816l-18.87-22.32h-5.87v22.32H785v-71.9h-9.44l3.8-6.33Zm-7.48,49.59h7.48q9.68,0,15.65-6.45a21.55,21.55,0,0,0,6-15.18,21,21,0,0,0-3.1-11.39,21.24,21.24,0,0,0-8.06-7.59,21.83,21.83,0,0,0-10.47-2.65h-7.48Z" transform="translate(-151.42 -214.79)"/><path class="cls-1" d="M846.84,423.88l-18.4-43.37h6.9l14.72,34.63,14.61-34.63h6.91l-18.41,43.37v34.86h-6.33Z" transform="translate(-151.42 -214.79)"/><path class="cls-1" d="M898.38,380.51a27.95,27.95,0,0,1,28,28,27.88,27.88,0,0,1-28,27.95h-9.32v22.32h-6.32v-71.9H873.3l3.8-6.33Zm-9.32,49.59h9.32q9.68,0,15.65-6.45a21.55,21.55,0,0,0,6-15.18,21,21,0,0,0-3.1-11.39,21.24,21.24,0,0,0-8.06-7.59,21.83,21.83,0,0,0-10.47-2.65h-9.32Z" transform="translate(-151.42 -214.79)"/><path class="cls-1" d="M951.65,386.84v71.9h-6.33v-71.9H929.79v-6.33h37.39v6.33Z" transform="translate(-151.42 -214.79)"/><path class="cls-1" d="M1011.24,378.9a39.71,39.71,0,0,1,20.48,5.47,40.9,40.9,0,0,1,14.78,14.72,41,41,0,0,1,0,40.9,40.75,40.75,0,0,1-14.78,14.78,41,41,0,0,1-40.9,0A40.85,40.85,0,0,1,976.09,440a39.77,39.77,0,0,1-5.46-20.48,40.66,40.66,0,0,1,11.91-28.82A39.65,39.65,0,0,1,995.65,382,40.67,40.67,0,0,1,1011.24,378.9Zm0,6.33a33.89,33.89,0,0,0-17.14,4.54,33.2,33.2,0,0,0-12.54,12.6,34.36,34.36,0,0,0,12.54,46.94,34.46,34.46,0,0,0,34.4,0A34.4,34.4,0,0,0,1041,402.37a33.27,33.27,0,0,0-12.54-12.6A34.17,34.17,0,0,0,1011.24,385.23Z" transform="translate(-151.42 -214.79)"/><path class="cls-2" d="M589.68,591.1l.25-.38c.54-.76,1.08-1.53,1.6-2.31s.94-1.51,1.41-2.26.9-1.43,1.32-2.15c.63-1.1,1.22-2.22,1.81-3.35.21-.4.44-.8.65-1.21.79-1.59,1.54-3.2,2.22-4.85a66.09,66.09,0,0,0,3.43-10.77c2.36-10.36,2-20.64.07-31.06-.72-3.83-1.65-7.69-2.75-11.57,0,0,0,0,0,.07a.14.14,0,0,0,0-.06c.1.33.17.67.25,1s.13.51.18.77.08.51.12.76.13.72.17,1.07,0,.47.05.71.07.76.08,1.15c0,.22,0,.44,0,.66,0,.4,0,.8,0,1.19,0,.22,0,.43,0,.64,0,.41-.06.81-.1,1.22l-.09.61q-.09.62-.21,1.23c0,.2-.08.39-.13.59-.09.41-.18.82-.29,1.23l-.16.55c-.13.42-.25.83-.4,1.24l-.18.5q-.24.64-.51,1.26c-.06.15-.12.29-.19.43-.2.44-.4.87-.62,1.29l-.18.34c-.25.45-.51.9-.78,1.34l-.13.21c-.31.49-.63,1-1,1.43l0,0a24.23,24.23,0,0,1-5,5.08l-.68.47c-.19-1.9-.42-3.79-.66-5.68.13-.59.31-1.18.43-1.78,0,0,0-.09,0-.14s.1-.38.14-.57c.28-1.36.49-2.73.71-4.1.06-.37.14-.75.2-1.13.21-1.43.37-2.87.52-4.31.06-.52.13-1,.18-1.57.11-1.27.17-2.55.23-3.83,0-.69.1-1.38.12-2.07,0-1.09,0-2.19,0-3.28,0-.87,0-1.74,0-2.61s-.11-1.8-.16-2.7c-.06-1.06-.11-2.11-.2-3.17-.07-.68-.17-1.35-.25-2-.15-1.26-.28-2.52-.47-3.77-.06-.36-.14-.72-.2-1.08a92.15,92.15,0,0,0-2.3-10.26,171,171,0,0,0-6.29-17.24c-4.23-10.27-8.65-20.38-10.35-31.61a112.27,112.27,0,0,1-.73-27.31c.1-1,.19-1.84.29-2.67h0v0c-.78.92-1.73,2-2.84,3a39.73,39.73,0,0,1-7.58,5.73l-.59.31c-.39.22-.79.44-1.16.62l-.57.27c-.38.18-.76.36-1.13.51l-.54.21c-.36.15-.72.28-1.06.4l-.52.17-1,.3-.51.13-.91.21-.53.11-.79.14-.58.09-.51.06c-3.45.42-6.41.25-9.71,1.38a18.61,18.61,0,0,0-2.48,1.09c-.3.16-.58.36-.87.54q-5.24-5.75-10.9-11.07c.23-.36.47-.71.69-1.07s.34-.57.51-.85c.25-.43.51-.86.75-1.3l.11-.19c.07-.13.13-.27.2-.4.36-.68.71-1.38,1-2.08.13-.31.28-.61.41-.91.37-.86.72-1.74,1-2.64.08-.23.15-.48.22-.72.24-.75.46-1.51.65-2.28.08-.31.15-.61.22-.92.23-1,.43-2.05.57-3.12a40.63,40.63,0,0,0,.29-4.25A41.92,41.92,0,0,0,526,375.34c-1.18-1.83-2.51-3.64-3.91-5.43a81.85,81.85,0,0,0-22.7-20.09,77.49,77.49,0,0,0-9.58-4.58c-9.39-3.86-18.3-6.5-27.32-16.65a60.09,60.09,0,0,1-9.17-13.83c-.48-1-.91-1.93-1.26-2.76h0v0c-2.82,5.32-5.17,12.27-2.82,18.18a22.57,22.57,0,0,0,5.25,7.16,47.57,47.57,0,0,1,6,6.66c.1.15.19.31.28.46.29.45.56.91.82,1.38.17.31.32.63.48.95s.34.7.5,1.06.27.64.4,1,.29.74.42,1.12.24.67.34,1,.18.6.26.91c.15.52.28,1.05.41,1.58s.17.8.25,1.2.13.78.19,1.18.15,1,.2,1.47c0,.28,0,.56.07.84a38.24,38.24,0,0,1,.12,4.14c0,.26,0,.51-.05.77,0,.94-.12,1.88-.22,2.82-.05.44-.1.89-.16,1.34q-.21,1.5-.51,3c-.11.53-.23,1.05-.36,1.58-.18.77-.38,1.55-.6,2.32-.14.53-.3,1.07-.47,1.6-.28.89-.59,1.77-.92,2.65A204.39,204.39,0,0,0,398.79,364c-1.5-1.08-2.92-2.06-4.23-2.95l-.18-.12c-2.8-1.89-5.21-3.4-7.33-4.67l-.48-.28c-.87-.52-1.71-1-2.49-1.45l-.36-.21c-4.2-2.39-7.23-3.94-10.37-6.35a49.38,49.38,0,0,1-6.44-6c-5.73-6.24-18.76-20.41-18.23-40.14a48.23,48.23,0,0,1,7.83-24.44h0a71.07,71.07,0,0,0-13.9,4.15c-1.38.57-2.73,1.21-4.06,1.87-.24.11-.47.24-.71.36-1.23.62-2.44,1.28-3.64,2l-.27.16c-1.32.78-2.61,1.61-3.88,2.47-.12.09-.24.18-.37.26-1.11.78-2.2,1.58-3.26,2.41l-.61.48a73.61,73.61,0,0,0-6.58,5.91l-.75.77c-.85.89-1.68,1.79-2.48,2.72l-.49.56c-.93,1.08-1.82,2.2-2.68,3.34l-.22.27c-.16.21-.3.44-.46.65-.58.79-1.14,1.58-1.68,2.39l-.72,1.08c-.56.87-1.11,1.75-1.63,2.64-.16.27-.33.53-.48.8-.66,1.15-1.29,2.32-1.88,3.5-.14.29-.27.58-.41.88-.44.9-.86,1.82-1.26,2.74l-.52,1.24c-.35.87-.69,1.74-1,2.62-.14.38-.29.77-.42,1.16-.42,1.23-.81,2.47-1.15,3.72-.05.18-.09.36-.13.53q-.44,1.65-.78,3.3c-.09.43-.17.86-.25,1.3-.16.89-.31,1.78-.44,2.68-.06.44-.12.88-.17,1.32-.13,1.07-.22,2.14-.29,3.21l-.06.71c-.06,1.3-.08,2.61-.06,3.92,0,.36,0,.72.05,1.08,0,1,.09,2,.18,3l.12,1.23c.12,1,.27,2.09.45,3.13,0,.29.08.57.13.86.26,1.35.56,2.7.91,4.05,0,.13.09.27.12.4.33,1.21.71,2.4,1.13,3.6q.15.45.33.9c.4,1.11.85,2.21,1.34,3.31.1.23.19.46.3.69.61,1.34,1.26,2.67,2,4,.36.66.72,1.29,1.1,1.9l.56.87.57.91c.3.47.6.92.9,1.37l.72,1.1h0a205.24,205.24,0,0,0-40.27,21.38l-.22-.17a44,44,0,0,1-3.48-3.08l-.18-.19c-1-1-1.93-2-2.83-3.07-.24-.29-.46-.59-.7-.88-.69-.87-1.36-1.75-2-2.66-.27-.38-.52-.78-.78-1.17-.56-.86-1.09-1.74-1.6-2.63-.24-.44-.48-.87-.71-1.32-.46-.89-.9-1.81-1.31-2.73-.2-.45-.4-.9-.59-1.36-.39-1-.74-2-1.07-3-.14-.43-.29-.84-.42-1.27-.34-1.14-.62-2.29-.87-3.46-.07-.3-.15-.59-.21-.88a42.75,42.75,0,0,1-.64-4.52,45,45,0,0,1,3-20.29l0,0v0c-2.19,1.84-4.56,4-7,6.42l0,0q-1.75,1.76-3.53,3.74c-.18.19-.35.4-.53.6-1,1.16-2,2.36-3.06,3.62l-.24.28c-.28.35-.55.74-.84,1.11-.71.91-1.41,1.82-2.11,2.79-.53.74-1,1.52-1.57,2.29s-1.1,1.59-1.63,2.43-1.18,2-1.77,3c-.43.75-.88,1.46-1.31,2.23-1,1.8-1.95,3.67-2.86,5.61-.26.56-.54,1.15-.81,1.75-3.34,7.17-7.6,16.93-8.41,27.37A38.49,38.49,0,0,0,221,425.49c.09.25.19.49.28.74.29.8.59,1.58.91,2.35.11.27.22.53.34.8.36.82.72,1.61,1.09,2.38.08.15.15.31.23.47.43.87.87,1.72,1.31,2.51l0,.08c.37.67.72,1.26,1.07,1.85.14.23.28.49.41.71s.2.31.3.47a205.44,205.44,0,0,0-15.09,20.64c-.13-.2-.24-.41-.37-.61-.45-.67-.92-1.33-1.4-2a38.76,38.76,0,0,0-3.25-3.69l0,0c-.51-.51-1-1-1.55-1.47l-.3-.27c-.42-.37-.84-.72-1.27-1.07l-.5-.4-1-.77-.67-.47-.79-.51-.86-.54-.32-.17c-.38-.22-.77-.45-1.15-.64-10.81-5.44-23.22-.79-28.36,1.6-.92.43-1.63.79-2,1h0c.77.38,1.59.8,2.43,1.26l.43.25c.7.39,1.41.82,2.12,1.29l.6.39c.71.48,1.41,1,2.09,1.56l.45.35a24.34,24.34,0,0,1,2.39,2.27c.21.23.4.48.61.72s.62.74.91,1.14.4.59.6.9.53.86.77,1.31.33.61.47.93a15.48,15.48,0,0,1,.72,1.9c.05.17.13.33.17.5a13.13,13.13,0,0,1,.43,5.1c-.73,6.71-6.36,12.8-9.56,27-2.14,9.61-4.78,21.32.43,32.13.35.71.74,1.37,1.13,2a33.92,33.92,0,0,0,2.85,4.11,44.11,44.11,0,0,0,3.13,3.47l.09.09.68.65q-1.14,7.41-1.72,15c-.28-.15-.56-.3-.83-.47l-.07,0c-.36-.24-.72-.51-1.08-.8a26.21,26.21,0,0,1-5.45-6.5c-3.25-5.19-6.17-12.41-8.41-21v0c-.28,1.24-.59,2.69-.89,4.3v.07c-.14.77-.28,1.57-.42,2.42,0,.15,0,.3-.07.45-.11.69-.21,1.4-.31,2.13,0,.21-.06.42-.08.64-.21,1.59-.39,3.28-.53,5.06,0,.18,0,.38,0,.56q-.15,2-.21,4c0,.26,0,.53,0,.8,0,1.21,0,2.46,0,3.73,0,.48,0,1,0,1.46,0,1.22.12,2.45.21,3.7,0,.4,0,.78.09,1.18.15,1.63.35,3.29.6,5a2.91,2.91,0,0,0,0,.31c0,.32.12.65.17,1,.19,1.11.39,2.22.63,3.35.11.55.24,1.1.37,1.66.23,1,.49,2,.78,3.07.16.61.33,1.23.52,1.85.31,1,.65,2,1,3,.21.6.4,1.2.63,1.81q.81,2.14,1.76,4.29c.08.16.13.33.21.49.2.46.44,1,.67,1.48,2.23,4.85,5.83,12.17,11.38,18.34.37.41.78.79,1.17,1.19.16,1,.33,2,.5,3l-3.74,3.75,3.25,3.24,1.07,1.06v0l1.26,1.26C204.82,705.85,287,774.78,385.23,774.78c99.31,0,182.17-70.4,201.4-164l1.42-1.41,1.21-1.21-.66-.66-1.12-1.12Q588.86,598.82,589.68,591.1Z" transform="translate(-151.42 -214.79)"/><path class="cls-3" d="M356.51,277.4h0a48.23,48.23,0,0,0-7.83,24.44c-.53,19.73,12.5,33.9,18.23,40.14a49.38,49.38,0,0,0,6.44,6c3.14,2.41,6.17,4,10.37,6.35l.36.21c.78.44,1.62.93,2.49,1.45l.48.28c2.12,1.27,4.53,2.78,7.33,4.67l.18.12c1.31.89,2.73,1.87,4.23,2.95a204.52,204.52,0,0,1,63.09,14.32c.32-.88.63-1.76.91-2.65.17-.53.33-1.07.47-1.6.22-.77.42-1.55.6-2.32.13-.53.25-1.05.36-1.58q.3-1.5.51-3c.06-.45.11-.9.16-1.34.1-.94.18-1.88.22-2.82,0-.26,0-.51.05-.77a38.24,38.24,0,0,0-.12-4.14c0-.28,0-.56-.07-.84-.05-.49-.13-1-.2-1.47s-.12-.79-.19-1.18-.16-.8-.25-1.2-.26-1.06-.41-1.58c-.08-.31-.17-.61-.26-.91s-.22-.68-.34-1-.27-.75-.42-1.12-.26-.64-.4-1-.33-.71-.5-1.06-.31-.64-.48-.95c-.26-.47-.53-.93-.82-1.38-.09-.15-.18-.31-.28-.46a47.57,47.57,0,0,0-6-6.66,22.57,22.57,0,0,1-5.25-7.16c-2.35-5.91,0-12.86,2.82-18.18v0h0c.35.83.78,1.77,1.26,2.76a60.09,60.09,0,0,0,9.17,13.83c9,10.15,17.93,12.79,27.32,16.65a77.49,77.49,0,0,1,9.58,4.58,81.85,81.85,0,0,1,22.7,20.09c1.4,1.79,2.73,3.6,3.91,5.43a41.92,41.92,0,0,1,6.95,23.47,40.63,40.63,0,0,1-.29,4.25c-.14,1.07-.34,2.1-.57,3.12-.07.31-.14.61-.22.92-.19.77-.41,1.53-.65,2.28-.07.24-.14.49-.22.72-.31.9-.66,1.78-1,2.64-.13.3-.28.6-.41.91-.33.7-.68,1.4-1,2.08-.07.13-.13.27-.2.4l-.11.19c-.24.44-.5.87-.75,1.3-.17.28-.33.57-.51.85s-.46.71-.69,1.07q5.65,5.32,10.9,11.07c.29-.18.57-.38.87-.54a18.61,18.61,0,0,1,2.48-1.09c3.3-1.13,6.26-1,9.71-1.38l.51-.06.58-.09.79-.14.53-.11.91-.21.51-.13,1-.3.52-.17c.34-.12.7-.25,1.06-.4l.54-.21c.37-.15.75-.33,1.13-.51l.57-.27c.37-.18.77-.4,1.16-.62l.59-.31a39.73,39.73,0,0,0,7.58-5.73c1.11-1.08,2.06-2.12,2.84-3v0h0c-.1.83-.19,1.72-.29,2.67a112.27,112.27,0,0,0,.73,27.31c1.7,11.23,6.12,21.34,10.35,31.61a171,171,0,0,1,6.29,17.24,92.15,92.15,0,0,1,2.3,10.26c.06.36.14.72.2,1.08.19,1.25.32,2.51.47,3.77.08.69.18,1.36.25,2,.09,1.06.14,2.11.2,3.17,0,.9.13,1.8.16,2.7s0,1.74,0,2.61c0,1.09,0,2.19,0,3.28,0,.69-.08,1.38-.12,2.07-.06,1.28-.12,2.56-.23,3.83-.05.53-.12,1-.18,1.57-.15,1.44-.31,2.88-.52,4.31-.06.38-.14.76-.2,1.13-.22,1.37-.43,2.74-.71,4.1,0,.19-.1.38-.14.57s0,.1,0,.14c-.12.6-.3,1.19-.43,1.78.24,1.89.47,3.78.66,5.68l.68-.47a24.23,24.23,0,0,0,5-5.08l0,0c.33-.47.65-.94,1-1.43l.13-.2q.4-.68.78-1.35l.18-.34c.22-.42.42-.85.62-1.29.07-.14.13-.28.19-.43q.27-.62.51-1.26l.18-.5c.15-.41.27-.82.4-1.24l.16-.55c.11-.41.2-.82.3-1.23,0-.2.09-.39.12-.59q.12-.62.21-1.23l.09-.61c0-.41.07-.81.1-1.22,0-.21,0-.42,0-.64,0-.39,0-.79,0-1.19,0-.22,0-.44,0-.66,0-.39,0-.77-.08-1.15s0-.47-.05-.71-.11-.71-.17-1.07-.07-.51-.12-.76-.12-.51-.18-.77-.14-.65-.23-1a.07.07,0,0,1,0,0q1.66,5.84,2.75,11.57c2,10.42,2.29,20.7-.07,31.06a66.09,66.09,0,0,1-3.43,10.77c-.68,1.65-1.43,3.26-2.22,4.85-.21.41-.44.81-.65,1.21-.59,1.13-1.18,2.25-1.81,3.35-.42.72-.88,1.43-1.32,2.15s-.92,1.52-1.41,2.26-1.06,1.55-1.6,2.31l-.25.38q-.82,7.71-2.2,15.26l1.12,1.12.66.66-1.21,1.21-1.42,1.41c-19.23,93.62-102.09,164-201.4,164-98.26,0-180.41-68.93-200.76-161.06l-1.26-1.26v0l-1.07-1.06-3.25-3.24,3.74-3.75c-.17-1-.34-2-.5-3-.39-.4-.8-.78-1.17-1.19-5.55-6.17-9.15-13.49-11.38-18.34-.23-.51-.47-1-.67-1.48-.08-.16-.13-.33-.21-.49q-.94-2.14-1.76-4.29c-.23-.61-.42-1.21-.63-1.81-.35-1-.69-2-1-3-.19-.62-.36-1.24-.52-1.85-.29-1-.55-2.06-.78-3.07-.13-.56-.26-1.11-.37-1.66-.24-1.13-.44-2.24-.63-3.35,0-.31-.12-.64-.17-1a2.91,2.91,0,0,1,0-.31c-.25-1.68-.45-3.34-.6-5,0-.4-.06-.78-.09-1.18-.09-1.25-.17-2.48-.21-3.7,0-.49,0-1,0-1.46,0-1.27,0-2.52,0-3.73,0-.27,0-.54,0-.8q.06-2.07.21-4c0-.18,0-.38,0-.56.15-1.78.33-3.47.54-5.06,0-.22.05-.43.08-.64.1-.73.2-1.44.31-2.13,0-.15.05-.3.07-.45.14-.85.28-1.65.42-2.42v-.07c.3-1.61.61-3.06.89-4.3v0c2.24,8.59,5.16,15.81,8.41,21a26.21,26.21,0,0,0,5.45,6.5c.36.29.72.56,1.08.8l.07,0c.27.17.55.32.83.47q.59-7.56,1.72-15l-.68-.65-.09-.09a44.11,44.11,0,0,1-3.13-3.47,33.92,33.92,0,0,1-2.85-4.11c-.39-.66-.78-1.32-1.13-2-5.21-10.81-2.57-22.52-.43-32.13,3.2-14.23,8.83-20.32,9.56-27a13.13,13.13,0,0,0-.43-5.1c0-.17-.12-.33-.17-.5a15.48,15.48,0,0,0-.72-1.9c-.14-.32-.31-.62-.47-.93s-.49-.89-.77-1.31-.39-.61-.6-.9-.6-.77-.91-1.14-.4-.49-.61-.72a24.34,24.34,0,0,0-2.39-2.27l-.45-.35c-.68-.56-1.38-1.08-2.09-1.56l-.6-.39c-.71-.47-1.42-.9-2.12-1.29l-.43-.25c-.84-.46-1.66-.88-2.43-1.26h0c.41-.21,1.12-.57,2-1a42.4,42.4,0,0,1,17.11-4.14,24.83,24.83,0,0,1,11.25,2.54c.38.19.77.42,1.15.64l.32.17.86.54.79.51.67.47c.35.25.69.51,1,.78l.5.39c.43.35.85.7,1.27,1.07l.3.27c.52.47,1,1,1.55,1.47l0,0a38.76,38.76,0,0,1,3.25,3.69c.48.63.95,1.29,1.4,2,.13.2.24.41.37.61A205.44,205.44,0,0,1,227,437.85c-.1-.16-.19-.31-.3-.47s-.27-.48-.41-.71c-.35-.59-.7-1.18-1.07-1.85l0-.08c-.44-.79-.88-1.64-1.31-2.51-.08-.16-.15-.32-.23-.47-.37-.77-.73-1.56-1.09-2.38-.12-.27-.23-.53-.34-.8-.32-.77-.62-1.55-.91-2.35-.09-.25-.19-.49-.28-.74a38.49,38.49,0,0,1-1.84-15.66c.81-10.44,5.07-20.2,8.41-27.37.27-.6.55-1.19.81-1.75.91-1.94,1.87-3.81,2.86-5.61.43-.77.88-1.48,1.31-2.23.59-1,1.16-2,1.77-3s1.08-1.62,1.63-2.43,1-1.55,1.57-2.29c.7-1,1.4-1.88,2.11-2.79.29-.36.56-.76.84-1.11l.24-.28c1-1.26,2-2.46,3.06-3.62.18-.2.35-.41.53-.6q1.77-2,3.53-3.74l0,0c2.42-2.43,4.79-4.58,7-6.42v0l0,0a45,45,0,0,0-3,20.29,42.75,42.75,0,0,0,.64,4.52c.06.29.14.58.21.88.25,1.17.53,2.32.87,3.46.13.43.28.84.42,1.27.33,1,.68,2,1.07,3,.19.46.39.91.59,1.36.41.92.85,1.84,1.31,2.73.23.45.47.88.71,1.32.51.89,1,1.77,1.6,2.63.26.39.51.79.78,1.17.63.91,1.3,1.79,2,2.66.24.29.46.59.7.88.9,1.07,1.84,2.09,2.83,3.07l.18.19a44,44,0,0,0,3.48,3.08l.22.17a205.24,205.24,0,0,1,40.27-21.38h0l-.72-1.1c-.3-.45-.6-.9-.9-1.37l-.57-.91-.56-.87c-.38-.61-.74-1.24-1.1-1.9-.74-1.32-1.39-2.65-2-4-.11-.23-.2-.46-.3-.69-.49-1.1-.94-2.2-1.34-3.31q-.18-.45-.33-.9c-.42-1.2-.8-2.39-1.13-3.6,0-.13-.08-.27-.12-.4-.35-1.35-.65-2.7-.91-4.05-.05-.29-.09-.57-.13-.86-.18-1-.33-2.09-.45-3.13l-.12-1.23c-.09-1-.15-2-.18-3,0-.36,0-.72-.05-1.08,0-1.31,0-2.62.06-3.92l.06-.71c.07-1.07.16-2.14.29-3.21,0-.44.11-.88.17-1.32.13-.9.28-1.79.44-2.68.08-.44.16-.87.25-1.3q.35-1.65.78-3.3c0-.17.08-.35.13-.53.34-1.25.73-2.49,1.15-3.72.13-.39.28-.78.42-1.16.31-.88.65-1.75,1-2.62l.52-1.24c.4-.92.82-1.84,1.26-2.74.14-.3.27-.59.41-.88.59-1.18,1.22-2.35,1.88-3.5.15-.27.32-.53.48-.8.52-.89,1.07-1.77,1.63-2.64l.72-1.08c.54-.81,1.1-1.6,1.68-2.39.16-.21.3-.44.46-.65l.22-.27c.86-1.14,1.75-2.26,2.68-3.34l.49-.56c.8-.93,1.63-1.83,2.48-2.72l.75-.77a73.61,73.61,0,0,1,6.58-5.91l.61-.48c1.06-.83,2.15-1.63,3.26-2.41.13-.08.25-.17.37-.26,1.27-.86,2.56-1.69,3.88-2.47l.27-.16c1.2-.7,2.41-1.36,3.64-2,.24-.12.47-.25.71-.36,1.33-.66,2.68-1.3,4.06-1.87a71.07,71.07,0,0,1,13.9-4.15M599.69,521.19h0m0,0,0,0v0a.14.14,0,0,0,0-.06M356.51,267a10,10,0,0,0-2,.19,81.39,81.39,0,0,0-15.93,4.76c-1.46.6-2.95,1.29-4.7,2.15l-.67.35-.15.07c-1.45.74-2.86,1.51-4.17,2.28a3.25,3.25,0,0,0-.33.19c-1.48.87-3,1.83-4.43,2.83l-.39.27c-1.28.89-2.54,1.81-3.77,2.78l-.17.13-.52.41a85.42,85.42,0,0,0-7.51,6.74L311,291c-1,1-2,2.09-2.86,3.12l-.11.12-.45.51q-1.49,1.75-3,3.69c-.12.15-.24.29-.35.44l-.5.7-.05.09c-.64.86-1.29,1.78-1.89,2.67-.27.41-.55.82-.81,1.23-.62,1-1.25,2-1.87,3l-.13.21-.42.7c-.75,1.31-1.47,2.66-2.15,4-.13.25-.25.51-.37.77l-.11.23c-.53,1.1-1,2.14-1.45,3.17-.2.47-.4.95-.59,1.43-.4,1-.78,1.95-1.16,3l-.12.32c-.12.35-.25.69-.36,1-.53,1.54-1,3-1.34,4.32-.06.22-.11.43-.16.64-.32,1.23-.63,2.52-.9,3.82-.09.42-.16.84-.24,1.27l-.05.24c-.19,1-.36,2.09-.51,3.13l0,.15c-.07.47-.13.94-.19,1.4-.14,1.24-.26,2.51-.34,3.79v.07c0,.25,0,.5-.06.76-.07,1.49-.1,3-.07,4.63l0,1,0,.3c0,1.19.11,2.37.22,3.5,0,.5.09,1,.14,1.47.14,1.2.31,2.45.53,3.72l0,.19c0,.27.08.55.14.83.3,1.63.66,3.25,1.08,4.81.05.19.1.38.16.57.38,1.37.82,2.77,1.31,4.19l.33.9.06.17c.48,1.31,1,2.64,1.59,3.93l.08.17c.09.22.18.43.28.64s.27.58.4.86a215.52,215.52,0,0,0-24.1,13l-.14-.17-.37-.47c-.62-.78-1.13-1.46-1.57-2.08l-.41-.63-.19-.29c-.47-.72-.88-1.4-1.25-2.05-.19-.34-.37-.68-.55-1-.35-.66-.69-1.38-1-2.14l-.06-.13c-.13-.31-.27-.61-.4-.92-.26-.66-.53-1.39-.83-2.31l-.18-.53-.15-.45c-.23-.77-.45-1.64-.67-2.67,0-.24-.11-.47-.16-.71l0-.06c-.22-1.17-.38-2.3-.48-3.37a34.23,34.23,0,0,1,2.36-15.59,10.42,10.42,0,0,0-9.72-14.19,10.33,10.33,0,0,0-6.7,2.43c-2.59,2.16-5.17,4.54-7.68,7a.94.94,0,0,1-.1.1c-1.26,1.27-2.55,2.64-3.83,4.06-.16.17-.31.35-.46.53l-.12.14c-1.18,1.33-2.26,2.6-3.3,3.89l-.34.4c-.23.29-.46.61-.7.92l-.22.3-.09.11c-.73.94-1.48,1.91-2.26,3-.45.62-.9,1.28-1.35,1.95l-.39.57-.39.58c-.48.7-.95,1.39-1.42,2.13s-1.07,1.76-1.6,2.67l-.35.6-.41.67c-.35.59-.7,1.19-1,1.81-1.14,2.07-2.21,4.16-3.17,6.21l-.83,1.78c-4.33,9.29-8.46,19.48-9.34,30.95a49,49,0,0,0,2.37,19.87c.11.3.22.59.34.89.35,1,.7,1.89,1.07,2.79l.39.91c.45,1,.88,2,1.31,2.84l0,.12.17.35c-1.25,1.61-2.49,3.25-3.69,4.9l-.51-.42c-.2-.16-.41-.33-.63-.49-.48-.37-.93-.71-1.38-1l-.11-.08-.76-.54c-.33-.22-.65-.43-1-.63l-.09-.06-.15-.1-1-.62c-.16-.1-.33-.19-.5-.28l-.06,0c-.51-.29-1-.57-1.51-.82a35.19,35.19,0,0,0-15.93-3.64,52.27,52.27,0,0,0-21.52,5.11c-1.07.5-1.92.93-2.44,1.2a10.43,10.43,0,0,0,.3,18.65c.63.3,1.28.64,1.92,1l.36.21c.49.28,1,.6,1.54.93l.43.29c.46.32.93.67,1.4,1.05l.32.25,0,0a16.72,16.72,0,0,1,1.33,1.24l0,0,.38.46.44.53.19.3.08.12c.1.16.21.34.32.55s.15.28.2.39a6,6,0,0,1,.24.65c0,.14.09.28.14.42a2.89,2.89,0,0,1,.05.95c-.15,1.35-1.22,3.68-2.46,6.37a90.92,90.92,0,0,0-6.91,19.5l0,.12c-1.34,6-3,13.31-2.82,21.09a10.42,10.42,0,0,0-6.4,7.4c-.34,1.53-.67,3.11-1,4.72l0,.09q-.22,1.25-.45,2.64l-.06.35,0,.14c-.12.77-.23,1.55-.34,2.35l0,.11-.08.6c-.24,1.92-.44,3.75-.58,5.57,0,.25,0,.47,0,.68-.11,1.53-.18,3-.22,4.42,0,.22,0,.46,0,.69v.18c0,1.35,0,2.74,0,4.15,0,.55,0,1.09,0,1.64.05,1.31.13,2.7.24,4.13l0,.36c0,.32,0,.64.07,1,.16,1.77.38,3.59.65,5.41,0,.18,0,.35.07.53s.11.63.17.95l0,.16c.21,1.31.44,2.55.69,3.73.12.57.25,1.14.38,1.71l0,.16c.26,1.14.56,2.31.88,3.48.19.69.38,1.39.6,2.1.38,1.28.8,2.52,1.13,3.46l.17.5c.18.52.35,1,.55,1.56.58,1.56,1.24,3.15,1.94,4.73.1.26.2.49.31.73l.68,1.5A89.81,89.81,0,0,0,169.8,603a10.44,10.44,0,0,0,1.73,12.51l3.26,3.24.18.18a216.09,216.09,0,0,0,421.21-3l.44-.43a10.44,10.44,0,0,0,1.94-12.12c.45-2.83.84-5.68,1.18-8.53.17-.25.34-.5.5-.75.43-.65.84-1.32,1.25-2l.32-.52.36-.57c.38-.61.75-1.22,1.11-1.84.73-1.26,1.38-2.49,2-3.74l.18-.33c.19-.35.38-.69.56-1,.94-1.9,1.77-3.7,2.52-5.5a77.87,77.87,0,0,0,4-12.46c2.5-11,2.55-22.54.15-35.3-.76-4-1.76-8.23-3-12.5v0c0-.08-.05-.16-.07-.24a10.42,10.42,0,0,0-7.89-7.08c0-.21,0-.43,0-.64-.05-.55-.12-1.09-.19-1.63,0-.21-.06-.42-.08-.64l-.07-.61c-.13-1.14-.26-2.31-.46-3.57,0-.35-.12-.69-.19-1l0-.2a101.62,101.62,0,0,0-2.55-11.41,176.92,176.92,0,0,0-6.67-18.31l-1-2.35c-3.77-9.12-7.33-17.73-8.71-26.86A101.34,101.34,0,0,1,581.1,419c.09-.86.17-1.67.26-2.43a10.43,10.43,0,0,0-18.31-8,30.29,30.29,0,0,1-2.13,2.27,28.2,28.2,0,0,1-5.48,4.16l-.06,0-.39.21-.13.07c-.22.12-.44.25-.66.35l0,0-.34.16-.72.33-.12.05-.2.07-.64.24-.28.1-.6.18-.28.07-.54.13-.1,0-.2,0-.5.08-.22,0-.15,0-.13,0-.22,0c-.77.09-1.61.15-2.5.22a41,41,0,0,0-6.53.85l-.71-.71.34-.75c.51-1.19.94-2.29,1.32-3.37.09-.28.18-.56.26-.84l0-.11c.3-.94.58-1.93.83-2.92.1-.41.19-.8.28-1.2.33-1.47.56-2.74.73-4a47.29,47.29,0,0,0,.37-5.42,52.25,52.25,0,0,0-8.61-29.31c-1.24-1.93-2.66-3.9-4.46-6.2a91.82,91.82,0,0,0-25.71-22.7,89.51,89.51,0,0,0-10.83-5.2c-1.16-.48-2.32-.94-3.48-1.4-7.66-3-13.7-5.44-20-12.52a50.06,50.06,0,0,1-7.59-11.46c-.4-.83-.77-1.63-1.05-2.3a10.48,10.48,0,0,0-9.15-6.34H452a10.43,10.43,0,0,0-9.21,5.55c-5.22,9.87-6.36,19.17-3.29,26.91a32.38,32.38,0,0,0,7.5,10.61l1.15,1.16a33.31,33.31,0,0,1,3.46,3.81l.23.38c.18.28.35.56.5.84l.15.29.14.3c.12.23.22.44.32.65s.17.41.25.62l.27.7c.08.22.15.43.22.65s.1.34.14.5l0,.11c.11.39.2.75.28,1.1s.12.51.17.79.09.56.13.82.11.68.14,1l0,.23,0,.37c.08,1,.11,2,.09,2.88v.07c0,.21,0,.41,0,.61,0,.67-.09,1.34-.15,2a215.09,215.09,0,0,0-52.12-10.68l-2-1.4-.15-.1c-2.71-1.83-5.27-3.46-7.85-5l-.35-.21-.14-.08c-1-.56-1.84-1.08-2.67-1.55l-.25-.14-.11-.06L386.54,344a58.13,58.13,0,0,1-6.87-4.25,40.5,40.5,0,0,1-5.08-4.77c-5.17-5.63-15.9-17.32-15.49-32.81A37.3,37.3,0,0,1,365.3,283h0l0,0a10.43,10.43,0,0,0-8.81-16Zm0,20.86Z" transform="translate(-151.42 -214.79)"/><path class="cls-2" d="M384.08,254.63c-6.65,18.22-21.49,35.46-15.21,55.89,2.6,8.5,8.47,15.2,15.21,20.82,2.55,2.16,5.22,4.13,7.89,6,1.07.75,4.25,3.16,8.13,6,2.74,2,5.81,4.14,8.7,6l.06,0c5.05,3.27,9.55,5.66,10.74,4.7,2.11-1.74-5.54-15.09-6.24-17.23-3.3-10.07-1.85-21.08,1.09-31.11,4.05-13.88,12.94-27.42,13.74-42.35.8-15.19-9.1-30.38-23.3-35.89a24.19,24.19,0,0,0-2.85-.92,42,42,0,0,0-12.27-1.27h0c-.82,0-1.3.08-1.3.08a38.33,38.33,0,0,0-10.66,2.55l-.2.09A19.15,19.15,0,0,1,384,234.8a1.4,1.4,0,0,1,.09.17c3.52,6.73,1.82,14.22.68,17.72Z" transform="translate(-151.42 -214.79)"/><path class="cls-3" d="M391.57,225.22A40.92,40.92,0,0,1,402,226.53a24.19,24.19,0,0,1,2.85.92c14.2,5.51,24.1,20.7,23.3,35.89-.8,14.93-9.69,28.47-13.74,42.35-2.94,10-4.39,21-1.09,31.11.7,2.14,8.35,15.49,6.24,17.23a1.23,1.23,0,0,1-.76.21c-1.81,0-5.7-2.14-10-4.91l-.06,0c-2.89-1.88-6-4-8.7-6-3.88-2.79-7.06-5.2-8.13-6-2.67-1.87-5.34-3.84-7.89-6-6.74-5.62-12.61-12.32-15.21-20.82-6.28-20.43,8.56-37.67,15.21-55.89l.68-1.94c1.14-3.5,2.84-11-.68-17.72a1.4,1.4,0,0,0-.09-.17A19.15,19.15,0,0,0,377.6,228l.2-.09a38.33,38.33,0,0,1,10.66-2.55s.48-.05,1.3-.08h0c.49,0,1.1,0,1.8,0m0-10.43c-.83,0-1.56,0-2.15.05h-.1c-1,0-1.66.1-1.88.13a48.59,48.59,0,0,0-13.5,3.24l-.15.06c-.28.11-.55.23-.83.37a10.43,10.43,0,0,0-1.13,18,8.82,8.82,0,0,1,2.92,3l.09.17c1.73,3.31.61,7.77,0,9.6-.18.54-.37,1.09-.57,1.63A141.59,141.59,0,0,1,368,265c-7,14-14.83,29.86-9.07,48.62,2.86,9.35,8.92,17.78,18.5,25.77,2.4,2,5.15,4.12,8.58,6.53.43.3,1.19.86,2.19,1.6,1.53,1.14,3.57,2.64,5.84,4.28,3.42,2.46,6.48,4.58,9.1,6.28.16.11.33.21.5.31,7.17,4.6,11.32,6.32,15.23,6.32a11.53,11.53,0,0,0,7.35-2.56c6.91-5.69,3.44-14.53,2.3-17.44-1.22-3.09-2.9-6.49-4.13-9-.41-.82-.95-1.92-1.17-2.41-2.08-6.6-1.66-14.67,1.27-24.67a131.81,131.81,0,0,1,5.33-14c4-9.54,8.21-19.41,8.81-30.71,1-19.62-11.55-39-29.94-46.17a34.32,34.32,0,0,0-4-1.28,51.24,51.24,0,0,0-13.1-1.66Z" transform="translate(-151.42 -214.79)"/><circle class="cls-4" cx="234.13" cy="354.37" r="205.61"/><path class="cls-5" d="M588.4,593.34q-2.83,3.88-6.07,7.58l4.58,4.58,2.67,2.64-4.2,4.17-.14.14-27.61,27.63L434.09,763.63a207.06,207.06,0,0,1-100.17-.77L186.44,615.36l-2.91-2.91-4.33-4.31,5-5c-.23-.2-.43-.38-.63-.59a31.85,31.85,0,0,1-2.31-2.34c-6.13-6.82-9.9-15.07-12-19.81-10.61-23.28-6.79-46.32-4.49-56.34,3.65,14.06,9.16,24.48,14.93,28.3l.54.33a8.13,8.13,0,0,0,4.43,1.25c2.64-.07,5.93-1.67,6.72-4.25,1.22-3.88-4.24-7-9.75-12.45l-.09-.09a35.36,35.36,0,0,1-7.1-9.61c-5.22-10.81-2.58-22.52-.43-32.13,4-17.68,11.71-22.78,9.13-32.15-2.12-7.64-9.49-12.22-14.77-14.75,2.68-1.4,17.66-9,30.39-2.59a35.86,35.86,0,0,1,11.73,10c.47.63.95,1.29,1.4,2a39.35,39.35,0,0,1,2.95,5.37c1.67,3.88,2.35,7.52,6.07,11.74,2,2.25,5.64,6.38,9.57,6.09,7.26-.61,14.68-16.56,10.42-26.94-2-4.74-4.83-4.63-10.42-11.73a53.14,53.14,0,0,1-3.43-5c-.5-.82-1-1.69-1.54-2.64a58.35,58.35,0,0,1-4.15-9.25c-5.77-16.72,2.42-34.2,7.38-44.79a99.49,99.49,0,0,1,26.46-34.11,45.22,45.22,0,0,0-3,20.29,47,47,0,0,0,14.17,29.37c1,1,2.1,1.92,3.22,2.82a42.89,42.89,0,0,0,12.3,6.9c6.95,2.51,14.42,3.25,21.54,5.21s14.31,5.58,18,11.94c-.74-1.29,2.26-8.57,2.5-10.65,1.83-15.68-6.4-23.69-13.87-34.63-.92-1.35-1.85-2.75-2.75-4.24-.39-.61-.75-1.24-1.11-1.9-19.13-34.4,3-76.16,36.73-90.15a71.47,71.47,0,0,1,13.9-4.15A48.32,48.32,0,0,0,349,301.83c-.52,19.74,12.5,33.91,18.23,40.16,6.38,6.93,10.08,8.48,17.17,12.54,1.8,1,3.81,2.22,6.13,3.7,2.67,1.65,5.71,3.7,9.34,6.32h0c2.57,1.85,5.41,4,8.59,6.48,9.84,7.69,23.62,18,22,32.19-.13,1.15-.34,2.41.34,3.38,5.55,7.83,20.82-10.24,23.89-14.37a54.12,54.12,0,0,0,7.18-13.1,49.08,49.08,0,0,0,1.82-5.58,47.19,47.19,0,0,0,1.74-11.3A31.55,31.55,0,0,0,460.73,344c-3.2-4.83-9-8.35-11.21-13.81-2.35-5.91,0-12.86,2.82-18.18a61.17,61.17,0,0,0,10.45,16.6c12,13.54,23.84,13.72,36.88,21.23a82.37,82.37,0,0,1,26.62,25.52A41.14,41.14,0,0,1,533,403.06a36.72,36.72,0,0,1-4.33,13.07,50.08,50.08,0,0,1-2.71,4.37,84.51,84.51,0,0,1-6.29,8c-5.4,6.15-15.05,15.52-11.26,24.65,1.6,3.82,5.62,7.2,9.13,6.91,8.13-.66,7.07-20.53,18.93-28.77a14.79,14.79,0,0,1,1.9-1.19A19.19,19.19,0,0,1,540.8,429c6.11-2.09,11,.3,20.1-4.91a39.86,39.86,0,0,0,10.42-8.76,112.6,112.6,0,0,0,.43,30c2.64,17.37,11.8,32.08,16.65,48.84a96.46,96.46,0,0,1,1.47,46.63c-.38,1.9-.84,3.77-1.35,5.64-.32,1.15-.66,2.3-1,3.43.43-.22.86-.47,1.29-.72.61-.36,1.17-.74,1.74-1.15v0c8.1-5.87,12.22-17.06,9.45-26.76,5.17,18.09,6.68,35.51-.75,53.4a86.76,86.76,0,0,1-10.06,17.67Z" transform="translate(-151.42 -214.79)"/><path class="cls-5" d="M530.65,625.38a42.54,42.54,0,0,1-8.75,21.81A43.8,43.8,0,0,1,503,660.72c-6.89,2.77-12.64,3.27-18.1,3.74-9.63.84-12.81-.56-23.51-.2a113.19,113.19,0,0,0-16.73,1.8,94.66,94.66,0,0,1,10-21.14c4.27-6.72,8.26-13,16-18.48a51.91,51.91,0,0,1,19.57-8.26c6.34-1.46,20.69-4.76,33.94,2.57A35.55,35.55,0,0,1,530.65,625.38Z" transform="translate(-151.42 -214.79)"/><path class="cls-3" d="M444,666.6l.23-.68a95.13,95.13,0,0,1,10-21.22c4.27-6.73,8.31-13.08,16.08-18.61a52.78,52.78,0,0,1,19.72-8.32c6.24-1.44,20.84-4.81,34.24,2.61a36.14,36.14,0,0,1,6.59,4.68l.17.15,0,.22a42.62,42.62,0,0,1-8.84,22,44.13,44.13,0,0,1-19.06,13.66c-6.95,2.8-12.68,3.3-18.22,3.78a74.57,74.57,0,0,1-12.27,0,108.38,108.38,0,0,0-11.26-.23,114.37,114.37,0,0,0-16.67,1.79Zm61.25-50a66,66,0,0,0-15,2,51.35,51.35,0,0,0-19.42,8.2c-7.64,5.42-11.63,11.71-15.85,18.36a94.85,94.85,0,0,0-9.72,20.36,115.33,115.33,0,0,1,16.09-1.68,110.07,110.07,0,0,1,11.35.23,72.89,72.89,0,0,0,12.13,0c5.48-.47,11.15-1,18-3.72a43.4,43.4,0,0,0,18.71-13.4,41.73,41.73,0,0,0,8.64-21.37,35.17,35.17,0,0,0-6.27-4.43A38.09,38.09,0,0,0,505.29,616.6Z" transform="translate(-151.42 -214.79)"/><path class="cls-3" d="M415.16,623.06q.94,15.56,1.89,31.14a2.71,2.71,0,0,0,.56,1.08,2.79,2.79,0,0,0,2.34.87c1-.15,1.62-1.13,2.87-3.09l2.74-4.37a180.63,180.63,0,0,1,14.61-22.28c.15-.21.34-.45.57-.74.63-.83,1.3-1.65,2-2.48l-.35-25.47c-1.4,1-2.83,2.09-4.3,3.24A154.45,154.45,0,0,0,415.16,623.06Z" transform="translate(-151.42 -214.79)"/><path class="cls-3" d="M467,582.93a215.38,215.38,0,0,0-19.62,11.35l.32,23.21c4.69-5.16,9.61-10,13.44-13.71l11.05-23.5C470.5,581.1,468.76,582,467,582.93Z" transform="translate(-151.42 -214.79)"/><path class="cls-3" d="M498.24,569.45c-.9.31-5.68,1.94-10.36,3.79-1.74.69-5.47,2.18-10.45,4.5l-9.09,19.33a444.5,444.5,0,0,1,39.4-30.67C505.14,567.18,501.91,568.2,498.24,569.45Z" transform="translate(-151.42 -214.79)"/><polygon class="cls-6" points="260.11 423.84 260.11 443.88 245.78 451.22 260.11 423.84"/><path class="cls-5" d="M238.11,625.38a42.48,42.48,0,0,0,8.76,21.81,43.84,43.84,0,0,0,18.88,13.53c6.89,2.77,12.64,3.27,18.1,3.74,9.64.84,12.81-.56,23.51-.2a113,113,0,0,1,16.73,1.8,94.71,94.71,0,0,0-10-21.14c-4.27-6.72-8.27-13-16-18.48a52,52,0,0,0-19.57-8.26c-6.34-1.46-20.69-4.76-33.94,2.57A36,36,0,0,0,238.11,625.38Z" transform="translate(-151.42 -214.79)"/><path class="cls-3" d="M324.72,666.6l-.7-.13a114.67,114.67,0,0,0-16.67-1.79,108.58,108.58,0,0,0-11.27.23,74.44,74.44,0,0,1-12.26,0c-5.54-.48-11.27-1-18.23-3.78a44.13,44.13,0,0,1-19.06-13.66,42.79,42.79,0,0,1-8.84-22l0-.22.16-.15a36.69,36.69,0,0,1,6.59-4.68c13.4-7.41,28-4,34.24-2.61a52.71,52.71,0,0,1,19.72,8.32c7.78,5.53,11.82,11.88,16.09,18.61a95.57,95.57,0,0,1,10,21.22Zm-20.87-2.83c1.08,0,2.25,0,3.53.06a115.18,115.18,0,0,1,16.08,1.68,94.57,94.57,0,0,0-9.71-20.36c-4.23-6.65-8.22-12.93-15.86-18.36a51.35,51.35,0,0,0-19.42-8.2c-6.14-1.41-20.52-4.72-33.64,2.53a36.12,36.12,0,0,0-6.27,4.43,41.87,41.87,0,0,0,8.64,21.37,43.4,43.4,0,0,0,18.71,13.4c6.84,2.76,12.5,3.25,18,3.72a73,73,0,0,0,12.14,0C298.37,663.92,300.77,663.77,303.85,663.77Z" transform="translate(-151.42 -214.79)"/><path class="cls-6" d="M500.77,631.89a23.46,23.46,0,0,0-4.58-9,24.82,24.82,0,0,0-3.49-3.46c-15.73,6.39-29.81,15.47-38.82,28.4.12.24.22.48.35.71a25,25,0,0,0,22.31,13.26,25.54,25.54,0,0,0,10.19-2.09,24,24,0,0,0,14.79-22A22.38,22.38,0,0,0,500.77,631.89Z" transform="translate(-151.42 -214.79)"/><path class="cls-7" d="M500.77,631.89a23.76,23.76,0,0,0-6.41-1.4,24.7,24.7,0,0,0-3.87,0,21.08,21.08,0,0,1,.08,5.34c-.23,2.11-.69,6.4-3.79,10s-6.88,4.49-9.15,5.06a23.19,23.19,0,0,1-13.57-.84,16.54,16.54,0,0,0,3.77,3.68,17.41,17.41,0,0,0,9.8,3c-.78.12-1.95.26-3.37.43-2.24.23-2.82.23-2.85.41-.07.45,3.25,1.68,7,2.11,4.89.56,8.21-.56,8.36-.06a25.54,25.54,0,0,1-10.19,2.09,25,25,0,0,1-22.31-13.26,20.83,20.83,0,0,1-1.2-2.68c.74-1.27,1.65-2.72,2.68-4.29a71.86,71.86,0,0,1,13.9-15.63,62.32,62.32,0,0,1,17.27-10.11,24.62,24.62,0,0,1,9.31,7.06A23.46,23.46,0,0,1,500.77,631.89Z" transform="translate(-151.42 -214.79)"/><path class="cls-8" d="M487.76,640a12.42,12.42,0,0,1-24.08,1.38,11.51,11.51,0,0,1-.35-1.46c.48-.57,1.05-1.23,1.7-1.93a36.66,36.66,0,0,1,8.18-6.67,30.93,30.93,0,0,1,9.33-3.6,12.34,12.34,0,0,1,3.93,4.36A12.1,12.1,0,0,1,487.76,640Z" transform="translate(-151.42 -214.79)"/><path class="cls-6" d="M268,631.89a23.59,23.59,0,0,1,4.58-9,24.37,24.37,0,0,1,3.5-3.46c15.73,6.39,29.8,15.47,38.81,28.4-.11.24-.22.48-.35.71a25,25,0,0,1-22.3,13.26A25.5,25.5,0,0,1,282,659.69a24,24,0,0,1-14.79-22A22.81,22.81,0,0,1,268,631.89Z" transform="translate(-151.42 -214.79)"/><path class="cls-7" d="M268,631.89a23.85,23.85,0,0,1,6.41-1.4,24.83,24.83,0,0,1,3.88,0,21.08,21.08,0,0,0-.08,5.34c.23,2.11.69,6.4,3.79,10a16.53,16.53,0,0,0,9.15,5.06,23.2,23.2,0,0,0,13.57-.84,16.83,16.83,0,0,1-3.78,3.68,17.36,17.36,0,0,1-9.79,3c.77.12,1.94.26,3.36.43,2.25.23,2.82.23,2.86.41.06.45-3.25,1.68-7,2.11-4.9.56-8.21-.56-8.36-.06a25.5,25.5,0,0,0,10.19,2.09,25,25,0,0,0,22.3-13.26,20.88,20.88,0,0,0,1.21-2.68c-.74-1.27-1.65-2.72-2.69-4.29a71.6,71.6,0,0,0-13.9-15.63,62.27,62.27,0,0,0-17.26-10.11,24.58,24.58,0,0,0-9.32,7.06A23.59,23.59,0,0,0,268,631.89Z" transform="translate(-151.42 -214.79)"/><path class="cls-8" d="M281,640a12.41,12.41,0,0,0,24.07,1.38,11.51,11.51,0,0,0,.35-1.46c-.47-.57-1.05-1.23-1.69-1.93a36.66,36.66,0,0,0-8.18-6.67,31,31,0,0,0-9.34-3.6,12.44,12.44,0,0,0-3.93,4.36A12.16,12.16,0,0,0,281,640Z" transform="translate(-151.42 -214.79)"/><path class="cls-5" d="M492.23,636.68a15.28,15.28,0,0,1-.6,6.91,14.44,14.44,0,0,1-6.28,7.8,14,14,0,0,1-10.17,1.69,27.09,27.09,0,0,0,6.5,1.61c.73.08,1.43.13,2.1.16a8.21,8.21,0,0,1-2.1,1.44,11.62,11.62,0,0,1-1.94.65,14.36,14.36,0,0,0,8.82-1.37,17.19,17.19,0,0,0,7.86-8.6,19.41,19.41,0,0,0,1.42-9.63Z" transform="translate(-151.42 -214.79)"/><path class="cls-5" d="M483.08,649.21a7.87,7.87,0,0,0,2.37-1.24,10.13,10.13,0,0,0,3.46-5.26l-7.55-.86C481.94,644.3,482.51,646.76,483.08,649.21Z" transform="translate(-151.42 -214.79)"/><path class="cls-5" d="M276.67,636.68a15.28,15.28,0,0,0,.6,6.91,14.44,14.44,0,0,0,6.28,7.8,14,14,0,0,0,10.17,1.69,27.18,27.18,0,0,1-6.51,1.61c-.72.08-1.42.13-2.09.16a8.14,8.14,0,0,0,2.09,1.44,11.53,11.53,0,0,0,2,.65,14.39,14.39,0,0,1-8.83-1.37,17.16,17.16,0,0,1-7.85-8.6,19.56,19.56,0,0,1-1.43-9.63Z" transform="translate(-151.42 -214.79)"/><path class="cls-5" d="M285.81,649.21a8.11,8.11,0,0,1-2.37-1.24,10.26,10.26,0,0,1-3.46-5.26l7.55-.86C287,644.3,286.39,646.76,285.81,649.21Z" transform="translate(-151.42 -214.79)"/><path class="cls-3" d="M494.39,600.86a137.56,137.56,0,0,0-34.85,18.07c1.1-1.53,2.24-3.07,3.46-4.6a122.94,122.94,0,0,1,22.13-21.56.85.85,0,1,0-1-1.36,125.44,125.44,0,0,0-22.45,21.86c-16.33,20.58-22,41.32-26.21,56.47a209.17,209.17,0,0,0-5.81,29.07.85.85,0,0,0,.74,1h.11a.85.85,0,0,0,.84-.74,204.33,204.33,0,0,1,5.77-28.83c2.51-9.15,5.61-20.35,11.28-32.31A80.6,80.6,0,0,1,457,626.54,89.72,89.72,0,0,1,468.68,616a112.19,112.19,0,0,1,25.86-14.74.21.21,0,0,0,.12-.27A.21.21,0,0,0,494.39,600.86Z" transform="translate(-151.42 -214.79)"/><path class="cls-3" d="M307.1,613.27a125,125,0,0,0-22.44-21.86.85.85,0,0,0-1,1.36,122.68,122.68,0,0,1,22.14,21.56c1.22,1.53,2.35,3.07,3.45,4.6a137.56,137.56,0,0,0-34.85-18.07.21.21,0,0,0-.27.13.21.21,0,0,0,.12.27A111.77,111.77,0,0,1,300.08,616a90.74,90.74,0,0,1,11.7,10.54,80,80,0,0,1,8.6,11.34c5.67,12,8.77,23.16,11.29,32.31A208.38,208.38,0,0,1,337.44,699a.84.84,0,0,0,.84.74h.11a.85.85,0,0,0,.73-1,207.43,207.43,0,0,0-5.81-29.07C329.14,654.59,323.43,633.85,307.1,613.27Z" transform="translate(-151.42 -214.79)"/><path class="cls-3" d="M541.57,627.69c-.31.87-1.26,1.36-3.1,2.33a18.62,18.62,0,0,1-5.61,1.85c-6.14-6.82-14.34-9.76-23.35-10.25a56.48,56.48,0,0,0-12.72.75,64.71,64.71,0,0,0-7.23,1.68,70.74,70.74,0,0,0-36.06,24.78c-.2.26-.37.49-.51.7a83.14,83.14,0,0,0-6,10.24c-1.8,3.76-2.59,6.24-2.74,6.24s1.53-7.21,5.27-14.92c.39-.81,1.31-2.62,2.74-5,.77-1.31,1.7-2.81,2.77-4.42a74,74,0,0,1,14.34-16.13,63.88,63.88,0,0,1,17.81-10.42,54.41,54.41,0,0,1,26.68-3.4c2.95.39,11.65,1.31,20,6.9C534.77,619.2,542.68,624.59,541.57,627.69Z" transform="translate(-151.42 -214.79)"/><path class="cls-3" d="M444.25,666.54l-.2,0-.21-.09-.1-.23c-.26-.69,1.82-8.16,5.3-15.33.25-.5,1.16-2.37,2.76-5.07.81-1.38,1.75-2.87,2.79-4.45A74.86,74.86,0,0,1,469,625.1a64.45,64.45,0,0,1,18-10.51,55.28,55.28,0,0,1,26.94-3.43l.43.05c3.2.42,11.72,1.52,19.8,6.94,2.76,1.87,9,6.55,7.91,9.72h0c-.38,1-1.41,1.6-3.29,2.59a19.43,19.43,0,0,1-5.84,1.94l-.28,0-.19-.21c-5.55-6.16-13.29-9.55-23-10.08a56.18,56.18,0,0,0-12.61.74,67,67,0,0,0-7.16,1.67,70,70,0,0,0-35.78,24.59c-.2.26-.37.48-.49.67a82.2,82.2,0,0,0-6,10.18c-1,2.17-1.75,3.94-2.18,5C444.74,666.37,444.67,666.54,444.25,666.54Zm63.06-54.75a55.73,55.73,0,0,0-19.94,3.8,63.31,63.31,0,0,0-17.66,10.33,73.72,73.72,0,0,0-14.23,16c-1,1.56-2,3-2.76,4.4-1.58,2.67-2.48,4.5-2.72,5a79.87,79.87,0,0,0-3.21,7.66,83.27,83.27,0,0,1,5.76-9.75c.14-.21.32-.46.54-.73a71.1,71.1,0,0,1,36.32-25,66.5,66.5,0,0,1,7.29-1.7,57.08,57.08,0,0,1,12.84-.75c9.88.54,17.79,4,23.52,10.21a18.38,18.38,0,0,0,5.17-1.75c1.7-.9,2.6-1.37,2.84-2h0c.67-1.89-3.28-5.62-7.5-8.48-7.88-5.27-16.21-6.35-19.35-6.76l-.43-.06A49.67,49.67,0,0,0,507.31,611.79Z" transform="translate(-151.42 -214.79)"/><path class="cls-3" d="M444.25,666.86l-.3-.06-.35-.13-.15-.36c-.38-1,2.05-8.87,5.31-15.59.24-.5,1.16-2.38,2.77-5.09.79-1.36,1.73-2.87,2.79-4.46a74.81,74.81,0,0,1,14.51-16.31,64.68,64.68,0,0,1,18-10.57,55.81,55.81,0,0,1,27.1-3.45l.42.06c3.23.42,11.8,1.52,20,7,3.5,2.39,9.19,6.86,8,10.1-.41,1.17-1.49,1.73-3.44,2.76a20.15,20.15,0,0,1-5.94,2l-.45.07-.31-.35c-5.48-6.09-13.14-9.45-22.77-10a56.58,56.58,0,0,0-12.53.73,64.16,64.16,0,0,0-7.13,1.67,69.66,69.66,0,0,0-35.61,24.46c-.21.27-.37.48-.49.67a83.75,83.75,0,0,0-5.95,10.14c-1,2.16-1.74,3.92-2.16,5C445,666.52,444.89,666.86,444.25,666.86Zm63.06-54.75a55.54,55.54,0,0,0-19.83,3.77,63,63,0,0,0-17.57,10.29,73.12,73.12,0,0,0-14.17,15.94c-1,1.57-2,3-2.74,4.38-1.58,2.66-2.47,4.48-2.71,5-.44.91-.85,1.81-1.24,2.69.93-1.6,2-3.38,3.25-5.11.13-.2.32-.46.54-.74a71.48,71.48,0,0,1,36.48-25.07,67.56,67.56,0,0,1,7.32-1.7,57.66,57.66,0,0,1,12.92-.76c9.9.54,17.84,4,23.61,10.19a18.11,18.11,0,0,0,4.92-1.7c1.62-.85,2.49-1.31,2.68-1.85h0c.52-1.47-2.51-4.8-7.38-8.12-7.82-5.23-16.1-6.3-19.21-6.71l-.43-.05A49.17,49.17,0,0,0,507.31,612.11Z" transform="translate(-151.42 -214.79)"/><path class="cls-3" d="M444.25,667.39l-.39-.06-.67-.25-.23-.57c-.52-1.31,2.32-9.83,5.32-16,.17-.35,1.08-2.25,2.79-5.14.8-1.37,1.75-2.87,2.81-4.48a75.68,75.68,0,0,1,14.62-16.43,65,65,0,0,1,18.18-10.64,56,56,0,0,1,27.37-3.48l.41,0c3.28.43,11.94,1.55,20.18,7.07,4.42,3,9.44,7.32,8.23,10.71-.49,1.37-1.69,2-3.69,3.06a20.63,20.63,0,0,1-6.11,2l-.74.12-.5-.56c-5.38-6-12.92-9.28-22.4-9.8a55.55,55.55,0,0,0-12.41.73,61.91,61.91,0,0,0-7.07,1.65,69.08,69.08,0,0,0-35.33,24.27c-.21.26-.36.47-.48.64a82.36,82.36,0,0,0-5.9,10.07c-1,2.14-1.73,3.89-2.15,4.93C445.49,666.78,445.25,667.39,444.25,667.39Zm-.25-1.13.28.07c.22,0,.27-.06.81-1.4.44-1.09,1.15-2.86,2.19-5a84.65,84.65,0,0,1,6-10.21c.13-.19.29-.42.51-.7a70.25,70.25,0,0,1,35.88-24.65,66.26,66.26,0,0,1,7.19-1.67,57.74,57.74,0,0,1,12.65-.74c9.77.53,17.55,3.95,23.13,10.15l.12.13.17,0a19.73,19.73,0,0,0,5.78-1.92c2-1,2.85-1.53,3.18-2.47.76-2.12-2.1-5.57-7.83-9.47a45.26,45.26,0,0,0-19.69-6.9l-.44-.06a55.18,55.18,0,0,0-26.84,3.42,64,64,0,0,0-17.9,10.48,74.21,74.21,0,0,0-14.4,16.19c-1.06,1.59-2,3.08-2.78,4.43-1.69,2.85-2.59,4.72-2.75,5.06-3.39,7-5.49,14.34-5.29,15.18Zm5.51-11.85-.94-.48c.38-.89.8-1.79,1.24-2.7.09-.2,1-2.06,2.73-5,.76-1.31,1.69-2.8,2.76-4.41a74.08,74.08,0,0,1,14.27-16,63.75,63.75,0,0,1,17.72-10.38,55.92,55.92,0,0,1,20-3.81,50.13,50.13,0,0,1,6.51.43l.42.06a44.49,44.49,0,0,1,19.44,6.79c3.92,2.67,8.21,6.5,7.62,8.64l0,.09c-.26.75-1.15,1.22-2.94,2.15a18.53,18.53,0,0,1-5.06,1.75l-.29.06-.2-.22c-5.66-6.11-13.49-9.48-23.25-10a57.74,57.74,0,0,0-12.8.75,65.44,65.44,0,0,0-7.26,1.7,70.77,70.77,0,0,0-36.2,24.87c-.22.27-.4.52-.53.71C451.67,650.86,450.59,652.57,449.51,654.41Zm57.8-41.77a54.72,54.72,0,0,0-19.64,3.74,62.37,62.37,0,0,0-17.42,10.2,72.19,72.19,0,0,0-14.06,15.82c-.91,1.37-1.72,2.65-2.41,3.81a72.41,72.41,0,0,1,35.39-23.48,64.85,64.85,0,0,1,7.38-1.72,58.67,58.67,0,0,1,13-.77c9.93.54,17.92,4,23.77,10.14a18.14,18.14,0,0,0,4.49-1.59,7.58,7.58,0,0,0,2.41-1.54v0c.31-.86-1.71-3.76-7.18-7.49-7.71-5.16-15.9-6.22-19-6.62l-.43-.05A48.11,48.11,0,0,0,507.31,612.64Z" transform="translate(-151.42 -214.79)"/><path class="cls-3" d="M227.2,627.69c.3.87,1.25,1.36,3.09,2.33a18.62,18.62,0,0,0,5.61,1.85c6.14-6.82,14.34-9.76,23.36-10.25a56.48,56.48,0,0,1,12.72.75,65.23,65.23,0,0,1,7.23,1.68,70.7,70.7,0,0,1,36.05,24.78,7.07,7.07,0,0,1,.51.7,82.47,82.47,0,0,1,6,10.24c1.8,3.76,2.58,6.24,2.73,6.24s-1.53-7.21-5.27-14.92c-.39-.81-1.31-2.62-2.74-5-.76-1.31-1.7-2.81-2.77-4.42a74,74,0,0,0-14.34-16.13,64,64,0,0,0-17.8-10.42,54.45,54.45,0,0,0-26.69-3.4c-2.94.39-11.65,1.31-20,6.9C234,619.2,226.09,624.59,227.2,627.69Z" transform="translate(-151.42 -214.79)"/><path class="cls-3" d="M324.61,666.54h-.1c-.42,0-.49-.17-1-1.53-.43-1.06-1.14-2.83-2.18-5a85.41,85.41,0,0,0-6-10.17l-.49-.67a70,70,0,0,0-35.8-24.6,64.32,64.32,0,0,0-7.17-1.67,56,56,0,0,0-12.6-.74c-9.7.53-17.44,3.92-23,10.08l-.19.21-.29,0a19.42,19.42,0,0,1-5.77-1.91c-2-1-3-1.57-3.36-2.62h0c-1.12-3.17,5.16-7.85,7.91-9.72,8.09-5.42,16.6-6.52,19.81-6.94l.42-.05a55.2,55.2,0,0,1,26.95,3.43,64.54,64.54,0,0,1,18,10.51,74.64,74.64,0,0,1,14.45,16.24c1.05,1.6,2,3.09,2.78,4.45,1.6,2.7,2.52,4.57,2.76,5.07,3.48,7.17,5.57,14.64,5.3,15.33l-.09.22ZM262.28,621a58.18,58.18,0,0,1,9.78.83,66.5,66.5,0,0,1,7.29,1.7,71,71,0,0,1,36.34,25c.2.25.38.5.53.71A86.5,86.5,0,0,1,322,659a81.59,81.59,0,0,0-3.23-7.67c-.24-.49-1.14-2.32-2.71-5-.79-1.35-1.72-2.82-2.76-4.4a73.5,73.5,0,0,0-14.24-16,62.93,62.93,0,0,0-17.66-10.33A54.22,54.22,0,0,0,255,612.21l-.43.06c-3.13.41-11.47,1.49-19.34,6.76-4.22,2.86-8.18,6.59-7.5,8.48h0c.23.67,1.13,1.14,2.78,2a18.49,18.49,0,0,0,5.22,1.78c5.73-6.24,13.64-9.67,23.53-10.21C260.23,621,261.26,621,262.28,621Z" transform="translate(-151.42 -214.79)"/><path class="cls-3" d="M324.67,666.86h-.16c-.64,0-.77-.34-1.34-1.75-.42-1.05-1.12-2.81-2.16-5A83.66,83.66,0,0,0,315.08,650c-.14-.21-.29-.42-.48-.66A69.7,69.7,0,0,0,279,624.87a63.12,63.12,0,0,0-7.13-1.67,56.51,56.51,0,0,0-12.53-.73c-9.62.52-17.28,3.88-22.76,10l-.31.35-.46-.07a20.18,20.18,0,0,1-5.87-1.94c-2-1.07-3.09-1.63-3.51-2.81-1.15-3.24,4.54-7.71,8-10.08a45.76,45.76,0,0,1,20-7l.42-.06a55.8,55.8,0,0,1,27.1,3.45,64.59,64.59,0,0,1,18.05,10.57,75.2,75.2,0,0,1,14.5,16.3c1.07,1.63,2,3.13,2.8,4.47,1.62,2.73,2.53,4.59,2.77,5.1,3.26,6.71,5.69,14.61,5.31,15.58l-.14.35Zm-62.39-46.18a58.92,58.92,0,0,1,9.84.85,66.48,66.48,0,0,1,7.32,1.7A71.52,71.52,0,0,1,316,648.33c.2.25.38.51.53.73,1.2,1.72,2.31,3.49,3.23,5.08-.38-.88-.8-1.77-1.23-2.67-.24-.5-1.12-2.3-2.71-5-.77-1.32-1.69-2.79-2.75-4.38a73.09,73.09,0,0,0-14.17-15.94,62.68,62.68,0,0,0-17.57-10.29A53.87,53.87,0,0,0,255,612.53l-.42.05c-3.12.41-11.4,1.48-19.22,6.72-4.86,3.3-7.9,6.64-7.37,8.11h0c.19.54,1.05,1,2.62,1.82a18.11,18.11,0,0,0,5,1.73c5.77-6.22,13.72-9.65,23.62-10.19C260.22,620.71,261.25,620.68,262.28,620.68Z" transform="translate(-151.42 -214.79)"/><path class="cls-3" d="M324.77,667.39h-.26c-1,0-1.23-.61-1.82-2.06-.44-1.08-1.14-2.83-2.16-5a82.07,82.07,0,0,0-5.89-10c-.13-.2-.28-.4-.45-.62a69.1,69.1,0,0,0-35.38-24.32,63.2,63.2,0,0,0-7.07-1.65,55,55,0,0,0-12.41-.73c-9.47.52-17,3.82-22.4,9.8l-.5.56-.74-.12a20.27,20.27,0,0,1-6-2c-2.12-1.12-3.28-1.73-3.77-3.1-1.21-3.4,3.81-7.7,8.23-10.7,8.24-5.53,16.9-6.65,20.16-7.08l.44,0a56.09,56.09,0,0,1,27.36,3.48,65.16,65.16,0,0,1,18.19,10.64,75.36,75.36,0,0,1,14.61,16.43c1.07,1.61,2,3.12,2.82,4.49,1.55,2.62,2.47,4.46,2.79,5.14,3,6.18,5.83,14.71,5.32,16l-.22.55Zm-62.5-45.54a57.7,57.7,0,0,1,9.65.83,67.71,67.71,0,0,1,7.19,1.67A70.21,70.21,0,0,1,315,649.05a7.27,7.27,0,0,1,.5.67,84.51,84.51,0,0,1,6,10.17c1,2.18,1.76,4,2.18,5,.57,1.44.61,1.44.85,1.44h.06l.2-.08.05-.14c.22-.93-2.08-8.55-5.29-15.15-.31-.66-1.22-2.47-2.75-5.06-.79-1.35-1.73-2.85-2.79-4.44a74.16,74.16,0,0,0-14.4-16.19,63.81,63.81,0,0,0-17.89-10.48,55.23,55.23,0,0,0-26.84-3.42l-.43,0c-3.21.42-11.68,1.53-19.71,6.91-5.73,3.89-8.58,7.34-7.83,9.47.35,1,1.32,1.48,3.26,2.5a19.15,19.15,0,0,0,5.71,1.89l.16,0,.12-.13c5.59-6.2,13.37-9.62,23.13-10.15Q260.77,621.85,262.27,621.85Zm57,32.56c-1.08-1.86-2.17-3.56-3.21-5-.14-.22-.32-.46-.51-.7a70.83,70.83,0,0,0-36.23-24.91,65.09,65.09,0,0,0-7.27-1.7,58.26,58.26,0,0,0-12.79-.75c-9.77.54-17.59,3.91-23.26,10l-.2.22-.29-.06a18.94,18.94,0,0,1-5.11-1.77c-1.74-.92-2.62-1.38-2.88-2.12l0-.1c-.59-2.14,3.52-5.85,7.62-8.63a44.41,44.41,0,0,1,19.44-6.8L255,612a54.19,54.19,0,0,1,26.52,3.39,63.47,63.47,0,0,1,17.72,10.37,73.85,73.85,0,0,1,14.28,16c1.07,1.63,2,3.11,2.76,4.42,1.74,2.94,2.63,4.81,2.73,5,.43.9.85,1.8,1.24,2.69Zm-57-34.26a59.07,59.07,0,0,1,9.94.86,64.36,64.36,0,0,1,7.38,1.72A72.46,72.46,0,0,1,315,646.22c-.69-1.15-1.5-2.44-2.42-3.82a72.48,72.48,0,0,0-14.07-15.82,62.09,62.09,0,0,0-17.42-10.2,53.08,53.08,0,0,0-26-3.32l-.42.05c-3.09.4-11.28,1.46-19,6.63-5.46,3.71-7.48,6.61-7.17,7.48v0a7.59,7.59,0,0,0,2.36,1.52,17.94,17.94,0,0,0,4.53,1.61c5.85-6.18,13.85-9.6,23.78-10.14Q260.72,620.15,262.27,620.15Z" transform="translate(-151.42 -214.79)"/><path class="cls-3" d="M353.61,623.06q-1,15.56-1.89,31.14a3,3,0,0,1-.56,1.08,2.8,2.8,0,0,1-2.35.87c-1-.15-1.61-1.13-2.86-3.09l-2.75-4.37a179.47,179.47,0,0,0-14.61-22.28c-.15-.21-.33-.45-.56-.74-.64-.83-1.31-1.65-2-2.48l.35-25.47c1.4,1,2.83,2.09,4.29,3.24A154.93,154.93,0,0,1,353.61,623.06Z" transform="translate(-151.42 -214.79)"/><path class="cls-3" d="M301.81,582.93a216.79,216.79,0,0,1,19.63,11.35l-.33,23.21c-4.69-5.16-9.6-10-13.43-13.71l-11.05-23.5C298.26,581.1,300,582,301.81,582.93Z" transform="translate(-151.42 -214.79)"/><path class="cls-3" d="M270.53,569.45c.9.31,5.67,1.94,10.36,3.79,1.74.69,5.46,2.18,10.45,4.5l9.08,19.33A446.18,446.18,0,0,0,261,566.4C263.62,567.18,266.86,568.2,270.53,569.45Z" transform="translate(-151.42 -214.79)"/><polygon class="cls-6" points="205.83 423.84 205.83 443.88 220.16 451.22 205.83 423.84"/><polygon class="cls-6" points="242.17 457.25 242.17 468.97 250.63 455.24 242.17 457.25"/><polygon class="cls-6" points="224.39 457.25 224.39 468.97 215.92 455.24 224.39 457.25"/><path class="cls-9" d="M599.25,574.58c7.43-17.87,5.92-35.29.75-53.38,2.67,9.32-1,20-8.51,26.07a27.7,27.7,0,0,1-2.68,1.85c-.43.26-.85.5-1.3.72.36-1.13.7-2.26,1-3.42.58-2.09,1.09-4.22,1.51-6.36a96.68,96.68,0,0,0-1.63-45.92c-4.85-16.76-14-31.47-16.64-48.85a112.69,112.69,0,0,1-.44-30,39.41,39.41,0,0,1-10.41,8.76c-10.27,5.89-15.2,2.1-22.58,6a14.91,14.91,0,0,0-1.91,1.19,25,25,0,0,0-8.09,10.37c-4,8.54-5.29,17.95-10.84,18.4a6.41,6.41,0,0,1-3.09-.57,12.56,12.56,0,0,1-6-6.33c-3.79-9.15,5.87-18.5,11.26-24.66a84.06,84.06,0,0,0,6.29-8,39.16,39.16,0,0,0,7-17.45,41.21,41.21,0,0,0-6.66-27.72,82.41,82.41,0,0,0-26.6-25.52c-13.05-7.51-24.89-7.68-36.91-21.22A61,61,0,0,1,452.35,312c-2.82,5.32-5.19,12.26-2.82,18.16,2.21,5.48,8,9,11.21,13.83a27.66,27.66,0,0,1,3.36,7.33,33.84,33.84,0,0,1,1.38,10.94,50.85,50.85,0,0,1-3.57,16.87,54,54,0,0,1-7.18,13.11,76.69,76.69,0,0,1-11.46,12,0,0,0,0,1,0,0c-4.76,3.81-9.73,6.09-12.41,2.3-.67-1-.46-2.23-.34-3.39,1.6-14.15-12.18-24.49-22-32.18-3.18-2.48-6-4.62-8.61-6.48h0a164.46,164.46,0,0,0-15.48-10c-7.08-4.05-10.78-5.62-17.16-12.56-5.73-6.24-18.76-20.41-18.24-40.14a48.23,48.23,0,0,1,7.83-24.44,71.27,71.27,0,0,0-13.9,4.15,73.13,73.13,0,0,0-30,23.56C298.74,324,293.79,349.4,306.2,371.7c1.21,2.17,2.52,4.21,3.85,6.15,7.46,10.94,15.7,18.93,13.88,34.61-.24,2.1-3.25,9.38-2.5,10.67a23.12,23.12,0,0,0-9.5-8.61,41,41,0,0,0-8.53-3.33c-7.13-2-14.6-2.71-21.55-5.21a42.82,42.82,0,0,1-12.3-6.92,47.05,47.05,0,0,1-17.38-32.18,45,45,0,0,1,3-20.29,102.57,102.57,0,0,0-14.39,14.7,95.45,95.45,0,0,0-12.09,19.42c-4.95,10.58-13.15,28.06-7.39,44.78a62.14,62.14,0,0,0,5.7,11.89,55.7,55.7,0,0,0,3.42,5c5.61,7.09,8.47,7,10.43,11.73,4.26,10.38-3.15,26.33-10.43,26.92a4.29,4.29,0,0,1-1.19-.05c-3.45-.47-6.58-4-8.37-6-3.72-4.22-4.39-7.86-6.07-11.72a35.93,35.93,0,0,0-3-5.38,36.6,36.6,0,0,0-13.11-12c-12.74-6.41-27.73,1.19-30.4,2.6a34.62,34.62,0,0,1,10.51,7.37,17.92,17.92,0,0,1,4.26,7.4c2.58,9.35-5.16,14.45-9.12,32.12-2.16,9.63-4.8,21.33.43,32.15a34.92,34.92,0,0,0,7.09,9.59c5.53,5.5,11.07,8.64,9.85,12.55-.8,2.57-4.1,4.17-6.74,4.26a8.56,8.56,0,0,1-4.95-1.59c-5.78-3.82-11.29-14.23-15-28.3a103.77,103.77,0,0,0-2.31,15.07,91,91,0,0,0,.73,20.73,78,78,0,0,0,6.07,20.53c2.16,4.75,5.92,13,12.06,19.82a40.62,40.62,0,0,0,2.93,2.94l-5,5,4.33,4.3v0l15.34,15.34,12.28,12.28a17,17,0,0,0,6.53-7.58q-5.52-13.2-11.08-26.38c-.85-2-1.68-4-2.53-6,1.33-.6,2.65-1.18,4-1.75l11.09-4.92,2.6-33.57a15.81,15.81,0,0,1-7-9.24c-.84-2.8-.74-5.1-.29-5.24.29-.1.61.74,1.22,1.89a11.3,11.3,0,0,0,4.58,5,10.47,10.47,0,0,0,5.49,1.16c-.15-.88-2.16-12.88,4.12-24.29a33.69,33.69,0,0,1,6.88-8.71,35.55,35.55,0,0,1,21.47-9.08c.41-.05.83-.07,1.26-.08a36.46,36.46,0,0,1,11.41,1.44c.78.22,1.56.48,2.35.77a32.38,32.38,0,0,1-2.62-7.52,33.5,33.5,0,0,1-.58-10.14,16.6,16.6,0,0,0,2.89,6.08A16.8,16.8,0,0,0,277,505.7a14.58,14.58,0,0,0,2.4,1.26,17.94,17.94,0,0,0,9.19,1.05,26.51,26.51,0,0,1-7.54-11,27.41,27.41,0,0,1,0-17.94c.33,1.63,2.3,10.78,11,16.21a24.49,24.49,0,0,0,14.49,3.55C308.35,496.38,321,479.31,341,479c13.39-.21,23.68,7.19,27.76,10.13,9.81,7.06,12.38,13.68,14.78,16.25a4.1,4.1,0,0,0,.85.74c1.05-.66,2-2.17,3.37-4.21A46.73,46.73,0,0,1,400,489.15c4.08-2.94,14.37-10.34,27.76-10.13,20,.29,32.65,17.36,34.42,19.81a24.65,24.65,0,0,0,12.19-2.31,21.7,21.7,0,0,0,2.3-1.24l.32-.21a25.34,25.34,0,0,0,10.68-16,27.28,27.28,0,0,1,0,17.94,26.42,26.42,0,0,1-7.53,11,17.26,17.26,0,0,0,11.58-2.31,16.26,16.26,0,0,0,7-9.85,33.5,33.5,0,0,1-.58,10.14,32.38,32.38,0,0,1-2.62,7.52,35.93,35.93,0,0,1,36.48,7c14.34,13,11.21,31.88,11,33a10.47,10.47,0,0,0,5.49-1.16c4.25-2.29,5.12-7.16,5.8-6.94s.56,5.63-2.6,10.12a16.29,16.29,0,0,1-4.64,4.36l2.6,33.57c5,2.23,10,4.44,15.07,6.67q-6.81,16.2-13.61,32.42a17,17,0,0,0,6.53,7.58l20-19.93,7.67-7.69v0l4.32-4.3-7.23-7.23c2.13-2.45,4.17-5,6.06-7.57A87.44,87.44,0,0,0,599.25,574.58Z" transform="translate(-151.42 -214.79)"/><path class="cls-9" d="M384.39,254.63c-6.65,18.22-21.48,35.46-15.21,55.89,2.61,8.5,8.47,15.2,15.21,20.82,2.55,2.16,5.22,4.13,7.89,6,1.07.75,4.25,3.16,8.13,6,2.74,2,5.82,4.14,8.71,6l.05,0c5.05,3.27,9.56,5.66,10.75,4.7,2.11-1.74-5.55-15.09-6.24-17.23-3.3-10.07-1.86-21.08,1.08-31.11,4.05-13.88,12.95-27.42,13.75-42.35.8-15.19-9.1-30.38-23.3-35.89a25,25,0,0,0-2.86-.92,41.92,41.92,0,0,0-12.26-1.27h0c-.82,0-1.29.08-1.29.08a38.32,38.32,0,0,0-10.67,2.55l-.2.09a19.15,19.15,0,0,1,6.39,6.82.7.7,0,0,1,.09.17c3.52,6.73,1.82,14.22.68,17.72C384.85,253.34,384.63,254,384.39,254.63Z" transform="translate(-151.42 -214.79)"/><path class="cls-10" d="M576.77,605.6c-1.89,2.6-3.94,5.13-6.07,7.58l6.92,6.92-20,20a17,17,0,0,1-6.55-7.6q6.79-16.25,13.64-32.49l-15.11-6.68L547,559.65a16,16,0,0,0,4.65-4.36c3.17-4.5,3.31-9.92,2.61-10.14s-1.55,4.65-5.82,7a10.5,10.5,0,0,1-5.5,1.16c.2-1.12,3.34-20-11-33.07a36,36,0,0,0-36.57-7,32.92,32.92,0,0,0,2.63-7.53,33.64,33.64,0,0,0,.58-10.16,16.49,16.49,0,0,1-2.9,6.08,16.66,16.66,0,0,1-4.07,3.79A17.35,17.35,0,0,1,480,507.71a26.51,26.51,0,0,0,7.55-11,27.47,27.47,0,0,0,0-18,25.39,25.39,0,0,1-10.71,16,26.85,26.85,0,0,0-1-3.68,26.27,26.27,0,0,1-1.64,5.13A24.69,24.69,0,0,1,462,498.51c-1.78-2.46-14.46-19.57-34.51-19.86-13.41-.21-23.72,7.21-27.82,10.16a47,47,0,0,0-12.29,12.8,49,49,0,0,0-4.22,3.48c-2.41-2.58-5-9.21-14.82-16.28-4.09-2.95-14.4-10.37-27.82-10.16-20,.29-32.73,17.4-34.5,19.86A24.63,24.63,0,0,1,291.48,495c-8.73-5.44-10.71-14.61-11-16.25a27.4,27.4,0,0,0,0,18,26.51,26.51,0,0,0,7.55,11,18,18,0,0,1-9.21-1,25.51,25.51,0,0,1-10-15.6,27.47,27.47,0,0,0,0,18,25,25,0,0,0,1.52,3.41A36.37,36.37,0,0,0,258.83,511a16.65,16.65,0,0,1-1.11-3.12c-.08.94-.15,2-.15,3.21a35.56,35.56,0,0,0-21.51,9.1,33.75,33.75,0,0,0-6.91,8.73,34.68,34.68,0,0,0-4.79,3.63A33.74,33.74,0,0,0,214.94,547c-.38,1.14-.68,2.27-.94,3.36a40.67,40.67,0,0,0-.67,15.22,10.5,10.5,0,0,1-5.5-1.16c-4.26-2.3-5.13-7.17-5.81-7s-.57,5.64,2.6,10.14a16.05,16.05,0,0,0,4.66,4.36l-2,26.22c-1.33.58-2.66,1.16-4,1.76.85,2,1.69,4,2.54,6l-14.23,6.31c2.16,5.14,4.33,10.28,6.47,15.42L182.67,612.4v0l-4.33-4.31,5-5a40.74,40.74,0,0,1-2.93-2.95c-6.16-6.84-9.92-15.11-12.09-19.86a78,78,0,0,1-6.08-20.58,20.75,20.75,0,0,0,4.87,4.84,8.59,8.59,0,0,0,5,1.59c2.64-.09,5.95-1.69,6.75-4.26,1.23-3.92-4.33-7.08-9.87-12.58a35.13,35.13,0,0,1-7.11-9.62c-.12-.25-.23-.49-.34-.75a105.25,105.25,0,0,1,2.32-15.1c3.67,14.1,9.19,24.53,15,28.36a8.56,8.56,0,0,0,5,1.59c2.64-.09,5.94-1.69,6.75-4.26,1.22-3.92-4.33-7.08-9.87-12.58a35.13,35.13,0,0,1-7.11-9.62c-5.24-10.84-2.59-22.57-.43-32.21,4-17.72,11.73-22.83,9.14-32.21a18,18,0,0,0-4.26-7.41,23.68,23.68,0,0,1,8.23,2.37,36.59,36.59,0,0,1,13.14,12,35.49,35.49,0,0,1,3,5.38c1.69,3.87,2.35,7.52,6.09,11.75,2,2.27,5.65,6.41,9.58,6.1,4.21-.34,8.48-5.83,10.5-12.41a4.29,4.29,0,0,0,1.19,0c7.3-.59,14.73-16.58,10.45-27-2-4.76-4.83-4.66-10.45-11.76a53.77,53.77,0,0,1-3.43-5.05A61.87,61.87,0,0,1,220.56,425c-5.78-16.75,2.44-34.28,7.4-44.88a96.83,96.83,0,0,1,12.12-19.47c.94-.85,1.84-1.63,2.73-2.37a45,45,0,0,0-3,20.34,47.16,47.16,0,0,0,17.43,32.25,43,43,0,0,0,12.32,6.94c7,2.51,14.46,3.24,21.6,5.22s14.33,5.57,18.07,12c-.75-1.29,2.26-8.59,2.5-10.69a32.73,32.73,0,0,0-.32-10.29,23.11,23.11,0,0,1,9.51,8.62c-.75-1.29,2.27-8.59,2.51-10.68,1.82-15.72-6.43-23.73-13.91-34.69-1.33-1.95-2.64-4-3.86-6.17-12.44-22.35-7.48-47.79,6.74-66.74a69.79,69.79,0,0,1,32.3-15.41,48.37,48.37,0,0,0-7.84,24.49c-.53,19.78,12.53,34,18.27,40.23,6.4,7,10.11,8.53,17.2,12.58a164.25,164.25,0,0,1,15.52,10h0c2.58,1.86,5.44,4,8.63,6.5,9.85,7.7,23.66,18.07,22.06,32.25-.12,1.16-.33,2.44.34,3.39,5.56,7.86,20.88-10.24,23.95-14.38a1.38,1.38,0,0,0,.19-.28h0a76.59,76.59,0,0,0,11.49-12.07,54.35,54.35,0,0,0,7.2-13.15,51,51,0,0,0,3.58-16.91,34.28,34.28,0,0,0-1.38-11c7.74,4.23,15.61,6,24,10.86a82.35,82.35,0,0,1,26.66,25.57,41.32,41.32,0,0,1,6.69,27.79,39.46,39.46,0,0,1-7.06,17.49,85.83,85.83,0,0,1-6.31,8c-5.4,6.17-15.08,15.54-11.28,24.71,1.6,3.82,5.62,7.21,9.15,6.92,4.38-.35,6.09-6.25,8.59-12.93a6.62,6.62,0,0,0,3.11.58c5.55-.46,6.81-9.89,10.85-18.45,6.52-2.62,11.46.19,21-5.25a39.59,39.59,0,0,0,10.43-8.78,112.8,112.8,0,0,0,.45,30.05c2.64,17.43,11.81,32.17,16.67,49a97.33,97.33,0,0,1,.12,52.4c-.31,1.16-.65,2.31-1,3.43.45-.22.87-.46,1.3-.72,9.25-5.5,14.2-17.59,11.21-28,.64,2.2,1.2,4.38,1.71,6.55q-.65,3.23-1.52,6.38c-.3,1.15-.65,2.3-1,3.42.44-.22.87-.46,1.29-.71a30,30,0,0,0,2.7-1.86c2.19,13.31,1.61,26.39-3.93,39.73A87.45,87.45,0,0,1,576.77,605.6Z" transform="translate(-151.42 -214.79)"/><path class="cls-10" d="M405.57,334.29c.87,2.11,9.65,15,7.66,16.88-.56.54-2,.31-3.89-.39l-.06,0c-2.92-1.91-6-4.1-8.81-6.09-3.92-2.83-7.14-5.27-8.23-6-2.7-1.89-5.4-3.89-8-6.07-6.82-5.68-12.76-12.46-15.39-21.07-6.35-20.67,8.66-38.12,15.39-56.56.24-.65.46-1.31.69-2,1.15-3.54,2.87-11.12-.69-17.93a1,1,0,0,0-.09-.18,19.43,19.43,0,0,0-6.47-6.9l.21-.08a38.21,38.21,0,0,1,10.79-2.58s.48-.06,1.31-.09h0c13.93,5,24.29,19,24.67,33.78.38,15.13-7.52,29.51-10.5,43.83C402,313.19,401.44,324.39,405.57,334.29Z" transform="translate(-151.42 -214.79)"/><path class="cls-4" d="M845.17,504.94l41.33,61.63v159l-62.34-62.34h20.31V587.59L827,551.87V605.8l-42,42.2V586.19l-16.81-34.32V663.23h20.31L726.1,725.57V568l-40.27-63Zm-137.28,3.5-.7,2.8h1.4v-2.8Zm4.9,32.22v.7c.12.94.58,1.4,1.4,1.4h.7v-.7a1.24,1.24,0,0,0-1.4-1.4Zm1.4-11.91v1.4a5.14,5.14,0,0,1,2.8,1.4,1.86,1.86,0,0,1,2.11-2.1v-.7h-.7a5.36,5.36,0,0,1-2.11.7A5.45,5.45,0,0,0,714.19,528.75Zm4.21,15.41v.7h4.2q3.49-1.92,3.5-2.8v-1.4h-.7C722.48,543,720.15,544.16,718.4,544.16Zm4.9,3.5-.7,1.4q1.21,0,3.5,3.51v.7a1.24,1.24,0,0,0,1.4-1.4l-1.4-2.1.7-1.41Zm4.9,1.4v2.11c1.87,0,2.8.46,2.8,1.4l3.51-.7v-1.4l-3.51.7c0-.7-.7-1.4-2.1-2.11Zm.7,7.71v2.8q3.86,0,4.9-2.8a1.24,1.24,0,0,1-1.4-1.4A7.62,7.62,0,0,1,728.9,556.77Zm0,16.11c0,.7.93,1.4,2.8,2.1l.7-1.4v-2.1A7.62,7.62,0,0,1,728.9,572.88Zm.7,6.3a5.28,5.28,0,0,1-.7,2.1h1.4v-2.1Zm2.1,5.61-.7,1.4v.7h3.51v-1.4A5.63,5.63,0,0,1,731.7,584.79Zm1.4-18.22a5.36,5.36,0,0,1-.7,2.11h1.4v-2.11ZM739.41,589v.7l1.4,2.1v.7c-3.74,2.1-5.6,3.5-5.6,4.2a1.24,1.24,0,0,1-1.41,1.4l-1.4-.7v2.1c1.64,0,3.27-1.16,4.91-3.5h2.1a.62.62,0,0,1-.7.7,7.26,7.26,0,0,1,.7,3.51l3.5-.71H745a5.54,5.54,0,0,1,.7-2.8l-1.4-.7c0,1.87-.47,2.81-1.4,2.81a1.24,1.24,0,0,1-1.4-1.41l.7-1.4h-2.8q0-.87,7-6.3h-.7a5.52,5.52,0,0,1-2.8.7,1.24,1.24,0,0,0-1.4-1.4Zm-6.31-18.21v.7h2.81v-.7Zm.7-16.11v.7h2.11v-.7Zm2.11,2.1v1.4a5.45,5.45,0,0,1,2.1-.7v-.7Zm.7,25.21v.71H738V582Zm4.2-16.81c0,1.4-1.17,2.11-3.5,2.11v2.8l3.5-2.1,2.8.7a10.51,10.51,0,0,1,5.6-2.11v-.7l-2.8-.7-4.9.7A.62.62,0,0,0,740.81,565.17ZM738,575v2.1a1.24,1.24,0,0,0,1.4-1.4Zm4.2-2.1v1.4a1.24,1.24,0,0,0,1.4-1.4v-1.4C742.68,571.6,742.21,572.06,742.21,572.88Zm7.71-19.61c0,2.33-2.11,3.5-6.31,3.5,0,.7.93,1.64,2.8,2.8a5.56,5.56,0,0,1,2.1-.7.62.62,0,0,0,.7.7c.12-.93.59-1.4,1.41-1.4h4.2v.7a5.38,5.38,0,0,0-.7,2.1h1.4c0-1.4.46-2.1,1.4-2.1l1.4.7q0-1.22,4.9-2.1-.35-3.5-5.6-3.5,0,1-2.1,2.1a1.24,1.24,0,0,1-1.4-1.4V554l.7-1.4h-.7a5.56,5.56,0,0,1-2.1.7Zm-5.61,17.51v.7h1.4v-.7Zm0,7.7v1.4c.12.94.58,1.4,1.4,1.4l.7-1.4v-2.8h-.7C744.78,577.2,744.31,577.67,744.31,578.48Zm0,7v2.1h.7a5.1,5.1,0,0,1,2.8-1.4v-1.4A7.19,7.19,0,0,1,744.31,585.49Zm7.71,14c0,2.34-.47,3.51-1.4,3.51h-2.11c-.93,0-1.4-.94-1.4-2.8h-1.4q.7.69.7,5.6h.7c0-1.4.47-2.1,1.4-2.1s1.41.58,1.41,1.4v1.4c0,.47-.94,1.17-2.81,2.1a5.38,5.38,0,0,1,.7,2.1h1.4q.52-4.91,2.81-4.9h2.8l3.5.7v-2.8q-4.2,0-4.2-4.21Zm-6.31,25.22v.7h1.4v-.7Zm.7-28.72a5.09,5.09,0,0,1,1.4,2.81h2.81v-.71l-.7-1.4c0-1.75,1.4-2.91,4.2-3.5.11-.93.58-1.4,1.4-1.4s2.1,1.17,4.2,3.5h2.8v-.7l-4.9-5.6.7-1.4h-.7q-1.41,0-4.2,3.5l-6.31,4.9Zm.7-20.31v.7h.7a5.54,5.54,0,0,1,2.11-.7V575h-.71A5.28,5.28,0,0,1,747.11,575.68Zm.7,35.72v.7c.12.94.59,1.4,1.4,1.4H752v-.7a5.59,5.59,0,0,1-3.51-1.4Zm0,21v1.4h1.4A1.23,1.23,0,0,0,747.81,632.42Zm1.4-9.81h2.11v-2.1C750.62,620.51,749.92,621.21,749.21,622.61Zm0,2.8v2.1l2.11,1.4v-.7a5.07,5.07,0,0,1-1.4-2.8Zm15.41-63.74q-7,8.58-7,9.11c-3.74,1.63-5.6,2.8-5.6,3.5,1.4,0,2.1.47,2.1,1.4q0,1.05-3.5,4.2v1.4c.11.94.58,1.41,1.4,1.41h.7v-4.21c2.33-1.86,4.2-2.8,5.6-2.8q.52-4.2,2.8-5.6,2.1,2.28,3.5,8.4h.7v-6.3a6,6,0,0,1,0-5.61v-4.9Zm-13.3,3.5v.7l2.8.7,8.4-6.3q-2.81,0-10.5,4.9Zm.7,69.35c0,2.1-.24,3.5-.7,4.2h.7l2.1-1.4a5.52,5.52,0,0,1-.7-2.8Zm0,6.3v.7h1.4v-.7Zm1.4-56.73v.7h.7a5.28,5.28,0,0,1,2.1-.7v-.7h-.7A5.56,5.56,0,0,1,753.42,584.09Zm.7,25.21v.7h1.4v-.7Zm0,7.71h2.1q.53-5.61,2.1-5.61,1.39,0,1.4,4.91h.7q.52-3.51,2.1-3.51a5.52,5.52,0,0,0,2.8.7v-.7q0-1-2.1-2.1a1.23,1.23,0,0,1-1.4,1.4q-1.05,0-2.1-2.1-4.9,0-4.9,5.61C754.35,615.61,754.12,616.07,754.12,617Zm0,15.41v1.4h1.4v-1.4Zm5.6-26.62v.7h1.4v-.7Zm.7-20.31v2.1h1.4a5.33,5.33,0,0,1-.7-2.1Zm3.5-29.42v.7h1.4v-.7Zm0,2.8a5.38,5.38,0,0,1,.7,2.1h.7v-2.1Zm39.23-21.71q0,5.07-7.71,7,0,2.8-4.9,2.8c0-.93-.7-1.4-2.1-1.4l-3.5.7-.7-1.4-1.4.7a.62.62,0,0,1-.71-.7,5.49,5.49,0,0,1-2.8.7,6.07,6.07,0,0,1,1.4,4.21q.71,0,4.21-2.81h.7c.93.12,1.4.59,1.4,1.4v.7l-4.2,3.51-2.11-1.4a5.59,5.59,0,0,1-2.8.7.62.62,0,0,0-.7-.7c0,1.4-.47,2.1-1.4,2.1a.62.62,0,0,0-.7-.7.62.62,0,0,1-.7.7c-.59-2.34-1.29-3.5-2.1-3.5a5.62,5.62,0,0,1-.7,2.8q6.82,14.7,8.4,14.71l3.51.7a5.59,5.59,0,0,1,1.4-3.51,1.23,1.23,0,0,1-1.4-1.4V561l3.5-3.5h1.4v1.4h.7a11.92,11.92,0,0,1,1.4-4.2c-2.34,0-3.5-.47-3.5-1.4v-1.4c.11-.94.58-1.4,1.4-1.4h1.4c.93.11,1.4.58,1.4,1.4v3.5q4.9,0,4.9,2.8,2.28,1.41,9.81,3.5a1.86,1.86,0,0,1,2.1-2.1v-1.4c-2.8,0-4.2-.46-4.2-1.4l.7-1.4a7.59,7.59,0,0,1-1.4-3.5,5.49,5.49,0,0,1,2.8-.7v-.7c-.94,0-1.4-.24-1.4-.7l-1.4.7h-.7a1.24,1.24,0,0,1-1.4-1.41q0-1,2.1-2.1h1.4l1.4.7-3.5-4.2v-1.4c0-1.28,1.63-2.22,4.9-2.8v-2.1l-2.1,1.4ZM780,554h.7c.94.11,1.4.58,1.4,1.4v1.4a1.23,1.23,0,0,1-1.4,1.4h-1.4a1.24,1.24,0,0,1-1.4-1.4C778.63,554.9,779.33,554,780,554Zm6.31,9.8v.7a2.55,2.55,0,0,1-2.8,4.21,8.1,8.1,0,0,0,1.4,4.2,7.62,7.62,0,0,1,3.5-1.4v-2.8l-1.4-4.91Zm1.4-4.2a5.45,5.45,0,0,1-.7,2.1v.7h.7a5.38,5.38,0,0,1,.7-2.1v-.7Zm9.8-13.31c.7,0,1.4.7,2.11,2.1v1.41a1.24,1.24,0,0,1-1.41,1.4l-1.4-.7a1.24,1.24,0,0,1-1.4,1.4H794a1.24,1.24,0,0,1-1.4-1.4v-.7Q792.64,549.06,797.54,546.26Zm2.81,8.41h.7c.93.12,1.4.58,1.4,1.4s-.7,1.4-2.1,2.1a1.24,1.24,0,0,1-1.41-1.4v-.7C799.06,555.14,799.53,554.67,800.35,554.67Zm6.3,8.4v4.21l2.1-1.41.7,1.41,1.4-.71H813c.94,0,1.4,1.17,1.4,3.51h.71a5.28,5.28,0,0,1,.7-2.1q-2.64-3.51-4.21-3.51a1.24,1.24,0,0,1-1.4-1.4v-1.4H813c1.29-2.33,2.22-3.5,2.81-3.5h.7c1.86,2.34,3,3.5,3.5,3.5a6.06,6.06,0,0,1,1.4-4.2,5.52,5.52,0,0,1-.7-2.8q-2.1,0-13.31,8.4Zm0-8.4q0,1.05,2.1,2.1h1.4v-1.4Zm2.8-6.31-.7,3.51q1.23,0,2.1-3.51Zm4.9,1.41v3.5l-.7,1.4h2.81a5.55,5.55,0,0,1,1.4-3.5A7.58,7.58,0,0,0,814.35,549.77Zm2.11,14.7a5.63,5.63,0,0,1,.7,2.81h.7v-2.81Zm2.1,2.81a5.59,5.59,0,0,1,.7,2.8h.7l.7-2.8Zm.7-14.71v.7h1.4v-.7Zm1.4,23.11h3.5l.7-7V568c-.94.11-2.1,2.45-3.5,7A.62.62,0,0,0,820.66,575.68Zm.7-14.71v2.1h2.1a1.24,1.24,0,0,0,1.4-1.4V561Zm0,4.2v1.4h2.1v-1.4Zm1.4-11.2v.7c.93,0,1.4,1.17,1.4,3.5h.7c0-2.33-.23-3.5-.7-3.5Zm24.51,101.56v9.11q0,1.4-7,2.1a5.52,5.52,0,0,0-2.8-.7H834v4.2c0,1,1.16,1.75,3.5,2.1l1.4-.7H841q0-1.57,3.5-3.5a.62.62,0,0,1,.7-.7c.94.11,1.4.58,1.4,1.4l-3.5,4.9v.7l.7,1.4q5.61-.87,5.61-4.2h1.4v.7c-.7,1.87-1.4,2.8-2.1,2.8l.7,1.4v.7l-.7,3.51,1.4.7h.7c0-1.4,1.86-2.81,5.6-4.21l3.5,2.1h.7a41.65,41.65,0,0,1-2.1-6.3c1,0,2-1.4,2.8-4.2a5.56,5.56,0,0,1-.7-2.1l.7-3.51h-1.4v-4.9h-2.8l1.4,2.1a1.24,1.24,0,0,1-1.4,1.4q-5.43-6.3-6.3-6.3a1.24,1.24,0,0,1-1.4,1.4Zm-1.4-78.45v1.4h.7v-1.4Zm7,42c0,1.4-.94,2.1-2.8,2.1v1.4c1.86.23,2.8.94,2.8,2.1v2.1a1.24,1.24,0,0,1-1.4,1.4h-1.4v-1.4c-.7,0-1.64.94-2.81,2.8V631l1.41,2.11v2.1a5.38,5.38,0,0,1,2.1.7v-.7l-1.4-2.1c.11-.94.58-1.4,1.4-1.4h.7c.93,0,1.4.7,1.4,2.1h1.4l-.7-2.81c.46-1.86,1.4-2.8,2.8-2.8q-2.8-4-2.8-4.9a5.62,5.62,0,0,0,.7-2.8A1.24,1.24,0,0,0,852.88,619.11Zm-5.61,30.82v1.4H848v-1.4Zm7-7v.7l1.4,2.1v1.41a1.24,1.24,0,0,1-1.4,1.4c-1.17,0-1.87-.94-2.1-2.81h-2.1v2.81c1.4,0,3.5,1.86,6.3,5.6a5.28,5.28,0,0,1,.7-2.1l3.5.7h.7l-.7-4.91-2.1,1.41-2.1-3.51V645l1.4-2.1Zm-2.8,15.41h.7q1.05,0,2.8,3.5a1.24,1.24,0,0,1-1.4,1.4h-.7c-.59,0-1.52-1.16-2.8-3.5C850.19,658.8,850.66,658.33,851.48,658.33Zm0-42.72v2.1a1.24,1.24,0,0,0,1.4-1.4Zm2.1,25.21v1.4h.7v-1.4Zm4.2,39.23-.7,1.4a5.28,5.28,0,0,1,2.1.7v-.7A1.24,1.24,0,0,0,857.78,680.05Zm.7-11.91h2.1a1.24,1.24,0,0,1-1.4,1.4Zm1.4-22.42v1.41h.7v-1.41Zm2.1,8.41a5.52,5.52,0,0,1-.7,2.8,5.45,5.45,0,0,1,2.1.7v-2.8Zm1.4,4.9-.7,2.8c.94,0,1.4.94,1.4,2.81h.71v-4.21A1.24,1.24,0,0,0,863.38,659Zm4.91,2.8v1.4h2.1v-2.8h-.7C868.75,660.55,868.29,661,868.29,661.83ZM880.9,652v1.4h.7V652Z" transform="translate(-151.42 -214.79)"/><path class="cls-4" d="M901,504.94h80l41.32,61.63v159.7Q998,696.68,972,681.36t-70.74-15.85Zm4.38,55.33v.7a3.8,3.8,0,0,0,2.8,2.8v-1.4C908.21,561.67,907.28,561,905.41,560.27Zm1.4,22.42v2.8a5.28,5.28,0,0,1,2.1-.7V582A5.34,5.34,0,0,1,906.81,582.69Zm.7-15.41v1.4h1.4A1.24,1.24,0,0,0,907.51,567.28ZM923.62,533c0,1.41-.47,2.11-1.4,2.11h-1.4l-1.4-.7v1.4q3.33,0,4.2,5.6a1.24,1.24,0,0,1-1.4,1.4l-1.4-.7a1.24,1.24,0,0,1-1.4,1.4H918q-.88,0-4.2-5.6a5.66,5.66,0,0,1-2.81.7l.7,3.5h2.11c0-1.4.46-2.1,1.4-2.1v1.4a.62.62,0,0,1-.7.7c0,.94,1.16,2.34,3.5,4.2l-1.4,2.1a7.69,7.69,0,0,1,1.4,3.51q4.2-2.1,4.9-2.1a8.19,8.19,0,0,1-1.4-4.21q0-.87,4.9-3.5a1.24,1.24,0,0,1-1.4-1.4,5.28,5.28,0,0,0,.7-2.1q-2.1-.7-2.1-4.2H925A1.24,1.24,0,0,0,923.62,533ZM911,548.36v.7h2.11v-.7Zm0,3.51v1.4h.7v-1.4Zm3.51-.7a1.24,1.24,0,0,1-1.4,1.4l.7,1.4-.7,1.4v.7h.7c0-1.4.93-2.1,2.8-2.1v-1.4a1.24,1.24,0,0,0-1.4-1.4Zm-.7-4.91v1.4h1.4A1.24,1.24,0,0,0,913.82,546.26Zm0,28.72v.7h1.4V575Zm.7-4.2v2.1q1.05,0,2.1-2.1Zm4.9-42.73-4.2,4.9a5.66,5.66,0,0,1,.7,2.81h.7v-1.4l-.7-1.41a5.45,5.45,0,0,0,.7-2.1h5.6a1.24,1.24,0,0,0,1.4-1.4,5.55,5.55,0,0,1-3.5-1.4Zm-3.5,65.84-.7,1.4h3.5v-.7A5.49,5.49,0,0,1,915.92,593.89Zm1.4-37.82v.7l.7,3.5c-.94.12-1.4.59-1.4,1.4v.7h2.8a2.48,2.48,0,0,1,2.8-2.8v-1.4l-1.4.7h-.7c-.94,0-1.4-.93-1.4-2.8Zm9.8,37.12v1.4l-2.1-1.4h-2.1v.7l.7,1.4a5.48,5.48,0,0,1-4.9,2.8l1.4,2.11-2.8,2.8a10.74,10.74,0,0,0,4.2,1.4v-.7l-.7-2.8,2.8-2.1a.61.61,0,0,1,.7.69,5.44,5.44,0,0,1,2.1-.69v-.71c-1.4,0-2.1-.46-2.1-1.4l1.4-.7c.12.94.59,1.4,1.4,1.4h2.1v-.7c-1.4,0-2.1-.46-2.1-1.4s.94-1.4,2.81-1.4v-.7Zm-7.7-18.91v.7l.7,1.4-.7,4.2,1.4.7h.7a7.26,7.26,0,0,1,1.4-4.9v-.7c-1.87,0-2.8-.46-2.8-1.4Zm0,35v2.1a1.24,1.24,0,0,0,1.4-1.4v-.7Zm2.8-2.8v1.4c.12.94.58,1.4,1.4,1.4l.7-1.4v-.7A5.28,5.28,0,0,1,922.22,606.5Zm1.4-19.61a5.28,5.28,0,0,1,2.1.7v-2.1H925C924.09,585.6,923.62,586.07,923.62,586.89Zm.7-31.52v1.4h.7v-1.4Zm0,56v2.1l2.8-1.4,1.4.7a7.26,7.26,0,0,1,3.51-.7v-.7q0-1-2.1-2.1h-1.41Q925.9,611.4,924.32,611.4Zm2.1-63-1.4,2.11v.7h.7v-1.4h.7c.94,0,1.4,1.4,1.4,4.2,1.4,0,2.11-1.4,2.11-4.2A7.62,7.62,0,0,1,926.42,548.36Zm-.7,53.94q0,1.05,2.1,2.1v-.7a1.23,1.23,0,0,0-1.4-1.4Zm2.1-28.72c.94.12,1.4.58,1.4,1.4v3.5h1.41l-.7-1.4q0-1.05,2.1-2.1c1.4,0,2.33,2.34,2.8,7l1.4-.7,1.4.7v-2.1q-2.62,0-4.9-11.2c-.94,0-1.4-.24-1.4-.7C929.93,568,928.76,569.84,927.82,573.58Zm.7-7v.71h1.41v-.71ZM932,597.39a5.65,5.65,0,0,1-1.4,3.51l2.1,1.4a5.28,5.28,0,0,1,2.1-.7.62.62,0,0,0,.7.7v-.7a6.07,6.07,0,0,1-1.4-4.21Zm-.7-3.5v.7h1.4v-.7Zm.7-10.5v.7h2.1v-1.4A5.56,5.56,0,0,1,932,583.39Zm1.4-25.92c0,2.1-.24,3.5-.7,4.2h.7a5.45,5.45,0,0,1,2.1-.7c.46.59.7,2.22.7,4.9h.7c0-2.1.23-3.5.7-4.2a5.56,5.56,0,0,0-2.1-.7c.11-.93.58-1.4,1.4-1.4l1.4.7a5.45,5.45,0,0,1,2.1-.7v-1.4H939l-3.5.7a1.24,1.24,0,0,0-1.4-1.4Zm.7,28.72a5.17,5.17,0,0,1-1.4,2.8v3.5h.7c0-2.8.23-4.2.7-4.2h.7v-2.1Zm-1.4,20.31c.11.93.58,1.4,1.4,1.4l.7-1.4Zm.7,8.4a.63.63,0,0,1-.7.71,1.89,1.89,0,0,0,3.5,1.4v-.7A5.1,5.1,0,0,1,933.43,614.9Zm2.8-25.21v2.8a5.56,5.56,0,0,1,2.1.7c0-.93.23-1.4.7-1.4a5.28,5.28,0,0,1-.7-2.1Zm0,12.61c.11.93.58,1.4,1.4,1.4l.7-1.4Zm.7-35.73V568h.7v-1.41Zm.7,42c.93.12,1.4.59,1.4,1.4l-1.4,2.1a5.45,5.45,0,0,1,2.1.7,7.26,7.26,0,0,1,1.4-4.9v-1.4h-1.4Q938.68,606.5,937.63,608.6Zm1.4-53.93v1.4a5.28,5.28,0,0,1,2.1.7v-2.1Zm0,30.12v2.1h2.1v-2.1ZM939,617c.58,2.33,1.28,3.5,2.1,3.5v-4.9Zm.7-46.93v.7c.12.93.58,1.4,1.4,1.4v-2.1Zm0,24.51.7,1.4v1.4l-.7,3.51a1.24,1.24,0,0,0,1.4-1.41v-5.6Zm3.5-46.93v75q27.85,10.68,37.13,18.91V586.89l-19.62-39.23Zm0,82h.7a1.24,1.24,0,0,0,1.41-1.4h-.71C943.7,628.33,943.23,628.8,943.23,629.61Zm39.93-6.3v11.21c1.4,0,2.1.46,2.1,1.4s-.7,1.4-2.1,1.4v2.1l1.4,2.1v1.4c-1.29,2.8-2.22,4.21-2.8,4.21q0-.89-5.61-5.61a1.23,1.23,0,0,1-1.4,1.4h-1.4l.7-3.5-1.4-.7v1.4h-1.4v-.7l.7-1.4c-2.8-.47-4.2-.93-4.2-1.4a5.38,5.38,0,0,1-2.1.7c0,1,1.86,2.22,5.6,3.5v.7a1.24,1.24,0,0,1-1.4,1.4h-.7a12.35,12.35,0,0,1-5.6-10.5l-1.4.7q-6.14-4.9-11.91-4.91c0,1.87-.47,2.8-1.4,2.8a5.56,5.56,0,0,0-2.1-.7l-.7,1.41,3.5,2.1q.16-3.51,2.1-3.51,3.15,2.12,4.9,2.11v3.5c0,.93-.7,1.4-2.1,1.4l-3.5-.7v2.1l3.5-.7.7,1.4-2.1,3.5h.7l3.5-.7c.7,1.87,1.4,2.8,2.1,2.8l-.7,1.4a5.53,5.53,0,0,1,.7,2.81l3.51-.7-.7-1.4v-.71q3.5-1.92,3.5-2.8h.7q3.49,0,3.5,5.61l2.8-2.1h3.5v.69l-.7,1.41,1.4.7c0-1.4.47-2.11,1.41-2.11h3.5c.93,0,1.86,1.41,2.8,4.21q5.6-.71,5.6-2.1a5.28,5.28,0,0,0-2.1-.7v-.7q.53-4.21,2.1-4.21H993c1.4,0,2.11.94,2.11,2.81h.7a7.15,7.15,0,0,1,.7-3.51,1.23,1.23,0,0,1-1.4-1.4l1.4-.7c0,.94,1.16,1.4,3.5,1.4q-2.81-4.2-2.8-7c.46-1.4.93-2.1,1.4-2.1a5.38,5.38,0,0,1-.7-2.1h-.7c0,3.26-1.4,4.9-4.21,4.9l-.7-1.4,1.4-2.1h-1.4a5.45,5.45,0,0,1-2.1.7l-.7-1.4V631a5.07,5.07,0,0,0,2.8-1.4l2.1,1.4c0-2.33.24-3.5.71-3.5a5.5,5.5,0,0,1-.71-2.8h-4.9c.12.94.58,1.4,1.4,1.4a5.56,5.56,0,0,1,2.1-.7l.7,1.4a1.23,1.23,0,0,1-1.4,1.4l-1.4-.7-4.9,4.91q-1.58,0-2.1-3.51l2.1-1.4c-.47-.7-.7-2.1-.7-4.2Zm-35.72,16.81v1.4a1.24,1.24,0,0,0,1.4-1.4Zm9.1,7c.12.93.58,1.4,1.4,1.4v-1.4Zm4.9-8.41h.71v1.4a1.24,1.24,0,0,1-1.41,1.4l-.7-1.4C960.16,639.19,960.63,638.72,961.44,638.72Zm6.31,9.81a1.24,1.24,0,0,1-1.4,1.4h-.7l-1.4-.7v2.1h2.1a5.07,5.07,0,0,1,2.8-1.4A1.24,1.24,0,0,0,967.75,648.53Zm-1.4,20.31v2.8a5.62,5.62,0,0,1,1.4,3.5h.7l.7-2.8c-1,0-1.75-1.17-2.1-3.5Zm.7-16.11v2.1c.11.93.58,1.4,1.4,1.4l.7-1.4Q969.15,653.78,967.05,652.73Zm0,5.6v2.1h.7v-2.1Zm4.9,1.4v.7l2.1,2.8c-.93,0-1.87,1.41-2.8,4.21.93.11,1.4.58,1.4,1.4,0,2.33-.7,3.5-2.1,3.5v.7H972l1.4-2.1v-3.5l-.7-1.4a9.79,9.79,0,0,1,6.31-2.11h.7V666l-.7,1.4,2.1,1.4,1.4-2.1q0-4.56-4.2-5.61v1.4Zm1.4-14.71h1.4v1.4A1.24,1.24,0,0,1,973.35,645Zm2.1,6.31v3.5c.12.93.59,1.4,1.4,1.4a7.19,7.19,0,0,1,1.41-4.9v-1.4A5.19,5.19,0,0,1,975.45,651.33Zm1.4,6.3V659h.7v-1.4ZM979,576.38v1.4h.7v-1.4Zm.7,93.16v.7h1.4v-.7Zm3.5-9.81a5.45,5.45,0,0,1-.7,2.1,5.62,5.62,0,0,1,2.8.7h.7v-.7c-.94,0-1.4-.7-1.4-2.1Zm0-67.24V596h.7v-3.5Zm1.4,54.64H986a1.24,1.24,0,0,1-1.4,1.4Zm2.1-2.81.7,1.4v.7h-2.1v-.7C985.37,644.79,985.84,644.32,986.66,644.32Zm-.7-44.83v.71h1.4v-.71Zm0,3.51v.7h1.4V603Zm0,19.61h3.5a5.28,5.28,0,0,1-.7-2.1h-.7Q987,620.51,986,622.61Zm4.2,12.61c.94.11,1.4.58,1.4,1.4-1.28,3.74-2.22,5.6-2.8,5.6a5.17,5.17,0,0,0-2.8-1.4v-1.4q2.28,0,2.8-4.2Zm-3.5,20.31v2.1h2.1c.93,0,1.4-1.4,1.4-4.2h.7l1.4.7V652h-.7Q987.89,655.53,986.66,655.53Zm.7,4.9h2.1V659h-.7C987.83,659.15,987.36,659.62,987.36,660.43Zm2.1-45.53V617h1.4v-.7A1.24,1.24,0,0,0,989.46,614.9Zm1.4-5.6v1.4h.7v-1.4Zm1.4,37.83a5.28,5.28,0,0,1,.7,2.1h1.4a5.56,5.56,0,0,1-.7-2.1Zm7-17.52V631h.7v-1.4Zm1.4-12.6v1.4h1.4A1.24,1.24,0,0,0,1000.67,617Zm2.1,20.31v2.8a5.45,5.45,0,0,1,2.1.7,5.52,5.52,0,0,1,.7-2.8l-1.4-.7Zm0,19.61v.7h1.4v-.7Zm2.1,3.5c.12.94.58,1.4,1.4,1.4l2.1-2.8h-.7A5.07,5.07,0,0,1,1004.87,660.43Zm1.4-19.61v1.4a1.23,1.23,0,0,0,1.4-1.4Zm0,11.21v1.4a1.24,1.24,0,0,0,1.4-1.4Zm1.4-6.31v1.41h.7v-1.41Zm1.4-16.11V631h.7v-1.4Zm.7,24.52v2.1a1.24,1.24,0,0,0,1.41-1.4Zm0,8.4v1.4h1.41v-1.4Zm2.81-1.4v1.4h.7v-1.4Z" transform="translate(-151.42 -214.79)"/><path class="cls-4" d="M1160,486.73V727l-79.15-136.58v93.86l-42-20.32V565.87l-39.93-60.93h80.55L1118,561V506.34ZM1052.88,638v.7h1.4V638Zm2.8,9.11,1.4.69c.11-.93.58-1.4,1.4-1.4h2.1v1.4h1.4v-1.4c-.93,0-2.1-.7-3.5-2.1A3.79,3.79,0,0,0,1055.68,647.13Zm2.8,2.1v4.2h.7l1.4-.7v.7c0,1.4-.93,2.1-2.8,2.1v2.1l1.4-.7h3.5c.94.12,1.4.59,1.4,1.4l-1.4,2.1v4.21q0,1.05,2.1,2.1h.7l-.7-3.51a5.63,5.63,0,0,1,2.81-.7v-1.4l-1.41-2.1v-1.4l.7-1.4c-2.33,0-3.5-.47-3.5-1.4a5.38,5.38,0,0,1,2.1-.7v-1.4Q1065.48,651.16,1058.48,649.23Zm0-33.62v2.8c.11.93.58,1.4,1.4,1.4l.7-1.4V614.9A5.39,5.39,0,0,1,1058.48,615.61Zm11.21,5.6v.7c3.26.47,4.9,1.17,4.9,2.1v2.1c.93.12,1.4.59,1.4,1.4v.7h-2.1q-4.91,0-4.9-6.3h-.7q0,2.1-2.81,3.5c0,1.87-.46,2.8-1.4,2.8l-1.4-.7a10.43,10.43,0,0,0-2.8,4.91c-.94.11-1.4.58-1.4,1.4h4.2l2.8-2.1c0,.7.7,1.4,2.11,2.1h.7v-1.4l-.7-4.91,1.4-.7q.87,0,3.5,4.91c.11-.94.58-1.41,1.4-1.41h.7l1.4.7c0-.93.93-1.4,2.8-1.4v-3.5l-1.4-2.1.7-1.4c-4.2-.47-6.77-.93-7.7-1.4Zm-9.81,16.11v1.4c.11.94.58,1.4,1.4,1.4v-1.4A1.24,1.24,0,0,0,1059.88,637.32Zm1.4-15.41V624a5.17,5.17,0,0,1,1.4,2.8h.7c0-1.4.47-2.1,1.4-2.1a5.59,5.59,0,0,1-.7-2.8Zm1.4-7v1.41a1.23,1.23,0,0,1,1.4,1.4h.7v-1.4Zm.7,22.42v.7h2.1v-.7Zm2.8,1.4c0,1.4-.93,2.1-2.8,2.1v2.1q3.15,2.1,4.21,2.1v1.4a5.56,5.56,0,0,1-.71,2.81v.7h.71c0-2.8,2.1-4.21,6.3-4.21a5.56,5.56,0,0,1,.7,2.1l2.1-1.4h.7l1.4.71v-7.71a5.52,5.52,0,0,1-2.8.7v.7a.62.62,0,0,0,.7.7c-.7,1.87-1.4,2.8-2.1,2.8-1.87,0-3.27-1.86-4.2-5.6h-.7a5.45,5.45,0,0,1-.7,2.1,5.62,5.62,0,0,1,.7,2.8l-1.4.7h-1.41v-.7a5.52,5.52,0,0,1,.71-2.8,5.34,5.34,0,0,1-.71-2.1Zm-1.4-18.21v.7h1.4v-.7Zm.7-23.82c0,.7.7,1.4,2.11,2.11l.7-1.41v-.7Zm0,4.91v3.5a1.24,1.24,0,0,0,1.4-1.4v-2.1Zm2.11,9.1v.7h.7l3.5-.7V610h-2.1A5.38,5.38,0,0,1,1067.59,610.7Zm2.1,3.5a7.69,7.69,0,0,1-1.4,3.51l1.4.7c.11-.94.58-1.4,1.4-1.4h2.8v1.4a1.24,1.24,0,0,0,1.4-1.4C1075.29,615.72,1073.42,614.79,1069.69,614.2Zm2.8-51.13H1069v4.21q0,1.4,4.2,2.8c0-1.05,1.16-2.92,3.5-5.61-1.87,0-2.8-.7-2.8-2.1Zm-3.5,34.32v.7h1.4v-.7Zm0,39.23v.7h1.4q5.77-2.8,8.4-2.8v-1.4h-3.5Q1071.44,636.62,1069,636.62Zm2.1,23.81v.7l1.4.7v-.7Zm2.1-8.4q0,1.05,2.1,2.1h.7V652Zm2.8,7c0,2.34-.94,3.5-2.8,3.5v.7h.7a20.78,20.78,0,0,0,2.8-.7,5.28,5.28,0,0,0,2.1.7v-2.1C1078.79,660.43,1077.86,659.73,1076,659Zm-2.1-60.23v1.4h2.8v-.71Zm1.4,10.5-1.4,2.1,4.2,2.1.7-1.4v-.7C1078,611.4,1076.81,610.7,1075.29,609.3Zm-1.4,30.82v1.4h1.4A1.24,1.24,0,0,0,1073.89,640.12Zm2.8-79.85v2.8h.7a5.45,5.45,0,0,1,2.1-.7v-.7A5.1,5.1,0,0,1,1076.69,560.27Zm0,55.34v.7c.93,0,1.4.7,1.4,2.1h.7v-2.1l-1.4-.7Zm.7-35v.7h2.1v-.7Zm0,71.45v2.1h.7V652Zm4.2-89v.7c1.4,0,2.1.47,2.1,1.4v1.4h-4.2l.7,1.41a5.28,5.28,0,0,0-.7,2.1l2.8,1.4q0-4.2,3.51-4.2,0-2.81-3.51-4.21Zm-2.1,13.31v1.4h.7v-1.4Zm7.71-14.71v2.1a1.24,1.24,0,0,0,1.4-1.4Zm21.71,71.45a5.6,5.6,0,0,1,1.4,3.5h.7v-3.5Zm23.11,1.4-2.1,2.8,1.4.7-.7,1.4v.7q4.91.89,4.91,2.8v.7a1.24,1.24,0,0,1-1.4,1.4q-5.61,0-5.61-4.2h-.7q0,4.9-1.4,4.9a.62.62,0,0,0-.7-.7.62.62,0,0,1-.7.7,7.51,7.51,0,0,1-1.4-3.5l-4.9.7c0-.7-.7-1.4-2.11-2.1-.7,1.87-1.4,2.8-2.1,2.8q3.69,7.89,7.71,10.51h-1.4v1.4q4.73-3.49,6.3-3.5l-.7-1.4c1.28-3.27,2.22-4.91,2.8-4.91h.7c.94.12,1.4.59,1.4,1.41h-.7q0,2.26,5.61,3.5c0,1.4.46,2.1,1.4,2.1h.7V652a5.38,5.38,0,0,1-.7-2.1l1.4-.7-.7-1.41v-2.1c.11-.93.58-1.4,1.4-1.4h.7c.93.12,1.4.59,1.4,1.4v.7l-.7,3.51a5.28,5.28,0,0,1,2.1.7,11.38,11.38,0,0,1,1.4-4.91,1.24,1.24,0,0,1-1.4-1.4l1.4-.7c2.57,0,4.2.94,4.91,2.8a5.45,5.45,0,0,1,2.1-.7V645l-2.1-3.5a10.65,10.65,0,0,1-4.21,1.4,5.14,5.14,0,0,1-1.4-2.8h-1.4c0,2.34-1.64,4-4.9,4.9a1.23,1.23,0,0,1-1.4-1.4v-.7c0-.93.7-1.4,2.1-1.4v-.7q-3,0-4.9-5.6Zm-12.6,9.8h.7c.93.12,1.4.59,1.4,1.4l-2.1,1.41a1.24,1.24,0,0,1-1.4-1.41C1118.13,644.79,1118.6,644.32,1119.42,644.32Zm4.2,2.1c.93.12,1.4.59,1.4,1.4v1.41a1.4,1.4,0,0,1-2.8,0v-1.41C1122.33,646.89,1122.8,646.42,1123.62,646.42Zm2.8,9.11a1.86,1.86,0,0,1-2.1,2.1l.7,1.4a5.62,5.62,0,0,1,2.8-.7,5.49,5.49,0,0,1-.7-2.8Zm1.4-3.5v.7l4.91.7V652l-1.41.7a1.24,1.24,0,0,1-1.4-1.4A5.28,5.28,0,0,1,1127.82,652Zm4.91,14a5.13,5.13,0,0,1-1.41,2.8q3.51.17,3.51,2.1v.7c-1.87.11-2.81,1.05-2.81,2.8h2.81c.46-3.74,1.63-5.6,3.5-5.6v-.7h-.7a5.56,5.56,0,0,1-2.1.7C1135.53,668.14,1134.59,667.2,1132.73,666Zm0-2.11v.71h1.4v-.71Zm1.4,13.31v1.4h.7v-1.4Zm7.7-14c0,1.87-.23,2.81-.7,2.81a5.28,5.28,0,0,1,.7,2.1h.7c0-.94.23-1.4.7-1.4a7.15,7.15,0,0,1-.7-3.51Zm1.4,0h2.1v-1.4h-.7C1143.7,662,1143.23,662.42,1143.23,663.23ZM1146,652c0,.93-.7,1.4-2.1,1.4v.7a5.14,5.14,0,0,1,2.8,1.4l3.51-.7v-.7A6.53,6.53,0,0,1,1146,652Zm8.41-25.92v.7a55.07,55.07,0,0,1,2.1,7l-4.2,2.1h-2.1a1.24,1.24,0,0,1-1.41-1.4V631c-.93,0-1.4-.23-1.4-.7-.7,0-1.63.94-2.8,2.81l.7,1.4v.7l-.7,1.4q2.8,2.63,9.11,3.5c0-1.87.46-2.8,1.4-2.8q0,1,2.1,2.1v-14h-.7A5.38,5.38,0,0,1,1154.44,626.11ZM1146,649.93v.7h1.4v-.7Zm2.1,7a7.7,7.7,0,0,0-1.4,3.5h1.4c0-1.86.47-2.8,1.41-2.8v-.7Zm.7,7.71h1.41v-1.41Q1148.83,663.41,1148.83,664.64Zm2.11-9.11h2.1v-2.1Q1152,653.43,1150.94,655.53Zm4.9-11.21c0,1.4-.94,2.1-2.8,2.1-.94,0-1.4,1.64-1.4,4.91h.7l2.1-1.4c.7,1.87,1.4,2.8,2.1,2.8l.7-1.4v-2.8h-2.1v-.71c0-.93.7-1.4,2.1-1.4v-2.1Zm-3.5-.7v.7a5.59,5.59,0,0,1,2.8-.7,5.28,5.28,0,0,1-.7-2.1Q1153.39,641.52,1152.34,643.62Zm.7-24.51c0,2.33.46,3.5,1.4,3.5a5.28,5.28,0,0,1,2.1-.7,5.52,5.52,0,0,1-.7-2.8Zm1.4-7-.7,1.4v.7c1.86,0,2.8,1.64,2.8,4.91h.7V614.9C1157.24,614.2,1156.3,613.27,1154.44,612.1Zm0,45.53v.7l.7,2.8h-.7a5.56,5.56,0,0,1,.7,2.1h.7a5.59,5.59,0,0,1,1.4-3.5v-1.4Zm1.4-3.5v1.4h1.4v-1.4Zm.7-80.55v2.1h.7v-2.1Z" transform="translate(-151.42 -214.79)"/><path class="cls-4" d="M1388.75,505.81l-60.94,62.34V548.54h-77L1234,565.35h76.34V744.66l-140.78-79.15,21.71-41.32h59.54l-18.21,21q34.49,17.5,35.72,17.51V607.38h-98.06V567.45l39.92-61.64Zm-205.22,47.63v2.1h1.4a5.28,5.28,0,0,1-.7-2.1Zm7-14v1.41h1.4A1.24,1.24,0,0,0,1190.53,539.43Zm1.4,4.21V545h.7v-1.4Zm3.5,3.5a5.07,5.07,0,0,1-1.4,2.8l1.4.7h.7a5.17,5.17,0,0,1,1.4-2.8l-1.4-.7Zm.7-4.2v1.4h.7v-1.4Zm0,24.51v.7h1.4v-.7Zm1.4-7-.7,1.4c0,.7.7,1.4,2.11,2.1v-2.1A1.24,1.24,0,0,0,1197.53,560.45Zm.71-8.41a7.07,7.07,0,0,1-.71,3.5v.7h.71q0-1.4,2.8-4.2Zm10.5-15.41c0,.94-.93,1.4-2.8,1.4v2.1a5.34,5.34,0,0,1,2.1.71c2.34-1.76,3.5-2.92,3.5-3.51A5.52,5.52,0,0,1,1208.74,536.63Zm21,112.07v1.4h.7v-1.4Zm.7-135.18a5.34,5.34,0,0,1,.71,2.1h.7v-2.1Zm1.41,2.8v1.4c1.86,0,2.8.7,2.8,2.1a1.24,1.24,0,0,0,1.4-1.4l-1.4-2.8A5.52,5.52,0,0,1,1231.86,516.32Zm4.9,118.37v2.1q1,0,2.1-2.1V634A5.38,5.38,0,0,1,1236.76,634.69Zm7.7,23.82c0,.93-.7,1.4-2.1,1.4v.7h1.4c0-.93.94-1.4,2.81-1.4v-.7Zm-.7,5.6v.7c.12.94.59,1.4,1.4,1.4h.7v-2.1Zm1.4-146.39v1.4a1.24,1.24,0,0,0,1.41-1.4Zm.7-9.11v.71H1248v-.71Zm.71,4.91a5.45,5.45,0,0,1,.7,2.1h.7a1.24,1.24,0,0,0,1.4-1.4v-2.1C1247.5,512.47,1246.57,512.94,1246.57,513.52Zm.7,152.69c.11.93.58,1.4,1.4,1.4l.7-1.4v-.7A5.38,5.38,0,0,1,1247.27,666.21Zm.7-6.3,1.4.7a5.49,5.49,0,0,1,2.8-.7,5.52,5.52,0,0,1-.7-2.8Q1248.32,658.5,1248,659.91Zm.7,3.5v.7h2.8v-.7Zm4.9-148.49v1.4a1.24,1.24,0,0,0,1.4-1.4Zm1.4-6.31v2.81a7.55,7.55,0,0,1,3.5-1.4v-1.41Zm0,152v.7h1.4v-.7Zm2.8-144.29v.7l1.4,2.1-.7,1.4h.7q1,0,2.1-2.1V517A7.13,7.13,0,0,1,1257.77,516.32Zm0,149.19v.7l3.5.7v-1.4Zm3.5-156.9V510l2.81.7c0-.94.93-1.4,2.8-1.4v-.71Zm1.4,7V517q2.28-2.1,3.51-2.1v-2.1h-.7C1264.78,512.82,1263.84,513.75,1262.67,515.62Zm.71,150.59c.11.93.58,1.4,1.4,1.4v-1.4Zm2.1-147.09a7.19,7.19,0,0,1-.7,3.5h.7a1.24,1.24,0,0,0,1.4-1.4v-.7A1.24,1.24,0,0,0,1265.48,519.12Zm1.4-4.2v.7h1.4v-.7Zm0,150.59c.11.93.58,1.4,1.4,1.4v-1.4ZM1269,517q0,5.61,7.7,5.6c0,.47.7.7,2.1.7h1.41l-.7-1.4v-1.4l.7-1.4h-.7q-.71,2.1-4.21,2.1Q1271.43,517,1269,517Zm1.4-7.7c0,.93.7,1.4,2.1,1.4l3.5-.7q0,1.39,6.31,5.6l1.4-.7q1.05,0,4.2,3.5c0-1.87.47-2.8,1.4-2.8h2.1a20.35,20.35,0,0,0,.7,4.9h1.4v-.7a8.08,8.08,0,0,0-2.1-4.9v-3.5h-.7l-3.5.7v-1.4l1.4-2.11h-14.71Zm.7,22.41q0,1,2.1,2.1l.7-1.4-.7-1.4A5.28,5.28,0,0,1,1271.08,531.73Zm0,78.45a43,43,0,0,1,1.4,5.6h.7a5.95,5.95,0,0,0,0-5.6,5.28,5.28,0,0,1,2.1-.7,5.38,5.38,0,0,1-.7-2.1h-.7C1273.18,607.38,1272.25,608.31,1271.08,610.18Zm0,9.1v3.51a43,43,0,0,0,5.6,1.4,5.63,5.63,0,0,1-.7-2.81h-.7l-2.1,1.41-1.4-3.51Zm0,9.11v.7l.7,1.4-.7,4.2,2.1-1.4a5.28,5.28,0,0,0,2.1.7l1.4-2.1q-4.9-1.74-4.9-3.5Zm0,13.31v2.1c.11.93.58,1.4,1.4,1.4a5.17,5.17,0,0,1,2.8-1.4q0-1-2.1-2.1Zm2.8,9.8c-.93,0-1.4-.7-1.4-2.1h-1.4l.7,7h1.4l-.7-3.51,1.4-.7,3.5.7a15.89,15.89,0,0,0,4.91-1.4l-.7-1.4.7-1.4c-.94,0-1.4-.93-1.4-2.8A30.89,30.89,0,0,0,1273.88,651.5Zm-2.1-34.32v1.4h.7v-1.4Zm0,21a5.36,5.36,0,0,1,.7,2.11h.7c0-1.87.7-2.81,2.1-2.81v-.7h-.7C1272.71,637.14,1271.78,637.61,1271.78,638.19Zm.7-111.36q0,1.57,4.2,4.2v1.4a5.38,5.38,0,0,1,2.1-.7V531C1277.27,528.23,1275.16,526.83,1272.48,526.83Zm0,138.68c.12.93.58,1.4,1.4,1.4l.7-1.4Zm.7,19.61v.7h1.4v-.7Zm1.4-170.9v.7q0,1.05,2.1,2.1h.7A3.8,3.8,0,0,0,1274.58,514.22Zm0,154.79v.7h2.1V669Zm1.4-134.48-.7,1.4V538l1.4-.7h1.4c1.05,0,1.76,1.17,2.11,3.51h.7a8.1,8.1,0,0,1,1.4-4.21A9,9,0,0,1,1276,534.53Zm-.7,147.79v2.8c2.8-.58,4.21-1.28,4.21-2.1C1277.38,683,1276,682.79,1275.28,682.32Zm.7-77.75q0,.88,3.51,3.51l2.1-3.51Zm0,13.31v1.4h1.4a5.62,5.62,0,0,1,.7-2.8h-.7C1276.45,616.6,1276,617.07,1276,617.88Zm.7,25.22v2.1h2.1v-2.1Zm0,20.31v1.4h1.4v-1.4Zm.7-4.2v1.4h.7v-1.4Zm.7-10.51h1.41v.7h-1.41Zm.7-15.41h1.41v-1.4C1279.25,632,1278.78,632.48,1278.78,633.29Zm.71,6.31v.7h1.4v-.7Zm.7-28V613h.7v-1.4Zm0,10.51v1.4h.7v-1.4Zm0,14v1.4a5.59,5.59,0,0,1,2.8-.7v-.7Zm0,26.62h1.4v-1.4C1280.65,661.43,1280.19,661.89,1280.19,662.71Zm2.8-5.6c0,1.86-.7,2.8-2.1,2.8v.7h1.4c0-.93.93-1.4,2.8-1.4v-1.4A5.45,5.45,0,0,1,1283,657.11Zm-.7-16.81-.7,1.4v.7a5.49,5.49,0,0,1,2.8-.7V641A5.45,5.45,0,0,1,1282.29,640.3Zm-.7,39.92a5.62,5.62,0,0,1,.7,2.8h2.1a5.52,5.52,0,0,1-.7-2.8Zm.7-63.74v.7h1.4v-.7Zm.7-94.56v3.51h1.4a5.53,5.53,0,0,1,.7-2.81A5.28,5.28,0,0,1,1283,521.92Zm0,21.72V545h1.4v-1.4Zm2.1-31.52h2.1v1.4a1.24,1.24,0,0,1-1.4,1.4h-.7a1.24,1.24,0,0,1-1.4-1.4C1283.8,512.59,1284.27,512.12,1285.09,512.12Zm-1.4,109.26v.71a8.14,8.14,0,0,1,1.4,4.2v1.4l-1.4,2.1h1.4a1.24,1.24,0,0,0,1.4-1.4,5.52,5.52,0,0,1-.7-2.8q3.49-1.23,3.5-4.21Zm.7,28.72q2.1,3.15,2.1,4.2l1.4-.7,1.4.7,4.9-3.5h1.4v-.7l-3.5-.7c0,1.4-.47,2.1-1.4,2.1l-2.8-2.1Zm0,30.82h.7l3.5-.7v-.7h-2.8C1284.85,679.63,1284.39,680.1,1284.39,680.92Zm.7-46.93v1.4h.7a1.24,1.24,0,0,0,1.4-1.4Zm3.5,23.82q-1.92,3.5-3.5,3.5c.11.93.58,1.4,1.4,1.4q0-2.1,6.3-2.1c-.35-1.87-.81-2.8-1.4-2.8a5.28,5.28,0,0,1-2.1.7A.62.62,0,0,0,1288.59,657.81Zm-3.5,42v2.8h.7v-2.8Zm.7,3.5v2.11c.81,0,2,.7,3.5,2.1v-1.4c0-.7-.93-1.64-2.8-2.81Zm1.4-35v.7a5.51,5.51,0,0,1,2.1.7h.7V669a5.28,5.28,0,0,1-2.1-.7Zm3.5-29.42v.71a5.28,5.28,0,0,1,.7,2.1h.7V641a5.36,5.36,0,0,1-.7-2.11Zm1.4,27.32v.7h1.4v-.7Zm0,32.92v1.4a1.24,1.24,0,0,0,1.4-1.4Zm.7-65.84v2.8l1.4-.7a5.45,5.45,0,0,1-.7-2.1Zm5.61,66.54q0,3.67-4.21,5.61h-.7v.7h.7l1.4-.7a12,12,0,0,1,4.21,1.4c.23-1.87.93-2.8,2.1-2.8h.7l2.1,1.4h.7q0-1.05-4.9-4.91v-.7ZM1294.19,510a5.07,5.07,0,0,1,1.4,2.8h.71l4.2-2.8,1.4.7v-1.4a5.34,5.34,0,0,1-2.1-.71A16.12,16.12,0,0,1,1294.19,510Zm0,133.08v1.4h1.4v-1.4Zm1.4,44.12,1.41,2.11-1.41,2.8h.71l4.2-3.5-.7-1.41v-.7l.7-1.4h-.7C1297,685.36,1295.59,686.06,1295.59,687.22Zm.71-43.42c.11.93.58,1.4,1.4,1.4h.7v-2.1A5.38,5.38,0,0,1,1296.3,643.8Zm.7,12.61c.35,1.87.81,2.8,1.4,2.8q1.92,0,3.5-3.5l-1.4-.7A5.64,5.64,0,0,1,1297,656.41Zm.7,51.83V711h.7a1.24,1.24,0,0,0,1.4-1.4v-2.1A5.56,5.56,0,0,1,1297.7,708.24Zm2.8,7.7-2.1,4.2,1.4.71,2.1-1.4h.7c.93.11,1.4.58,1.4,1.4a.62.62,0,0,1-.7.7l.7,1.4a1.24,1.24,0,0,1-1.4,1.4l.7,1.4v.7c0,.93-.94,1.4-2.8,1.4V730q2.1,0,2.8,3.5l2.1,1.4h1.4l-.7-3.5q1.05,0,2.1-2.1v-4.2c-1.4,0-2.1-.47-2.1-1.4l2.1-2.8V718l-.7-1.4L1304,718Zm-1.4-82.65v.7h1.4v-.7Zm0,6.31V641h.7v-1.4Zm2.8,55.33a5.45,5.45,0,0,1,.7,2.1h1.4v-2.8h-.7Zm1.4,13.31v.7c1.4,0,2.1.46,2.1,1.4v.7H1304v2.1a5.17,5.17,0,0,1,2.8,1.4h1.4v-5.6c-.35,0-1.75-.24-4.2-.7Zm.7-10.51v.7h1.4v-.7Zm2.8-1.4h1.4v-1.4C1307.27,695,1306.8,695.51,1306.8,696.33Zm.7,4.2v1.4h.7v-1.4Z" transform="translate(-151.42 -214.79)"/><path class="cls-4" d="M1393,504.94h161.8l-43.42,63.74v-21H1474.9v95.26l-42,83.35V547.66h-38.52a1.24,1.24,0,0,1-1.41-1.4Zm50.44,114.87-2.11,2.8,1.4.7h1.41a5.52,5.52,0,0,1,.7-2.8Zm2.8-25.22-1.4-.7v1.4h2.8a1.24,1.24,0,0,0,1.4-1.4v-.7h-.7Zm.7-3.5v1.4h.7v-1.4Zm1.4,9.81v.7a1.24,1.24,0,0,1,1.4,1.4h.7v-.7a5.53,5.53,0,0,1-.7-2.81C1448.75,599.61,1448.29,600.08,1448.29,600.9Zm1.4-8.41v.7c.11.94.58,1.4,1.4,1.4h.7v-2.1Zm.7-7.7v.7h2.8l-.7-1.4v-.7c0-.94.93-1.41,2.8-1.41v-2.8h-.7Q1453,579.18,1450.39,584.79Zm2.1,18.91v5.6h-2.1v.7q2.1,0,6.3,3.5a5.56,5.56,0,0,1,.7-2.1c-1.86-4-2.8-6.53-2.8-7.7Zm.7,16.11v2.8h2.8C1456,621.91,1455.06,621,1453.19,619.81Zm3.5,14.71v1.4h-.7l-1.4-.7a5.52,5.52,0,0,1-.7,2.8l1.4.7a5.38,5.38,0,0,1,2.1-.7.62.62,0,0,0,.7.7v-4.2Zm-1.4-36.43v1.4h.7v-1.4Zm2.1,67.95-1.4,2.1h.7l4.21-.7V666h-.7a5.54,5.54,0,0,1-2.11.7A.62.62,0,0,0,1457.39,666Zm0-93.86a5.52,5.52,0,0,1-.7,2.8l2.81,1.4-.7-4.2Zm0,20.31v2.1q7.71,2.46,7.71,4.21a11.2,11.2,0,0,1-2.1,5.6v1.4a5.49,5.49,0,0,0,.7,2.8l-2.8,9.81h1.4q0-4.9,2.8-4.91v-5.6l1.4-2.1-1.4-2.1c1.63-2.8,2.8-4.21,3.5-4.21v-2.1c-.58-.7-2.92-1.86-7-3.5a1.24,1.24,0,0,1-1.4,1.4c-.94,0-1.4-.93-1.4-2.8Zm0,39.93v1.4h.7v-1.4Zm1.41-45.53v1.4h.7v-1.4Zm0,38.52.7,1.4-.7,1.4h1.4v-3.5Zm1.4-56v1.4a4.12,4.12,0,0,1,3.5,2.1l-.7,1.4v.7h2.8v-2.8a2.47,2.47,0,0,1-2.8-2.8l-1.4.7Zm2.8,59.53q1.05,0,2.1,2.1v4.91c0,.47-1.64,2.1-4.9,4.9a5.56,5.56,0,0,1,.7,2.1h2.1l-.7-1.4v-.7q0-1.05,2.1-2.1a5.28,5.28,0,0,0,2.1.7,5.28,5.28,0,0,1-.7-2.1q0-1.76.7-10.51C1464.16,627.4,1463,628.1,1463,628.91Zm-.7,30.82v1.4h.7a1.24,1.24,0,0,0,1.4-1.4V659A5.38,5.38,0,0,1,1462.3,659.73Zm.7-74.94v1.4h.7v-1.4Zm.7,69.34v.7a5.51,5.51,0,0,1,.7,2.1h.7a5.33,5.33,0,0,1,.7-2.1l-1.4-.7Zm2.8-32.92v4.2q1.05,0,5.6-11.21v-.7a5.33,5.33,0,0,1-2.1-.7C1467.67,612.8,1466.5,615.61,1466.5,621.21Zm1.4-55.34v.7h1.4v-.7Zm2.8,1.41.7,1.4v2.8h-3.5a6.71,6.71,0,0,1,2.1,4.9h.7c0-1.4.47-2.1,1.4-2.1a.62.62,0,0,0-.7-.7l.7-4.9v-1.4Zm-1.4,65.14v2.8h.7v-2.8Zm.7-30.12v.7h1.4v-.7Zm0,27.31,1.4.7.7-1.4v-.7h-.7C1470.47,628.33,1470,628.8,1470,629.61Zm.7-40.62c.12.93.59,1.4,1.4,1.4V589Zm0,53.23v.7c.12.94.59,1.4,1.4,1.4v-2.1Zm.7-44.83v2.81h.7v-2.81Zm44.13-39.92v1.4h.7v-1.4Zm2.8-46.23a5.14,5.14,0,0,1-1.4,2.8h4.9v-.7C1521,513.34,1519.85,512.64,1518.33,511.24Zm2.1,15.41v2.1a5.59,5.59,0,0,1,2.8.7l1.41-2.1h-.7a5.36,5.36,0,0,1-2.11.7A1.24,1.24,0,0,0,1520.43,526.65Zm0,14v2.1c0,.94.7,1.4,2.1,1.4l-.7,3.5v.7h1.4q0-2.1,1.41-2.1a8.07,8.07,0,0,1-1.41-4.2,5.36,5.36,0,0,1,2.11-.7l1.4.7h.7v-.7a1.86,1.86,0,0,1-2.1-2.1h-1.4A5.65,5.65,0,0,1,1520.43,540.66Zm.7-19.61v1.4h.7v-1.4Zm2.1.7c.12.93.59,1.4,1.41,1.4l1.4-2.1h-.7A5.36,5.36,0,0,1,1523.23,521.75Zm14,.7c-.35,2.34-1,3.5-2.1,3.5l.7,1.4c0,.59-1.17,1.75-3.5,3.5h-.7q-1,0-2.1-2.1c0-.58,1.16-1.75,3.5-3.5a5.28,5.28,0,0,1-.7-2.1l-4.2,2.8.7,3.5c-.7,0-1.64,1.64-2.8,4.91l2.8,1.4q0-4.21,2.1-4.21h3.5q0-1,4.9-8.4A5.38,5.38,0,0,1,1537.24,522.45Zm-10.5-12.61v1.4h1.4A1.24,1.24,0,0,0,1526.74,509.84Zm4.9,0c0,.94-.94,1.4-2.8,1.4v1.4h1.4l4.9-.7C1535.14,510.89,1534,510.19,1531.64,509.84Zm0,11.21v1.4h.7a5.28,5.28,0,0,1,2.1-.7v-.7Zm6.3-8.41c0,1.4-.93,2.1-2.8,2.1v.7h2.1a5.17,5.17,0,0,1,1.4-2.8Zm6.31-1.4q0,5.78-7,7v1.4c1.87,0,2.8.7,2.8,2.1.71,0,1.41-.94,2.11-2.8a.62.62,0,0,1-.7-.7q2.27-.36,5.6-6.31v-.7Zm-4.21-3.5v.7a5.44,5.44,0,0,1,.71,2.1h1.4q1,0,2.1-2.1v-.7Z" transform="translate(-151.42 -214.79)"/><path class="cls-4" d="M1560.71,504.94h161.1l-41.33,42h-77.75v16.81h60.94l-60.94,41.33v18.21h12.61q46.76,0,67.94-45.53l-21,86.86,21,63.73q-50.25-61.64-122.57-62.86Zm21,63v2.1h.7V568Zm1.4-17.51c.12.93.58,1.4,1.4,1.4h.7a1.24,1.24,0,0,0-1.4-1.4Zm.7-11.21a5.28,5.28,0,0,1,2.1.7v-2.8Q1584.87,537.16,1583.82,539.26Zm5.61,23.81v.7l2.1,2.8v.71a.62.62,0,0,1-.7.7l.7,1.4q-.71,2.1-4.21,2.1v.7a5.53,5.53,0,0,1,2.81.7c.11-.93.58-1.4,1.4-1.4.11.93.58,1.4,1.4,1.4q0-1.39,2.8-3.5a5.38,5.38,0,0,1-.7-2.1c2.8,0,4.2-1.41,4.2-4.21l-3.5.7a1.23,1.23,0,0,1-1.4-1.4v-.7l.7-1.4-1.4-.7C1592.23,561.91,1590.83,563.07,1589.43,563.07Zm0-16.11a5.61,5.61,0,0,1-1.41,3.51h.7c.71,0,1.64-.94,2.81-2.81V547Zm-.71-26.61c.12.93.59,1.4,1.41,1.4a.62.62,0,0,1,.7-.7,5.38,5.38,0,0,1-.7-2.1C1589.19,519.06,1588.72,519.53,1588.72,520.35Zm6.31,31.52-2.1-1.4a.62.62,0,0,1-.7.7,5.55,5.55,0,0,0,2.8,3.5l1.4-.7c.93.11,1.4.58,1.4,1.4a5.33,5.33,0,0,1-2.1.7c1,2.34,2.68,3.5,4.9,3.5V546.26q-2.81,0-4.2,5.61Zm3.5-22.42-1.4,2.1v.7l3.5-.7Q1600.63,530.5,1598.53,529.45Zm1.4,9.11q.52,1.92,3.5,3.5a.62.62,0,0,1,.7-.7Q1603.44,538.56,1599.93,538.56Zm6.31-1.4c.11.93.58,1.4,1.4,1.4l1.4-2.1v-.7h-1.4C1606.7,535.87,1606.24,536.34,1606.24,537.16Zm4.9-4.91v.7h2.1v-.7Zm2.8,0h1.4v-1.4C1614.41,531,1613.94,531.44,1613.94,532.25Zm1.4,8.41v3.5c.58,0,1.75-1.16,3.5-3.5V540Zm.7-2.8a20.35,20.35,0,0,1,4.9.7,7.7,7.7,0,0,1-1.4-3.5C1617.21,536.22,1616,537.16,1616,537.86Zm7.71,3.5v2.8h2.1a5.49,5.49,0,0,1-.7-2.8Zm0,25.92v.7h1.4v-.7Zm0,107.16v1.4h.7v-1.4Zm.7-9.8v2.1c.11.93.58,1.4,1.4,1.4h.7v-4.21A5.44,5.44,0,0,1,1624.45,664.64Zm22.41-6.31v4.2c-1.28,3.27-2.22,4.91-2.8,4.91q0-4.91-7.71-4.91a16.89,16.89,0,0,0-.7,4.91c1.4,0,2.11.46,2.11,1.4,0,.7-.71,1.4-2.11,2.1a1.24,1.24,0,0,1-1.4-1.4l-1.4.7h-.7c-.93,0-1.4-.7-1.4-2.1q-4.9.69-4.9,2.1a14.82,14.82,0,0,0,5.6,3.5,5.52,5.52,0,0,1,2.8-.7,5.28,5.28,0,0,1,.7,2.1h2.1v-2.8h.71c.93.12,1.4.58,1.4,1.4v3.5l2.8,2.1h2.1l.7-4.2-1.4-.7a.62.62,0,0,1-.7.7l-.7-1.4v-1.4q3.49-2.8,3.5-5.6h1.4l1.4.7c.35-2.8,1.29-4.67,2.8-5.61a5.38,5.38,0,0,0,2.1.7v-2.1l-3.5.7a5.14,5.14,0,0,1-1.4-2.8Zm-18.21-89.65v.7l3.5-.7c.12.93.58,1.4,1.4,1.4l1.4-3.51h-4.2C1630.05,566.57,1629.35,567.28,1628.65,568.68Zm2.8,97.36v1.4h.7V666Zm.7,9.8c1.28,2.34,2.22,3.5,2.8,3.5v-1.4a5.45,5.45,0,0,1-.7-2.1Zm.7-135.18.7,3.5h.7v-3.5Zm2.8,25.91a5.36,5.36,0,0,1,.7,2.11h4.21c1.75,0,3.85,1.16,6.3,3.5,0-.93,1.4-1.4,4.2-1.4v-.7c-1.4,0-2.1-.47-2.1-1.4a5.36,5.36,0,0,0,.7-2.11l-2.8,2.81h-2.8V568l.7-1.41h-.7a.62.62,0,0,0-.7.71l-4.9-.71Zm.7,4.21v2.8c.94.12,1.41.58,1.41,1.4l-1.41,2.1,1.41.7h2.1l4.2-2.8q-2.8-3.33-2.8-4.2Zm.7,86.85-.7,1.4a5.65,5.65,0,0,1,3.51,1.4h1.4V659A12,12,0,0,1,1637.05,657.63Zm10.51-32.92v2.8h2.1v-.7a5.28,5.28,0,0,1-.7-2.1Zm1.4,29.42v.7a1.24,1.24,0,0,1,1.4,1.4h.7v-1.4l-1.4-.7Zm1.4,11.21a5.38,5.38,0,0,1-.7,2.1l2.1,1.4h2.1l-1.4-2.1.7-1.4Zm.7-22.42V645l2.1-1.4c.7,0,1.64.94,2.81,2.8a15.52,15.52,0,0,0-2.11,4.91h1.41a5.28,5.28,0,0,1,2.1-.7.62.62,0,0,0,.7.7l.7-1.4,1.4.7h2.1v-3.5q-2.8-3-9.11-4.91A5.28,5.28,0,0,1,1651.06,642.92Zm1.4,14v.7h1.4q1.76,0,4.91-2.1l2.1,1.4h.7v-2.8A15.14,15.14,0,0,0,1652.46,656.93Zm.7-90.36V568a1.25,1.25,0,0,0,1.41-1.41Z" transform="translate(-151.42 -214.79)"/><path class="cls-4" d="M1848.58,504.94v100l-37.82,19.62q37.83,30.12,37.82,97.36l-78.44-92.46v36.07l-42,18.56V504.94Zm-118.37,2.62V509q0,.87,3.5,2.8h.71l.7-4.21Zm0,8.41v.7h1.4V516Zm0,2.1v1.4q0,1,2.1,2.1h1.4v-1.4C1732.9,520.17,1731.73,519.47,1730.21,518.07Zm8.41,9.11c0,.81-.7,2-2.1,3.5.11.93.58,1.4,1.4,1.4a5.49,5.49,0,0,1,2.8-.7,10.66,10.66,0,0,1-1.4-4.2Zm2.8-4.91v1.4h.7v-1.4Zm14.71,3.5a.63.63,0,0,1-.7.71l.7,1.4-.7,1.4-4.91-.7h-1.4v3.5h.7q0-2.1,1.41-2.1l3.5,2.1c.11-.93.58-1.4,1.4-1.4h.7l2.1,1.4c2.1-.93,3.27-1.87,3.5-2.8Zm6.3,86.16c0,1.4-1.17,3.74-3.5,7h2.1v-1.4h.7c1,0,1.75,1.64,2.1,4.9-.7,0-1.4.7-2.1,2.11v.7h.7a3.79,3.79,0,0,0,2.8-2.81,5.59,5.59,0,0,1-.7-2.8l3.51-7-3.51.7Zm.7-11.91c.12.94.59,1.4,1.4,1.4l.7-1.4v-.7A5.28,5.28,0,0,1,1763.13,600Zm2.8,22.41v1.41h1.41v-1.41Zm2.11-84v2.1c0,.7.7,1.41,2.1,2.11v-3.51A5.28,5.28,0,0,1,1768,538.38Zm0,81.25V621h1.4v-1.4Zm2.1-72.14v35.72l36.42-18.91V547.49Zm0,69.34v.7h1.4v-.7Zm2.1.7a7.25,7.25,0,0,1,.7,3.5h.7a5.59,5.59,0,0,1,1.4-3.5.62.62,0,0,1-.7-.7A5.38,5.38,0,0,1,1772.24,617.53Zm2.1,6.31v.7h1.4v-.7Zm.7,2.8-.7,2.8h2.1c0-.7.93-1.64,2.8-2.8h-.7a5.52,5.52,0,0,1-2.8.7A.62.62,0,0,0,1775,626.64Zm.7-89.66a6.11,6.11,0,0,1,1.4,4.2h.7c0-1.4.23-2.1.7-2.1a5.28,5.28,0,0,1-.7-2.1Zm.7,62.34.7,3.5h3.5l1.4.7v-2.1l-3.5.7-.7-1.4,2.1-3.5a.62.62,0,0,1-.7-.7c.59-.47,2-.7,4.2-.7a5.63,5.63,0,0,1,2.11,4.2h2.1a5.07,5.07,0,0,1-1.4-2.8v-2.1c-2.81,0-4.21-.94-4.21-2.8Q1779.07,592.32,1776.44,599.32Zm2.1,34.32v.7q0,1,2.1,2.1v-2.8Zm5.61-94.56q0,3.51-1.41,3.51h-2.1l-1.4-.7v2.8h3.5c0-.82.7-2,2.11-3.51v-2.1ZM1782,618.93v2.8c.82,0,2,.7,3.51,2.11a5.53,5.53,0,0,1,.7-2.81l-3.51-2.1Zm0,7V628h.7v-2.1Zm.7,10.5v.7q1.41,0,4.21,2.81c0-1.17.93-1.87,2.8-2.11a1.24,1.24,0,0,0-1.4-1.4,5.52,5.52,0,0,1-2.8.7,5.28,5.28,0,0,1-.7-2.1h-.7C1783.21,635.16,1782.74,635.63,1782.74,636.44Zm.7-23.81V614a3.89,3.89,0,0,0,3.51,4.2v2.1h1.4v-2.8C1787.41,617.53,1785.78,615.9,1783.44,612.63Zm1.41,18.21v.7h1.4v-.7Zm3.5-50.43a5.62,5.62,0,0,1,.7,2.8c-.7,0-1.64.94-2.8,2.8.93.12,1.4.59,1.4,1.4a5.52,5.52,0,0,0-.7,2.8l1.4.71c0-.35,1.16-2.46,3.5-6.31l-.7-1.4v-.7c0-.93,1.4-1.4,4.2-1.4v-1.4c-1.87,0-2.8-.47-2.8-1.4s3.27-2,9.81-3.5h.7c.23,1.86.93,2.8,2.1,2.8,0-.94.23-1.4.7-1.4,0-1.05-2.1-2.46-6.3-4.21Q1788.34,575.68,1788.35,580.41Zm-1.4-37.12v.7l2.8.7v-1.4Zm2.1,54.63-.7,1.4h.7a5.45,5.45,0,0,1,2.1-.7v-.7Zm-.7,28.72q0,1.05,2.1,2.1h.7v-1.4Zm0,4.2v2.8h.7l.7-2.8Zm2.1,12.61a20.94,20.94,0,0,1-.7,4.9h2.1a7.1,7.1,0,0,1,.7-3.5,1.24,1.24,0,0,1-1.4-1.4Zm0-52.53v.7c1.4,0,2.1.46,2.1,1.4a.62.62,0,0,1-.7.7,5.28,5.28,0,0,1,.7,2.1h.7q0-2.46,5.6-7H1801c0,1.87,1.16,2.81,3.5,2.81h.7a5.12,5.12,0,0,1-1.4-2.81,5.45,5.45,0,0,0,.7-2.1c-1.87.24-2.8.94-2.8,2.1q-4-5.59-5.61-5.6c-1.87,0-3,2.57-3.5,7.71Zm0,11.9v.7l.7,3.5,1.4-.69h1.4c.93,0,1.4,1.16,1.4,3.5h2.1v-1.4a5.65,5.65,0,0,1-1.4-3.51l-1.4.7Zm1.4,11.21a5.28,5.28,0,0,1-.7,2.1c1.4,0,2.1.47,2.1,1.4l-.7,1.4h1.4a5.38,5.38,0,0,1,.7-2.1A3.8,3.8,0,0,0,1791.85,614Zm0-4.2v2.1c1.87-.7,2.8-1.4,2.8-2.1Zm0,41.32v1.4a1.24,1.24,0,0,0,1.4-1.4Zm.7-28.72v1.41c1.87,0,2.8.46,2.8,1.4v.7L1794,628v.7h.7l1.4-.7a5.28,5.28,0,0,1,.7,2.1q0,.71-2.8,4.2l2.1,1.4q1.23-5.6,3.51-5.6l-.71-1.4V628l.71-1.4C1795.82,623.84,1793.48,622.43,1792.55,622.43Zm2.8,28a12.08,12.08,0,0,1-1.4,4.2h1.4a7.25,7.25,0,0,1,.7-3.5v-.7Zm1.4-63,.7,1.4v.7h-.7a1.24,1.24,0,0,1-1.4-1.4Zm0,15.41v2.1h1.4v-.7A1.24,1.24,0,0,0,1796.75,602.82Zm1.4,16.11-.7,1.4c0,.7.7,1.4,2.11,2.1l1.4-.7a5.28,5.28,0,0,0,2.1.7Q1801,618.94,1798.15,618.93Zm0-46.23h.7c.94.12,1.41.59,1.41,1.4v.71h-.7a1.25,1.25,0,0,1-1.41-1.41Zm0,21.72,1.41.7-.71,1.4v.7h.71c0-.93.23-1.4.7-1.4a5.52,5.52,0,0,1-.7-2.8C1798.62,593.13,1798.15,593.6,1798.15,594.42Zm0,48.33v.7a20.42,20.42,0,0,1,.7,4.9h.71c0-1.87.46-2.8,1.4-2.8A3.79,3.79,0,0,0,1798.15,642.75Zm0,6.3v1.4h1.41A1.24,1.24,0,0,0,1798.15,649.05Zm0,6.3v1.41h2.11v-2.11A5.36,5.36,0,0,1,1798.15,655.35Zm.7-56.73v.7h1.41v-.7Zm2.11,7c0,1.87-.7,2.81-2.11,2.81.12.93.59,1.4,1.41,1.4a1.86,1.86,0,0,1,2.1-2.1V607A1.24,1.24,0,0,0,1801,605.62Zm-.7-25.91,2.8,4.2h2.8v-.7q-4.2,0-4.2-3.5Zm2.1,67.94v2.1a5.6,5.6,0,0,1,3.5-1.4v-.7Zm2.8-46.23a1.86,1.86,0,0,1-2.1,2.1l.7,1.4,3.5-.7h2.1v-1.4A6.06,6.06,0,0,1,1805.16,601.42Zm-2.1,39.93v1.4h.7a1.24,1.24,0,0,0,1.4-1.4Zm.7-30.82v.7h1.4v-2.1C1804.22,609.24,1803.76,609.71,1803.76,610.53Zm0,9.1V621a5.56,5.56,0,0,1,2.1.7v-2.1Zm2.8-23.81v2.8h2.1v-.7Q1808.66,596.87,1806.56,595.82Zm0,57.43v.7c.11.94.58,1.4,1.4,1.4h.7v-.7a1.24,1.24,0,0,0-1.4-1.4Zm1.4-20.31v1.4q1.05,0,2.1-2.1v-.7h-.7C1808.43,631.66,1808,632.13,1808,632.94Zm.7,7.71v.7a5.31,5.31,0,0,1,4.2,2.1,5.45,5.45,0,0,1,.7-2.1l-3.5-.7Zm1.4-32.92v1.4h.7v-1.4Zm3.5,29.41h-.7l-2.1-1.4v.7c0,.47,1.87,1.4,5.61,2.81v.7h.7a20.49,20.49,0,0,1-.7-4.91Zm-2.1-23.11v.7h1.4v-2.1C1811.93,612.75,1811.46,613.21,1811.46,614Zm.7-20.31a5.28,5.28,0,0,1,2.1.7l3.51-2.8,1.4.7a5.36,5.36,0,0,1,.7-2.11c-.94,0-1.4-.23-1.4-.7q-2.81,2.81-4.91,2.81C1812.63,592.43,1812.16,592.9,1812.16,593.72Zm.7,6.3c0,2.1-.23,3.5-.7,4.2a5.59,5.59,0,0,1,2.8.7V600Zm2.1,6.31v1.4h.7v-1.4Zm2.11,2.8v2.1a5.49,5.49,0,0,1,2.8-.7v-1.4Zm2.8-11.91c.11.93.58,1.4,1.4,1.4v-1.4Zm.7,5.6v1.4h.7v-1.4Z" transform="translate(-151.42 -214.79)"/></svg>