<svg id="Layer_1" data-name="Layer 1" xmlns="http://www.w3.org/2000/svg" viewBox="0 0 1773.95 596.22"><defs><style>.cls-1{fill:#93aad8;}.cls-2{fill:#2e3192;}.cls-3{fill:#58595b;}.cls-4{fill:#fff;}.cls-5{fill:#2b3990;}.cls-6{fill:#231f20;}.cls-7{fill:#4f5fab;}.cls-8{fill:#314ba0;}.cls-9{fill:#1c1b4f;}.cls-10{fill:#d1d3d4;}.cls-11{fill:#a7a9ac;}.cls-12{fill:#f1f2f2;}</style></defs><title>crypto monster logo light theme</title><path class="cls-1" d="M727.36,458.94a41.85,41.85,0,0,1-21.6-5.78,43.36,43.36,0,0,1-15.57-15.63,42.19,42.19,0,0,1-5.78-21.66A43,43,0,0,1,697,385.39a42.3,42.3,0,0,1,13.87-9.24,44,44,0,0,1,36.32,1.46,41.19,41.19,0,0,1,15,13l.29.41-6.11,4.3-.29-.4a33.86,33.86,0,0,0-7.58-7.53,35.67,35.67,0,0,0-9.9-5.1,36.22,36.22,0,0,0-11.21-1.71,35.1,35.1,0,0,0-17.67,4.68,34.41,34.41,0,0,0-12.92,13,35.41,35.41,0,0,0,12.92,48.38,35.53,35.53,0,0,0,34,.83,35.35,35.35,0,0,0,12.4-10.55l.29-.4,6.22,4.43-.3.41a43,43,0,0,1-15,12.83A42.44,42.44,0,0,1,727.36,458.94Z" transform="translate(-113.02 -201.89)"/><path class="cls-2" d="M727.36,373.42a42.37,42.37,0,0,1,19.6,4.63,40.5,40.5,0,0,1,14.79,12.81l-5.29,3.73a34.06,34.06,0,0,0-7.7-7.64,35.6,35.6,0,0,0-10-5.17A36.5,36.5,0,0,0,727.36,380a35.42,35.42,0,0,0-17.92,4.75A34.73,34.73,0,0,0,696.33,398,35.91,35.91,0,0,0,709.44,447a36.08,36.08,0,0,0,34.45.84,35.85,35.85,0,0,0,12.57-10.7l5.41,3.84A42.39,42.39,0,0,1,747,453.69a41.74,41.74,0,0,1-19.66,4.75A41.23,41.23,0,0,1,706,452.73a42.84,42.84,0,0,1-15.39-15.45,41.55,41.55,0,0,1-5.71-21.41,42.57,42.57,0,0,1,12.45-30.12,41.32,41.32,0,0,1,13.7-9.14,42.58,42.58,0,0,1,16.3-3.19m0-1a43.76,43.76,0,0,0-16.68,3.26,42.78,42.78,0,0,0-14,9.36,43.5,43.5,0,0,0-12.74,30.83,42.74,42.74,0,0,0,5.85,21.91,44,44,0,0,0,15.75,15.81,42.36,42.36,0,0,0,21.85,5.85,43,43,0,0,0,20.12-4.86,43.51,43.51,0,0,0,15.2-13l.59-.82-.82-.58L757,436.34l-.8-.57-.59.79A34.86,34.86,0,0,1,743.43,447a34.93,34.93,0,0,1-46.23-48.52,34,34,0,0,1,12.74-12.8A34.65,34.65,0,0,1,727.36,381a35.75,35.75,0,0,1,11,1.69,35,35,0,0,1,9.76,5,33.11,33.11,0,0,1,7.48,7.41l.57.81.82-.58,5.29-3.72.81-.58-.57-.82a41.74,41.74,0,0,0-15.15-13.12,43.56,43.56,0,0,0-20.06-4.74Z" transform="translate(-113.02 -201.89)"/><path class="cls-1" d="M807.45,457.38l-19.72-23.33h-5.4v23.33h-7.61V382.22H764.47l4.57-7.61h20.61a29.67,29.67,0,0,1,18.22,53.08,30.35,30.35,0,0,1-10.94,5.43l20.62,24.26Zm-17.8-30.95c6.56,0,11.94-2.21,16-6.57a22.17,22.17,0,0,0,6.12-15.53,21.56,21.56,0,0,0-3.17-11.64,21.85,21.85,0,0,0-8.23-7.76,22.48,22.48,0,0,0-10.71-2.71h-7.32v44.21Z" transform="translate(-113.02 -201.89)"/><path class="cls-2" d="M789.65,375.11a28.87,28.87,0,0,1,14.61,3.9,29.19,29.19,0,0,1,3.31,48.28A29.7,29.7,0,0,1,796,432.83l20.44,24.05h-8.77L788,433.55h-6.14v23.33h-6.61V381.72h-9.86l4-6.61h20.32m-7.82,51.82h7.82q10.1,0,16.35-6.73a22.56,22.56,0,0,0,6.26-15.87A22,22,0,0,0,809,392.42a22.22,22.22,0,0,0-8.42-7.93,22.8,22.8,0,0,0-10.94-2.77h-7.82v45.21m7.82-52.82H768.76l-.29.48-4,6.61-.91,1.52h10.63v75.16h8.61V434.55h4.67l19.42,23,.3.36h11.41l-1.4-1.65-19.41-22.84a31.08,31.08,0,0,0,10.36-5.3,30.16,30.16,0,0,0-18.53-54Zm-6.82,8.61h6.82a22,22,0,0,1,10.47,2.65,21.31,21.31,0,0,1,8,7.58,21,21,0,0,1,3.1,11.38,21.7,21.7,0,0,1-6,15.19c-3.95,4.26-9.21,6.41-15.62,6.41h-6.82V382.72Z" transform="translate(-113.02 -201.89)"/><polygon class="cls-1" points="726.39 255.49 726.39 218.65 706.89 172.72 715.2 172.72 730.25 208.13 745.2 172.72 753.5 172.72 734 218.65 734 255.49 726.39 255.49"/><path class="cls-2" d="M865.77,375.11l-19.24,45.33v36.44h-6.62V420.44l-19.24-45.33h7.22l15.39,36.19,15.27-36.19h7.22m1.51-1h-9.39l-.26.61-14.35,34-14.47-34-.26-.6h-9.39l.59,1.39,19.16,45.14v37.24h8.62V420.64l19.16-45.14.59-1.39Z" transform="translate(-113.02 -201.89)"/><path class="cls-1" d="M876.93,457.38V382.22H866.69l4.57-7.61h22.53a29.72,29.72,0,0,1,29.72,29.72,29.67,29.67,0,0,1-29.72,29.72h-9.25v23.33Zm16.86-30.95c6.55,0,11.93-2.21,16-6.57a22.19,22.19,0,0,0,6.12-15.53,21.45,21.45,0,0,0-3.17-11.64,21.7,21.7,0,0,0-8.23-7.76,22.44,22.44,0,0,0-10.7-2.71h-9.25v44.21Z" transform="translate(-113.02 -201.89)"/><path class="cls-2" d="M893.79,375.11A29.21,29.21,0,0,1,923,404.33a29.16,29.16,0,0,1-29.22,29.22H884v23.33h-6.61V381.72h-9.86l4-6.61h22.25M884,426.93h9.75q10.1,0,16.35-6.73a22.55,22.55,0,0,0,6.25-15.87,22,22,0,0,0-3.24-11.91,22.29,22.29,0,0,0-8.42-7.93,22.83,22.83,0,0,0-10.94-2.77H884v45.21m9.75-52.82H871l-.29.48-4,6.61-.91,1.52h10.63v75.16H885V434.55h8.75A30.15,30.15,0,0,0,924,404.33a30.21,30.21,0,0,0-30.22-30.22ZM885,382.72h8.75a22,22,0,0,1,10.47,2.65,21.31,21.31,0,0,1,8,7.58,21.07,21.07,0,0,1,3.09,11.38,21.69,21.69,0,0,1-6,15.19c-4,4.26-9.21,6.41-15.62,6.41H885V382.72Z" transform="translate(-113.02 -201.89)"/><polygon class="cls-1" points="829.32 255.49 829.32 180.33 813.09 180.33 813.09 172.72 853.17 172.72 853.17 180.33 836.93 180.33 836.93 255.49 829.32 255.49"/><path class="cls-2" d="M965.69,375.11v6.61H949.46v75.16h-6.61V381.72H926.61v-6.61h39.08m1-1H925.61v8.61h16.24v75.16h8.61V382.72h16.23v-8.61Z" transform="translate(-113.02 -201.89)"/><path class="cls-1" d="M1011.75,458.94a41.85,41.85,0,0,1-21.6-5.78,43.36,43.36,0,0,1-15.57-15.63,42.19,42.19,0,0,1-5.78-21.66,43,43,0,0,1,12.59-30.48,42.3,42.3,0,0,1,13.87-9.24,43.19,43.19,0,0,1,16.49-3.23,42.32,42.32,0,0,1,21.66,5.78A43.6,43.6,0,0,1,1049,394.27a43.36,43.36,0,0,1,0,43.26,43.37,43.37,0,0,1-15.63,15.63A42.19,42.19,0,0,1,1011.75,458.94Zm0-78.4a35.1,35.1,0,0,0-17.67,4.68,34.41,34.41,0,0,0-12.92,13,35.41,35.41,0,0,0,12.92,48.38,35.38,35.38,0,0,0,53.12-30.71,35.21,35.21,0,0,0-4.74-17.67,34.48,34.48,0,0,0-12.92-13A35.35,35.35,0,0,0,1011.75,380.54Z" transform="translate(-113.02 -201.89)"/><path class="cls-2" d="M1011.75,373.42a41.61,41.61,0,0,1,21.4,5.71,42.64,42.64,0,0,1,15.45,15.4,42.8,42.8,0,0,1,0,42.75,42.54,42.54,0,0,1-15.45,15.45,42.86,42.86,0,0,1-42.75,0A42.84,42.84,0,0,1,975,437.28a41.55,41.55,0,0,1-5.71-21.41,42.57,42.57,0,0,1,12.45-30.12,41.32,41.32,0,0,1,13.7-9.14,42.58,42.58,0,0,1,16.3-3.19m0,78.41A35.92,35.92,0,0,0,1042.89,398a34.64,34.64,0,0,0-13.1-13.16,36.4,36.4,0,0,0-36,0A34.73,34.73,0,0,0,980.72,398,35.91,35.91,0,0,0,993.83,447a35.17,35.17,0,0,0,17.92,4.81m0-79.41a43.76,43.76,0,0,0-16.68,3.26A42.78,42.78,0,0,0,981,385a43.5,43.5,0,0,0-12.74,30.83,42.74,42.74,0,0,0,5.85,21.91,44,44,0,0,0,15.75,15.81,43.84,43.84,0,0,0,43.76,0,43.81,43.81,0,0,0,15.81-15.81,43.84,43.84,0,0,0,0-43.76,44,44,0,0,0-15.81-15.75,42.74,42.74,0,0,0-21.91-5.85Zm0,78.41a34.87,34.87,0,0,1-34.84-35,34.75,34.75,0,0,1,4.68-17.42,34,34,0,0,1,12.74-12.8,35.44,35.44,0,0,1,35,0,33.94,33.94,0,0,1,12.73,12.8,34.89,34.89,0,0,1-30.27,52.38Z" transform="translate(-113.02 -201.89)"/><path class="cls-3" d="M571.11,595.22l.27-.39c.56-.8,1.13-1.6,1.67-2.42s1-1.58,1.47-2.37.94-1.48,1.38-2.24c.66-1.15,1.28-2.32,1.89-3.5.22-.42.47-.84.68-1.27.83-1.66,1.61-3.34,2.33-5.06a70.24,70.24,0,0,0,3.58-11.27c2.46-10.82,2.12-21.56.08-32.46-.76-4-1.73-8-2.88-12.09,0,0,0,.05,0,.08a.24.24,0,0,0,0-.08c.1.36.18.71.26,1.07s.14.53.19.8.09.53.13.8.13.74.17,1.12,0,.49.06.73c0,.4.07.8.08,1.2,0,.24,0,.47,0,.7,0,.42,0,.83,0,1.24,0,.23,0,.45-.05.67,0,.43-.06.85-.11,1.27,0,.22-.07.43-.1.64-.06.43-.12.86-.21,1.29,0,.2-.09.41-.13.61-.1.43-.2.86-.31,1.29-.06.19-.12.38-.17.57-.13.44-.27.88-.42,1.3-.06.18-.12.35-.19.53-.16.44-.34.88-.52,1.31l-.21.45c-.2.46-.42.91-.65,1.35a3.9,3.9,0,0,1-.19.35q-.37.72-.81,1.41c0,.07-.09.14-.13.22-.32.5-.66,1-1,1.49l0,.05a25,25,0,0,1-5.26,5.31c-.23.17-.47.33-.71.49-.2-2-.43-4-.69-5.94.14-.62.32-1.23.45-1.85,0,0,0-.1,0-.15,0-.2.11-.4.15-.6.29-1.42.51-2.85.74-4.28.07-.39.15-.79.21-1.18.22-1.5.39-3,.54-4.51.06-.54.14-1.09.19-1.64.12-1.33.18-2.66.25-4,0-.72.09-1.44.11-2.17,0-1.14,0-2.28,0-3.42,0-.92,0-1.83,0-2.74s-.12-1.88-.17-2.81c-.07-1.11-.11-2.21-.21-3.32-.07-.71-.18-1.42-.26-2.13-.15-1.31-.29-2.63-.5-3.94,0-.38-.14-.76-.21-1.13a93.9,93.9,0,0,0-2.4-10.73,174.76,174.76,0,0,0-6.57-18c-4.42-10.74-9-21.31-10.82-33.05a117.51,117.51,0,0,1-.76-28.54q.15-1.49.3-2.79h0a42,42,0,0,1-10.89,9.16l-.62.33c-.41.23-.82.46-1.21.65l-.59.28c-.4.18-.8.37-1.19.53l-.56.23c-.38.14-.75.29-1.11.41l-.54.18c-.35.11-.7.22-1,.31l-.53.14-1,.22-.55.11-.83.15-.61.09-.53.07c-3.6.44-6.7.26-10.15,1.44a18.31,18.31,0,0,0-2.6,1.13c-.31.18-.59.39-.9.57q-5.48-6-11.4-11.57c.25-.38.5-.74.73-1.12s.35-.59.53-.89l.79-1.35c0-.07.08-.14.11-.21s.14-.27.21-.41c.38-.72.74-1.44,1.08-2.18.15-.32.29-.63.43-.95.39-.9.76-1.82,1.08-2.76.08-.24.15-.5.23-.75.25-.78.48-1.58.68-2.39.08-.31.16-.63.23-.95.24-1.07.45-2.15.6-3.27a41.38,41.38,0,0,0,.3-4.44,43.82,43.82,0,0,0-7.26-24.53c-1.24-1.92-2.63-3.8-4.09-5.67a85.7,85.7,0,0,0-23.73-21,81.84,81.84,0,0,0-10-4.8c-9.81-4-19.12-6.78-28.55-17.39a63,63,0,0,1-9.58-14.47c-.5-1-.95-2-1.32-2.88h0v0c-2.95,5.56-5.4,12.83-2.95,19a23.91,23.91,0,0,0,5.49,7.48,50,50,0,0,1,6.23,7c.11.16.19.33.29.48.3.48.59,1,.86,1.45.17.32.33.66.5,1s.36.73.52,1.1.29.68.42,1,.31.78.44,1.17.25.7.36,1.06l.27.94c.16.55.29,1.1.42,1.66.1.41.19.83.26,1.25s.14.82.21,1.23.15,1,.21,1.55c0,.29,0,.58.07.87A36.9,36.9,0,0,1,441,356c0,.27,0,.54,0,.8-.05,1-.12,2-.23,2.95-.05.46-.11.93-.17,1.4-.15,1.05-.32,2.09-.53,3.14-.11.55-.24,1.1-.37,1.64q-.28,1.23-.63,2.43c-.15.56-.32,1.12-.49,1.67-.3.93-.62,1.86-1,2.77a213.77,213.77,0,0,0-65.94-15c-1.57-1.13-3-2.16-4.42-3.09l-.19-.12c-2.92-2-5.45-3.56-7.66-4.88l-.5-.3c-.91-.54-1.79-1.05-2.61-1.52l-.37-.21c-4.39-2.5-7.55-4.12-10.84-6.63a52.52,52.52,0,0,1-6.73-6.28c-6-6.52-19.61-21.33-19-41.95a50.46,50.46,0,0,1,8.17-25.55h0a74.67,74.67,0,0,0-14.52,4.34c-1.44.6-2.85,1.26-4.24,1.95l-.75.37c-1.28.66-2.55,1.35-3.8,2.08l-.28.16q-2.07,1.23-4.06,2.59l-.38.27q-1.74,1.21-3.42,2.52l-.63.49a79.1,79.1,0,0,0-6.88,6.19l-.78.8c-.89.93-1.75,1.88-2.6,2.85l-.51.58c-1,1.13-1.9,2.3-2.8,3.49l-.23.28c-.17.23-.32.46-.48.69-.6.82-1.19,1.65-1.76,2.49l-.75,1.13q-.88,1.36-1.71,2.76l-.49.84c-.69,1.2-1.35,2.42-2,3.65-.16.31-.29.61-.44.92-.46,1-.9,1.9-1.32,2.87l-.54,1.3c-.37.9-.71,1.81-1,2.73-.15.4-.3.81-.44,1.22-.44,1.28-.85,2.58-1.2,3.89-.05.18-.09.37-.14.55-.3,1.14-.57,2.29-.82,3.45-.09.45-.17.9-.25,1.35-.18.93-.33,1.87-.46,2.8-.07.46-.13.92-.19,1.38-.13,1.12-.23,2.24-.3,3.37,0,.24,0,.49-.06.73-.07,1.37-.08,2.73-.06,4.1,0,.38,0,.75,0,1.13,0,1,.1,2.06.19,3.09,0,.43.08.86.13,1.29.12,1.09.27,2.18.46,3.27.05.3.09.6.14.9.27,1.41.58,2.82,1,4.23,0,.14.08.28.12.42.35,1.26.74,2.51,1.18,3.76.11.32.22.63.34.95.43,1.15.89,2.31,1.4,3.46.11.23.2.47.31.71.65,1.4,1.33,2.8,2.1,4.18.37.68.75,1.34,1.15,2l.58.92.6.94c.31.49.62,1,.93,1.43s.51.78.77,1.16h0a214,214,0,0,0-42.1,22.34l-.23-.17a48.4,48.4,0,0,1-3.64-3.22l-.19-.21q-1.54-1.53-2.95-3.2c-.25-.3-.49-.62-.73-.93-.73-.9-1.43-1.82-2.09-2.77-.28-.41-.54-.82-.81-1.23-.58-.9-1.14-1.81-1.67-2.75-.25-.45-.5-.91-.74-1.37-.49-.94-1-1.9-1.38-2.86-.2-.47-.41-.94-.61-1.42-.41-1-.78-2.05-1.12-3.1-.15-.44-.31-.87-.44-1.32-.35-1.19-.65-2.4-.91-3.62-.07-.31-.15-.61-.21-.92a44,44,0,0,1-.68-4.72,47.05,47.05,0,0,1,3.16-21.21l0,0v0c-2.29,1.92-4.76,4.17-7.3,6.71l0,0q-1.83,1.85-3.69,3.91l-.55.63c-1.07,1.21-2.14,2.46-3.2,3.79-.08.1-.17.18-.25.28-.29.37-.58.78-.87,1.16-.75,1-1.49,1.91-2.22,2.92-.55.77-1.09,1.59-1.64,2.39s-1.14,1.67-1.7,2.55-1.24,2.05-1.85,3.09c-.45.78-.92,1.52-1.37,2.33q-1.54,2.82-3,5.86l-.85,1.83c-3.49,7.49-7.94,17.7-8.78,28.61a40.24,40.24,0,0,0,1.92,16.37c.09.27.2.51.29.77.3.84.62,1.66,1,2.46l.36.84c.37.85.75,1.68,1.14,2.48.08.16.15.33.23.49.46.92.92,1.8,1.38,2.63a.35.35,0,0,0,.05.08c.38.7.75,1.32,1.12,1.94.14.23.29.51.43.73l.31.5a214.79,214.79,0,0,0-15.78,21.57c-.13-.21-.24-.43-.38-.63-.47-.71-1-1.39-1.46-2.05a41.11,41.11,0,0,0-3.4-3.86l0,0c-.53-.54-1.07-1.05-1.62-1.54l-.31-.28c-.44-.39-.89-.76-1.33-1.11-.18-.15-.35-.29-.53-.42l-1.08-.81-.71-.5-.82-.53c-.3-.19-.6-.39-.9-.56l-.33-.18c-.4-.23-.81-.47-1.2-.67-11.31-5.69-24.28-.82-29.65,1.68-1,.44-1.7.82-2.12,1h0c.81.39,1.67.84,2.54,1.32l.45.26c.73.41,1.48.86,2.22,1.34l.62.42q1.11.75,2.19,1.62l.47.37a27.93,27.93,0,0,1,2.5,2.37c.22.24.42.51.63.75s.65.78.95,1.19.43.63.63.94.56.91.81,1.38.34.64.49,1a17,17,0,0,1,.75,2c.06.18.13.34.18.51a13.79,13.79,0,0,1,.45,5.34c-.77,7-6.65,13.37-10,28.25-2.24,10.05-5,22.29.45,33.58.36.75.77,1.44,1.18,2.13a33.23,33.23,0,0,0,3,4.29,46.35,46.35,0,0,0,3.27,3.63l.09.09.71.69q-1.18,7.74-1.8,15.65c-.29-.15-.58-.31-.87-.49l-.07,0a13.27,13.27,0,0,1-1.12-.82,27.49,27.49,0,0,1-5.7-6.8c-3.4-5.43-6.45-13-8.79-22v0c-.3,1.3-.62,2.81-.93,4.49v.07c-.15.81-.3,1.65-.44,2.54,0,.15,0,.31-.08.47-.11.72-.22,1.46-.32,2.23l-.09.66c-.21,1.67-.41,3.43-.55,5.29,0,.19,0,.4,0,.59-.1,1.36-.18,2.75-.22,4.2,0,.27,0,.56,0,.83q0,1.9,0,3.9c0,.51,0,1,0,1.53,0,1.27.11,2.56.22,3.87,0,.41.05.81.08,1.23q.24,2.55.63,5.19c0,.11,0,.22,0,.33.05.33.13.67.19,1,.19,1.16.4,2.33.65,3.5.12.58.25,1.16.39,1.73.24,1.07.52,2.14.81,3.21.18.65.35,1.29.55,1.94.32,1.06.67,2.12,1,3.19.22.63.43,1.26.66,1.89.56,1.49,1.18,3,1.85,4.48.07.17.13.35.21.52.21.47.46,1,.71,1.54,2.32,5.07,6.08,12.73,11.89,19.17.38.43.81.83,1.22,1.25.17,1,.34,2.09.52,3.14L141.74,613l3.4,3.39,1.12,1.11v0l1.31,1.31c21.28,96.31,107.14,168.35,209.84,168.35,103.81,0,190.42-73.59,210.52-171.44l1.48-1.47,1.27-1.27-.69-.69-1.17-1.17Q570.24,603.29,571.11,595.22Z" transform="translate(-113.02 -201.89)"/><path class="cls-4" d="M327.39,267.33h0a50.46,50.46,0,0,0-8.17,25.55c-.56,20.62,13.06,35.43,19,41.95a52.52,52.52,0,0,0,6.73,6.28c3.29,2.51,6.45,4.13,10.84,6.63l.37.21c.82.47,1.7,1,2.61,1.52l.5.3c2.21,1.32,4.74,2.9,7.66,4.88l.19.12c1.37.93,2.85,2,4.42,3.09a213.77,213.77,0,0,1,65.94,15c.34-.91.66-1.84,1-2.77.17-.55.34-1.11.49-1.67q.34-1.2.63-2.43c.13-.54.26-1.09.37-1.64.21-1.05.38-2.09.53-3.14.06-.47.12-.94.17-1.4.11-1,.18-2,.23-2.95,0-.27,0-.53,0-.8a36.9,36.9,0,0,0-.12-4.33c0-.29,0-.58-.07-.87-.06-.52-.14-1-.21-1.55s-.13-.82-.21-1.23-.16-.84-.26-1.25c-.13-.56-.26-1.11-.42-1.66l-.27-.94c-.11-.36-.23-.71-.36-1.06s-.28-.78-.44-1.17-.27-.67-.42-1-.34-.74-.52-1.1-.33-.67-.5-1c-.27-.49-.56-1-.86-1.45-.1-.15-.18-.32-.29-.48a50,50,0,0,0-6.23-7,23.91,23.91,0,0,1-5.49-7.48c-2.45-6.18,0-13.45,2.95-19v0h0c.37.87.82,1.85,1.32,2.88a63,63,0,0,0,9.58,14.47c9.43,10.61,18.74,13.37,28.55,17.39a81.84,81.84,0,0,1,10,4.8,85.7,85.7,0,0,1,23.73,21c1.46,1.87,2.85,3.75,4.09,5.67a43.82,43.82,0,0,1,7.26,24.53,41.38,41.38,0,0,1-.3,4.44c-.15,1.12-.36,2.2-.6,3.27-.07.32-.15.64-.23.95-.2.81-.43,1.61-.68,2.39-.08.25-.15.51-.23.75-.32.94-.69,1.86-1.08,2.76-.14.32-.28.63-.43.95-.34.74-.7,1.46-1.08,2.18-.07.14-.13.28-.21.41s-.08.14-.11.21l-.79,1.35c-.18.3-.35.6-.53.89s-.48.74-.73,1.12q5.93,5.57,11.4,11.57c.31-.18.59-.39.9-.57a18.31,18.31,0,0,1,2.6-1.13c3.45-1.18,6.55-1,10.15-1.44l.53-.07.61-.09.83-.15.55-.11,1-.22.53-.14c.34-.09.69-.2,1-.31l.55-.18c.36-.12.73-.27,1.11-.41l.56-.23c.39-.16.79-.35,1.19-.53l.59-.28c.39-.19.8-.42,1.21-.65l.62-.33a42,42,0,0,0,10.89-9.16v0h0q-.15,1.31-.3,2.79a117.51,117.51,0,0,0,.76,28.54c1.78,11.74,6.4,22.31,10.82,33.05a174.76,174.76,0,0,1,6.57,18,93.9,93.9,0,0,1,2.4,10.73c.07.37.16.75.22,1.13.2,1.31.34,2.63.49,3.94.08.71.19,1.42.26,2.13.1,1.11.14,2.21.21,3.32.05.93.14,1.87.17,2.81s0,1.82,0,2.74c0,1.14,0,2.28,0,3.42,0,.73-.08,1.45-.11,2.17-.07,1.34-.13,2.67-.25,4-.05.55-.13,1.1-.19,1.64-.15,1.51-.32,3-.54,4.51-.06.39-.14.79-.21,1.18-.23,1.43-.45,2.86-.74,4.28,0,.2-.1.4-.15.6,0,0,0,.1,0,.15-.13.62-.31,1.23-.45,1.85.26,2,.49,3.95.69,5.94.24-.16.48-.32.71-.49a25,25,0,0,0,5.26-5.31l0-.05c.35-.49.69-1,1-1.49,0-.08.09-.15.13-.22q.43-.69.81-1.41a3.9,3.9,0,0,0,.19-.35c.23-.44.45-.89.65-1.35l.21-.45c.18-.43.36-.87.52-1.31.07-.18.13-.35.19-.53.15-.42.29-.86.42-1.3,0-.19.11-.38.17-.57.11-.43.21-.86.31-1.29,0-.2.09-.41.13-.61.09-.43.15-.86.21-1.29,0-.21.07-.42.1-.64.05-.42.08-.84.11-1.27,0-.22,0-.44.05-.67,0-.41,0-.82,0-1.24,0-.23,0-.46,0-.7,0-.4-.05-.8-.08-1.2,0-.24,0-.49-.06-.73s-.11-.75-.17-1.12-.07-.54-.13-.8-.13-.53-.19-.8-.15-.68-.24-1a.07.07,0,0,1,0-.05c1.15,4.06,2.12,8.09,2.88,12.09,2,10.9,2.38,21.64-.08,32.46A70.24,70.24,0,0,1,580.8,578c-.72,1.72-1.5,3.4-2.33,5.06-.21.43-.46.85-.68,1.27-.61,1.18-1.23,2.35-1.89,3.5-.44.76-.92,1.5-1.38,2.24s-1,1.59-1.47,2.37-1.11,1.62-1.67,2.42l-.27.39q-.86,8.07-2.29,15.95l1.17,1.17.69.69-1.27,1.27-1.48,1.47c-20.1,97.85-106.71,171.44-210.52,171.44-102.7,0-188.56-72-209.84-168.35l-1.31-1.31v0l-1.12-1.11-3.4-3.39,3.91-3.91c-.18-1-.35-2.09-.52-3.14-.41-.42-.84-.82-1.22-1.25-5.81-6.44-9.57-14.1-11.89-19.17-.25-.53-.5-1.07-.71-1.54-.08-.17-.14-.35-.21-.52-.67-1.49-1.29-3-1.85-4.48-.23-.63-.44-1.26-.66-1.89-.37-1.07-.72-2.13-1-3.19-.2-.65-.37-1.29-.55-1.94-.29-1.07-.57-2.14-.81-3.21-.14-.57-.27-1.15-.39-1.73-.25-1.18-.46-2.34-.65-3.5-.06-.33-.14-.67-.19-1,0-.11,0-.21,0-.33q-.39-2.64-.63-5.19c0-.42-.05-.82-.08-1.23-.11-1.31-.18-2.6-.22-3.87,0-.51,0-1,0-1.53q0-2,0-3.9c0-.27,0-.56,0-.83,0-1.45.12-2.84.22-4.2,0-.19,0-.4,0-.59.14-1.86.34-3.62.55-5.29l.09-.66c.1-.77.21-1.51.32-2.23,0-.16,0-.32.08-.47.14-.89.29-1.73.44-2.54v-.07c.31-1.68.63-3.19.93-4.49v0c2.34,9,5.39,16.52,8.79,22a27.49,27.49,0,0,0,5.7,6.8,13.27,13.27,0,0,0,1.12.82l.07,0c.29.18.58.34.87.49q.62-7.9,1.8-15.65l-.71-.69-.09-.09a46.35,46.35,0,0,1-3.27-3.63,33.23,33.23,0,0,1-3-4.29c-.41-.69-.82-1.38-1.18-2.13-5.45-11.29-2.69-23.53-.45-33.58,3.34-14.88,9.22-21.23,10-28.25a13.79,13.79,0,0,0-.45-5.34c-.05-.17-.12-.33-.18-.51a17,17,0,0,0-.75-2c-.15-.33-.32-.65-.49-1s-.52-.93-.81-1.38-.4-.63-.63-.94-.62-.8-.95-1.19-.41-.51-.63-.75a27.93,27.93,0,0,0-2.5-2.37l-.47-.37q-1.08-.87-2.19-1.62l-.62-.42c-.74-.48-1.49-.93-2.22-1.34l-.45-.26c-.87-.48-1.73-.93-2.54-1.32h0c.42-.22,1.16-.6,2.12-1a44.14,44.14,0,0,1,17.88-4.33,26,26,0,0,1,11.77,2.65c.39.2.8.44,1.2.67l.33.18c.3.17.6.37.9.56l.82.53.71.5,1.08.81c.18.13.35.27.53.42.44.35.89.72,1.33,1.11l.31.28c.55.49,1.09,1,1.62,1.54l0,0a41.11,41.11,0,0,1,3.4,3.86c.5.66,1,1.34,1.46,2.05.14.2.25.42.38.63A214.79,214.79,0,0,1,192,435l-.31-.5c-.14-.22-.29-.5-.43-.73-.37-.62-.74-1.24-1.12-1.94a.35.35,0,0,1-.05-.08c-.46-.83-.92-1.71-1.38-2.63-.08-.16-.15-.33-.23-.49-.39-.8-.77-1.63-1.14-2.48l-.36-.84c-.33-.8-.65-1.62-1-2.46-.09-.26-.2-.5-.29-.77a40.24,40.24,0,0,1-1.92-16.37c.84-10.91,5.29-21.12,8.78-28.61l.85-1.83q1.44-3,3-5.86c.45-.81.92-1.55,1.37-2.33.61-1,1.22-2.1,1.85-3.09s1.13-1.7,1.7-2.55,1.09-1.62,1.64-2.39c.73-1,1.47-2,2.22-2.92.29-.38.58-.79.87-1.16.08-.1.17-.18.25-.28,1.06-1.33,2.13-2.58,3.2-3.79l.55-.63q1.86-2.07,3.69-3.91l0,0c2.54-2.54,5-4.79,7.3-6.71v0l0,0A47.05,47.05,0,0,0,218,360.86a44,44,0,0,0,.68,4.72c.06.31.14.61.21.92.26,1.22.56,2.43.91,3.62.13.45.29.88.44,1.32.34,1.05.71,2.08,1.12,3.1.2.48.41.95.61,1.42.43,1,.89,1.92,1.38,2.86.24.46.49.92.74,1.37.53.94,1.09,1.85,1.67,2.75.27.41.53.82.81,1.23.66.95,1.36,1.87,2.09,2.77.24.31.48.63.73.93q1.41,1.67,2.95,3.2l.19.21a48.4,48.4,0,0,0,3.64,3.22l.23.17a214,214,0,0,1,42.1-22.34h0c-.26-.38-.51-.78-.77-1.16s-.62-.94-.93-1.43l-.6-.94-.58-.92c-.4-.64-.78-1.3-1.15-2-.77-1.38-1.45-2.78-2.1-4.18-.11-.24-.2-.48-.31-.71-.51-1.15-1-2.31-1.4-3.46-.12-.32-.23-.63-.34-.95-.44-1.25-.83-2.5-1.18-3.76,0-.14-.09-.28-.12-.42-.38-1.41-.69-2.82-1-4.23-.05-.3-.09-.6-.14-.9-.19-1.09-.34-2.18-.46-3.27-.05-.43-.09-.86-.13-1.29-.09-1-.16-2.06-.19-3.09,0-.38,0-.75,0-1.13,0-1.37,0-2.73.06-4.1,0-.24,0-.49.06-.73.07-1.13.17-2.25.3-3.37.06-.46.12-.92.19-1.38.13-.93.28-1.87.46-2.8.08-.45.16-.9.25-1.35.25-1.16.52-2.31.82-3.45.05-.18.09-.37.14-.55.35-1.31.76-2.61,1.2-3.89.14-.41.29-.82.44-1.22.33-.92.67-1.83,1-2.73l.54-1.3c.42-1,.86-1.92,1.32-2.87.15-.31.28-.61.44-.92.61-1.23,1.27-2.45,2-3.65l.49-.84q.82-1.39,1.71-2.76l.75-1.13c.57-.84,1.16-1.67,1.76-2.49.16-.23.31-.46.48-.69l.23-.28c.9-1.19,1.83-2.36,2.8-3.49l.51-.58c.85-1,1.71-1.92,2.6-2.85l.78-.8a79.1,79.1,0,0,1,6.88-6.19l.63-.49q1.68-1.31,3.42-2.52l.38-.27q2-1.36,4.06-2.59l.28-.16c1.25-.73,2.52-1.42,3.8-2.08l.75-.37c1.39-.69,2.8-1.35,4.24-1.95a74.67,74.67,0,0,1,14.52-4.34M581.57,522.15h0m0,0,0,.05v0a.24.24,0,0,0,0-.08M327.4,256.43a11,11,0,0,0-2,.2,85.58,85.58,0,0,0-16.65,5c-1.53.63-3.08,1.35-4.91,2.25l-.71.36-.15.08c-1.52.77-3,1.57-4.36,2.38l-.34.2c-1.55.91-3.11,1.91-4.64,3l-.41.28q-2,1.39-3.94,2.9l-.18.14-.54.43a90.06,90.06,0,0,0-7.84,7.05c-.29.29-.58.59-.86.89q-1.59,1.65-3,3.27l-.11.12c-.16.18-.32.35-.47.53-1,1.22-2.08,2.52-3.1,3.86l-.36.46c-.18.23-.35.48-.52.73l-.07.09c-.66.91-1.34,1.87-2,2.8-.29.42-.58.85-.86,1.29-.65,1-1.3,2.06-1.95,3.16l-.14.22-.43.73c-.79,1.37-1.54,2.78-2.25,4.19l-.39.81-.11.24c-.56,1.15-1.05,2.23-1.51,3.31-.22.49-.42,1-.63,1.49-.41,1-.81,2-1.2,3.15l-.13.34c-.13.36-.26.71-.38,1.08-.55,1.6-1,3.08-1.39,4.51-.07.23-.12.45-.17.67-.34,1.28-.66,2.63-.94,4-.1.44-.18.88-.26,1.32l-.05.26c-.2,1.08-.38,2.18-.53,3.27l0,.16c-.07.49-.14,1-.2,1.46-.15,1.29-.27,2.62-.36,4v.07c0,.26,0,.53-.06.8-.08,1.55-.1,3.13-.07,4.84,0,.35,0,.68,0,1l0,.31c0,1.25.12,2.48.22,3.67,0,.51.1,1,.16,1.53.14,1.26.32,2.57.55,3.89l0,.19c0,.29.09.58.14.87.32,1.71.7,3.4,1.13,5,.05.19.11.39.17.59.4,1.43.86,2.9,1.38,4.38.11.32.22.63.34.94l.06.18c.51,1.37,1.07,2.75,1.67,4.11l.07.18.3.66.42.9a226.12,226.12,0,0,0-25.2,13.64l-.14-.17-.39-.5c-.65-.81-1.18-1.52-1.63-2.17l-.44-.66-.19-.3c-.5-.76-.93-1.46-1.31-2.15-.2-.35-.39-.71-.58-1.07-.36-.7-.72-1.45-1.07-2.24l-.06-.14q-.22-.48-.42-1c-.28-.69-.56-1.45-.87-2.41l-.19-.56-.16-.46c-.24-.81-.46-1.72-.69-2.8l-.18-.74,0-.07c-.23-1.21-.4-2.39-.5-3.51a36,36,0,0,1,2.47-16.3,10.9,10.9,0,0,0-10.16-14.84,10.21,10.21,0,0,0-1.55.12,10.84,10.84,0,0,0-5.45,2.42c-2.71,2.27-5.41,4.75-8,7.38l-.11.11c-1.31,1.32-2.66,2.75-4,4.24l-.48.55-.13.14c-1.23,1.39-2.36,2.73-3.44,4.07-.13.14-.24.28-.36.42-.24.3-.48.63-.73,1l-.23.31-.09.12c-.77,1-1.55,2-2.37,3.13-.47.66-.94,1.35-1.4,2l-.41.6L192,356c-.49.73-1,1.45-1.47,2.22s-1.13,1.84-1.68,2.79l-.37.63-.42.7c-.37.62-.74,1.24-1.1,1.89-1.19,2.16-2.3,4.35-3.3,6.49l-.87,1.87c-4.52,9.71-8.84,20.35-9.77,32.35a51.19,51.19,0,0,0,2.49,20.76c.1.32.22.62.35.93.36,1,.73,2,1.12,2.92.14.33.27.64.41,1,.46,1.07.91,2,1.36,3l.06.12.18.37c-1.32,1.69-2.6,3.4-3.87,5.12l-.53-.43-.65-.52c-.5-.39-1-.74-1.45-1.07l-.11-.08c-.27-.2-.53-.39-.8-.57l-1-.66-.1-.06-.16-.11-1-.65-.53-.29-.07,0c-.53-.3-1.06-.6-1.57-.86a36.79,36.79,0,0,0-16.66-3.81,54.56,54.56,0,0,0-22.48,5.35c-1.13.52-2,1-2.56,1.26a10.89,10.89,0,0,0,.32,19.48c.66.32,1.33.67,2,1l.37.22c.51.29,1.06.62,1.61,1l.45.3c.48.33,1,.69,1.46,1.09l.34.26,0,0a16.3,16.3,0,0,1,1.38,1.3l0,0,.39.48a6.89,6.89,0,0,1,.46.56l.2.31.08.12c.11.17.22.36.34.57s.16.3.21.41a7.3,7.3,0,0,1,.25.69l.15.44a3.12,3.12,0,0,1,0,1c-.16,1.41-1.28,3.84-2.57,6.65a95.52,95.52,0,0,0-7.22,20.39l0,.13c-1.4,6.28-3.1,13.91-2.95,22a10.92,10.92,0,0,0-6.69,7.73c-.36,1.6-.7,3.26-1,4.93l0,.11c-.15.86-.31,1.78-.47,2.75l-.06.36,0,.16c-.13.8-.24,1.61-.36,2.45v.12l-.09.62c-.26,2-.46,3.92-.61,5.83,0,.26,0,.48,0,.71-.11,1.59-.19,3.12-.23,4.61,0,.24,0,.48,0,.72v.2c0,1.4,0,2.86,0,4.33,0,.57,0,1.14,0,1.72,0,1.36.13,2.82.25,4.31l0,.38c0,.33,0,.66.07,1,.17,1.85.4,3.75.68,5.66,0,.18,0,.36.07.55s.12.66.18,1l0,.17c.23,1.37.47,2.66.73,3.9.13.59.26,1.19.4,1.78l0,.18c.28,1.19.58,2.41.92,3.63.2.73.4,1.46.62,2.19.4,1.34.85,2.64,1.19,3.62l.18.53c.18.54.37,1.08.57,1.63.61,1.63,1.29,3.29,2,4.94.1.27.21.51.32.76l.72,1.57a93.36,93.36,0,0,0,10.12,17.57,10.9,10.9,0,0,0,1.81,13.07l3.41,3.38.18.19a225.87,225.87,0,0,0,440.27-3.12l.46-.45a10.92,10.92,0,0,0,2-12.67c.47-3,.88-5.94,1.23-8.92l.53-.78c.44-.68.88-1.38,1.3-2.08l.34-.54.37-.6c.4-.64.79-1.27,1.17-1.92.76-1.32,1.43-2.6,2.12-3.91l.18-.34c.2-.37.4-.73.58-1.11,1-2,1.86-3.86,2.64-5.74a82,82,0,0,0,4.15-13c2.61-11.49,2.66-23.55.16-36.89-.8-4.22-1.84-8.61-3.12-13.07v0l-.07-.25a10.92,10.92,0,0,0-8.25-7.41c0-.22,0-.44-.05-.66,0-.57-.13-1.14-.2-1.71l-.09-.66-.07-.64c-.13-1.19-.27-2.42-.48-3.74-.05-.36-.12-.71-.19-1.07l0-.2a105.43,105.43,0,0,0-2.68-11.93,185,185,0,0,0-7-19.14l-1-2.45c-3.94-9.53-7.66-18.54-9.11-28.08a106.48,106.48,0,0,1-.69-25.88c.09-.9.18-1.74.27-2.53a10.56,10.56,0,0,0-.17-3.6,10.89,10.89,0,0,0-19-4.73c-.69.81-1.44,1.61-2.22,2.37a30.24,30.24,0,0,1-5.73,4.34l-.06,0-.41.22-.14.07c-.23.13-.46.26-.69.37l0,0-.36.16c-.24.12-.49.24-.74.34l-.14.06-.2.08-.67.25-.3.1L531,413l-.29.08-.57.13-.11,0-.2.05-.52.09-.23,0-.16,0h-.14l-.23,0c-.81.1-1.68.16-2.61.23a44.21,44.21,0,0,0-6.83.9l-.73-.75c.12-.27.24-.52.35-.78.53-1.25,1-2.4,1.37-3.52.1-.3.19-.59.28-.88l0-.12c.31-1,.61-2,.87-3,.1-.43.2-.84.29-1.26.34-1.53.59-2.86.76-4.18a49.2,49.2,0,0,0,.39-5.67,54.59,54.59,0,0,0-9-30.64c-1.3-2-2.78-4.07-4.66-6.48a88.11,88.11,0,0,0-38.19-29.16c-1.22-.5-2.43-1-3.64-1.46-8-3.18-14.33-5.69-20.9-13.09a52.32,52.32,0,0,1-7.93-12c-.42-.88-.8-1.71-1.1-2.41a10.68,10.68,0,0,0-2.27-3.39,10.93,10.93,0,0,0-7.29-3.24h-.48a10.88,10.88,0,0,0-9.62,5.8c-5.47,10.31-6.66,20-3.45,28.13A34,34,0,0,0,422,337.6l1.2,1.21a34.63,34.63,0,0,1,3.63,4c.08.14.15.27.23.39.19.3.37.58.53.88.05.09.1.2.15.31l.15.3c.12.25.23.46.33.68l.27.65c.09.24.19.49.27.74s.16.45.23.68.11.35.15.52l0,.12c.12.41.21.77.3,1.14s.12.54.17.82.1.59.14.87.11.71.15,1.06l0,.25,0,.38a26.23,26.23,0,0,1,.09,3v.08c0,.21,0,.42,0,.63,0,.7-.09,1.4-.16,2.06A224.92,224.92,0,0,0,375.4,347.2l-2.13-1.45-.16-.11c-2.83-1.91-5.5-3.61-8.2-5.23l-.37-.21-.14-.09c-1-.59-1.92-1.13-2.79-1.62l-.26-.15-.12-.06-2.44-1.39a58.49,58.49,0,0,1-7.18-4.45,40.46,40.46,0,0,1-5.31-5c-5.41-5.89-16.62-18.1-16.19-34.29a39.06,39.06,0,0,1,6.47-20h0l0-.05a10.9,10.9,0,0,0-9.21-16.71Zm0,21.8h0Z" transform="translate(-113.02 -201.89)"/><path class="cls-3" d="M356.21,243.53c-6.95,19-22.45,37.07-15.89,58.42,2.72,8.88,8.85,15.89,15.89,21.76,2.67,2.25,5.46,4.32,8.25,6.27,1.12.78,4.44,3.31,8.5,6.22,2.86,2.07,6.08,4.32,9.1,6.3h.05c5.28,3.42,10,5.92,11.24,4.91,2.2-1.81-5.8-15.77-6.53-18-3.45-10.52-1.93-22,1.14-32.51,4.23-14.51,13.53-28.66,14.36-44.27.84-15.87-9.51-31.75-24.35-37.51a24.68,24.68,0,0,0-3-1,43.36,43.36,0,0,0-12.81-1.33h0c-.86,0-1.35.09-1.35.09a39.59,39.59,0,0,0-11.15,2.66l-.21.09a20.11,20.11,0,0,1,6.68,7.13,1,1,0,0,1,.09.18c3.68,7,1.9,14.86.71,18.52C356.69,242.18,356.46,242.85,356.21,243.53Z" transform="translate(-113.02 -201.89)"/><path class="cls-4" d="M364.05,212.79A42.62,42.62,0,0,1,375,214.16a24.68,24.68,0,0,1,3,1c14.84,5.76,25.19,21.64,24.35,37.51-.83,15.61-10.13,29.76-14.36,44.27-3.07,10.49-4.59,22-1.14,32.51.73,2.24,8.73,16.2,6.53,18a1.21,1.21,0,0,1-.8.23c-1.9,0-6-2.24-10.44-5.14h-.05c-3-2-6.24-4.23-9.1-6.3-4.06-2.91-7.38-5.44-8.5-6.22-2.79-2-5.58-4-8.25-6.27-7-5.87-13.17-12.88-15.89-21.76-6.56-21.35,8.94-39.38,15.89-58.42.25-.68.48-1.35.71-2,1.19-3.66,3-11.48-.71-18.52a.76.76,0,0,0-.09-.18,20.11,20.11,0,0,0-6.68-7.13l.21-.09a39.59,39.59,0,0,1,11.15-2.66s.49-.06,1.35-.09h0c.51,0,1.14,0,1.88,0m0-10.9c-.87,0-1.63,0-2.25.05h-.11c-1,0-1.74.11-2,.13a50.84,50.84,0,0,0-14.12,3.39l-.15.07c-.29.11-.58.24-.87.38a10.9,10.9,0,0,0-1.18,18.84,9.24,9.24,0,0,1,3,3.1l.09.18c1.81,3.46.65,8.12,0,10-.19.57-.39,1.14-.6,1.7a144.07,144.07,0,0,1-6.61,14.57c-7.26,14.63-15.49,31.21-9.47,50.82,3,9.77,9.31,18.58,19.33,26.93,2.52,2.12,5.39,4.31,9,6.83.44.31,1.23.9,2.28,1.67,1.6,1.19,3.73,2.76,6.1,4.47,3.57,2.57,6.78,4.79,9.51,6.57l.53.32c7.49,4.81,11.83,6.61,15.92,6.61a12,12,0,0,0,7.68-2.68c7.22-5.94,3.59-15.19,2.4-18.23-1.27-3.22-3-6.78-4.31-9.37-.43-.86-1-2-1.23-2.52-2.17-6.9-1.74-15.34,1.33-25.79A136.93,136.93,0,0,1,404,285.31c4.21-10,8.57-20.28,9.21-32.1,1.08-20.5-12.09-40.79-31.3-48.25a35.52,35.52,0,0,0-4.17-1.34,53.61,53.61,0,0,0-13.69-1.73Z" transform="translate(-113.02 -201.89)"/><circle class="cls-5" cx="244.72" cy="370.41" r="214.92"/><path class="cls-4" d="M569.78,597.56q-3,4.07-6.34,7.92l4.79,4.79L571,613l-4.39,4.36-.14.14-28.86,28.89L408.49,775.55a216.21,216.21,0,0,1-104.7-.8L149.63,620.58l-3-3.05-4.52-4.5,5.23-5.23c-.24-.22-.45-.41-.66-.62-.85-.78-1.65-1.6-2.41-2.45-6.41-7.12-10.35-15.75-12.59-20.7-11.08-24.34-7.1-48.42-4.69-58.89,3.82,14.69,9.57,25.59,15.61,29.57l.57.36a8.37,8.37,0,0,0,4.62,1.29c2.76-.07,6.2-1.74,7-4.43,1.27-4-4.44-7.33-10.19-13l-.1-.09a36.87,36.87,0,0,1-7.42-10.05c-5.45-11.29-2.69-23.53-.45-33.58,4.15-18.48,12.24-23.81,9.55-33.6-2.22-8-9.93-12.78-15.45-15.42,2.81-1.46,18.47-9.41,31.77-2.71a37.55,37.55,0,0,1,12.26,10.47c.49.66,1,1.34,1.46,2.05a39.62,39.62,0,0,1,3.09,5.61c1.74,4.06,2.45,7.85,6.34,12.26,2.08,2.36,5.9,6.68,10,6.37,7.59-.64,15.35-17.31,10.9-28.16-2.06-4.95-5-4.83-10.9-12.26a55.93,55.93,0,0,1-3.58-5.26c-.52-.84-1.06-1.76-1.61-2.75a60.62,60.62,0,0,1-4.34-9.67c-6-17.48,2.53-35.75,7.72-46.81a103.92,103.92,0,0,1,27.66-35.66,47.12,47.12,0,0,0-3.16,21.2,49.18,49.18,0,0,0,14.81,30.71c1.08,1,2.19,2,3.37,2.94a44.78,44.78,0,0,0,12.85,7.22c7.26,2.62,15.07,3.39,22.52,5.45s14.95,5.82,18.84,12.47c-.78-1.34,2.36-9,2.62-11.13,1.91-16.39-6.7-24.76-14.5-36.2-1-1.41-1.94-2.87-2.88-4.43-.4-.64-.78-1.3-1.16-2-20-36,3.16-79.61,38.39-94.23a74.93,74.93,0,0,1,14.53-4.34,50.55,50.55,0,0,0-8.18,25.54c-.54,20.63,13.06,35.44,19,42,6.67,7.24,10.54,8.87,18,13.11,1.88,1.06,4,2.31,6.41,3.87,2.78,1.72,6,3.87,9.76,6.6h0c2.69,1.94,5.66,4.18,9,6.77,10.28,8,24.69,18.84,23,33.65-.15,1.2-.36,2.53.35,3.54,5.8,8.18,21.77-10.71,25-15a55.9,55.9,0,0,0,7.5-13.7,51.54,51.54,0,0,0,1.91-5.83A49.44,49.44,0,0,0,441.29,356a33.06,33.06,0,0,0-5-19.1c-3.35-5.05-9.41-8.73-11.72-14.43-2.46-6.18,0-13.45,2.94-19a64.37,64.37,0,0,0,10.92,17.36C451.05,335,463.41,335.17,477,343a86,86,0,0,1,27.82,26.67,43,43,0,0,1,7,29,38.12,38.12,0,0,1-4.53,13.65,48.73,48.73,0,0,1-2.83,4.58,87.57,87.57,0,0,1-6.58,8.32c-5.63,6.44-15.73,16.22-11.76,25.77,1.67,4,5.87,7.53,9.55,7.22,8.49-.68,7.38-21.46,19.78-30.07a16.13,16.13,0,0,1,2-1.25,18.31,18.31,0,0,1,2.6-1.13c6.39-2.19,11.53.31,21-5.14a41.66,41.66,0,0,0,10.89-9.15,117.31,117.31,0,0,0,.45,31.34c2.76,18.16,12.33,33.53,17.4,51.05a100.93,100.93,0,0,1,1.53,48.75c-.4,2-.87,3.93-1.41,5.89-.33,1.2-.68,2.41-1,3.59.45-.24.9-.5,1.35-.76.63-.38,1.22-.78,1.81-1.2v0c8.47-6.14,12.78-17.83,9.88-28,5.4,18.91,7,37.12-.78,55.82a91.08,91.08,0,0,1-10.51,18.46C570.32,596.81,570.06,597.18,569.78,597.56Z" transform="translate(-113.02 -201.89)"/><path class="cls-4" d="M509.42,631.05a44.37,44.37,0,0,1-9.15,22.79A45.69,45.69,0,0,1,480.53,668c-7.2,2.9-13.21,3.42-18.92,3.91-10.07.87-13.39-.59-24.57-.21a118.22,118.22,0,0,0-17.49,1.88A98.91,98.91,0,0,1,430,651.48c4.46-7,8.63-13.6,16.69-19.32a54.37,54.37,0,0,1,20.45-8.63c6.63-1.53,21.63-5,35.48,2.68A37.73,37.73,0,0,1,509.42,631.05Z" transform="translate(-113.02 -201.89)"/><path class="cls-6" d="M418.89,674.14l.24-.71a99.64,99.64,0,0,1,10.48-22.19c4.47-7,8.68-13.67,16.81-19.44A55.25,55.25,0,0,1,467,623.09c6.52-1.5,21.79-5,35.79,2.73a37.66,37.66,0,0,1,6.89,4.9l.17.15,0,.23a44.69,44.69,0,0,1-9.24,23,46.19,46.19,0,0,1-19.93,14.28c-7.26,2.93-13.25,3.45-19.05,4a76.68,76.68,0,0,1-12.81,0,112.34,112.34,0,0,0-11.78-.24A120.51,120.51,0,0,0,419.63,674Zm64-52.26A68.49,68.49,0,0,0,467.23,624a53.62,53.62,0,0,0-20.29,8.56c-8,5.67-12.16,12.24-16.58,19.2A98.92,98.92,0,0,0,420.21,673,119.45,119.45,0,0,1,437,671.24a113.66,113.66,0,0,1,11.86.24,76.34,76.34,0,0,0,12.69,0c5.73-.49,11.65-1,18.79-3.88a45.44,45.44,0,0,0,19.56-14,43.75,43.75,0,0,0,9-22.34,36.85,36.85,0,0,0-6.56-4.63A39.85,39.85,0,0,0,482.91,621.88Z" transform="translate(-113.02 -201.89)"/><path class="cls-6" d="M388.7,628.63q1,16.26,2,32.54a2.81,2.81,0,0,0,.58,1.13,2.88,2.88,0,0,0,2.45.91c1-.15,1.69-1.18,3-3.22l2.88-4.57a188,188,0,0,1,15.26-23.29c.16-.22.35-.47.6-.78.66-.86,1.36-1.72,2.08-2.59l-.37-26.62c-1.46,1.07-3,2.19-4.49,3.38A161.7,161.7,0,0,0,388.7,628.63Z" transform="translate(-113.02 -201.89)"/><path class="cls-6" d="M442.84,586.69a222.52,222.52,0,0,0-20.51,11.85l.33,24.27c4.91-5.4,10-10.51,14-14.33l11.56-24.57C446.55,584.77,444.73,585.68,442.84,586.69Z" transform="translate(-113.02 -201.89)"/><path class="cls-6" d="M475.53,572.6c-.93.31-5.92,2-10.82,3.95-1.82.72-5.71,2.29-10.92,4.7l-9.5,20.21a468.24,468.24,0,0,1,41.17-32.06C482.76,570.22,479.37,571.28,475.53,572.6Z" transform="translate(-113.02 -201.89)"/><polygon class="cls-7" points="271.88 443.01 271.88 463.96 256.9 471.63 271.88 443.01"/><path class="cls-4" d="M203.65,631.05a44.19,44.19,0,0,0,9.15,22.79A45.63,45.63,0,0,0,232.54,668c7.19,2.9,13.21,3.42,18.92,3.91,10.06.87,13.39-.59,24.57-.21a118.55,118.55,0,0,1,17.49,1.88,99.81,99.81,0,0,0-10.44-22.09c-4.47-7-8.64-13.6-16.7-19.32a54.37,54.37,0,0,0-20.45-8.63c-6.63-1.53-21.63-5-35.48,2.68A37.23,37.23,0,0,0,203.65,631.05Z" transform="translate(-113.02 -201.89)"/><path class="cls-6" d="M294.17,674.14l-.73-.14A120.8,120.8,0,0,0,276,672.13a112.14,112.14,0,0,0-11.77.24,76.8,76.8,0,0,1-12.82,0c-5.79-.5-11.78-1-19-4a46.18,46.18,0,0,1-19.92-14.28,44.69,44.69,0,0,1-9.25-23l0-.23.17-.15a38.35,38.35,0,0,1,6.89-4.9c14-7.74,29.27-4.23,35.79-2.73a55.18,55.18,0,0,1,20.61,8.71c8.13,5.77,12.35,12.41,16.81,19.44a99.88,99.88,0,0,1,10.49,22.19Zm-21.82-3c1.13,0,2.35,0,3.69.06A119.59,119.59,0,0,1,292.86,673a98.7,98.7,0,0,0-10.16-21.28c-4.41-7-8.59-13.52-16.57-19.2a53.65,53.65,0,0,0-20.3-8.56c-6.42-1.48-21.46-4.94-35.16,2.64a37.59,37.59,0,0,0-6.56,4.63,43.81,43.81,0,0,0,9,22.34,45.44,45.44,0,0,0,19.56,14c7.14,2.87,13.07,3.39,18.79,3.88a76.33,76.33,0,0,0,12.69,0C266.63,671.33,269.13,671.18,272.35,671.18Z" transform="translate(-113.02 -201.89)"/><path class="cls-7" d="M478.19,637.85a24.62,24.62,0,0,0-4.79-9.42,26,26,0,0,0-3.65-3.62c-16.45,6.68-31.16,16.18-40.58,29.69.12.25.24.5.37.74a26.17,26.17,0,0,0,23.32,13.86,26.69,26.69,0,0,0,10.65-2.19,25.1,25.1,0,0,0,15.45-23A23.59,23.59,0,0,0,478.19,637.85Z" transform="translate(-113.02 -201.89)"/><path class="cls-8" d="M478.19,637.85a25.77,25.77,0,0,0-6.71-1.46,26.92,26.92,0,0,0-4,0,22.58,22.58,0,0,1,.08,5.59c-.24,2.2-.72,6.68-4,10.44s-7.19,4.69-9.57,5.29a24.23,24.23,0,0,1-14.18-.88,17.49,17.49,0,0,0,3.95,3.85A18.07,18.07,0,0,0,454,663.89c-.81.12-2,.28-3.51.45-2.35.24-3,.24-3,.43-.07.47,3.39,1.76,7.27,2.21,5.12.58,8.58-.59,8.74-.07a26.69,26.69,0,0,1-10.65,2.19,26.17,26.17,0,0,1-23.32-13.86,22.25,22.25,0,0,1-1.26-2.81c.78-1.32,1.72-2.84,2.81-4.48a75.08,75.08,0,0,1,14.53-16.33,64.94,64.94,0,0,1,18-10.57,25.68,25.68,0,0,1,9.74,7.38A24.62,24.62,0,0,1,478.19,637.85Z" transform="translate(-113.02 -201.89)"/><path class="cls-9" d="M464.59,646.36a13,13,0,0,1-25.17,1.43,12.49,12.49,0,0,1-.37-1.52c.5-.6,1.1-1.28,1.77-2a38.12,38.12,0,0,1,8.55-7,32.1,32.1,0,0,1,9.76-3.77,13,13,0,0,1,4.11,4.55A12.81,12.81,0,0,1,464.59,646.36Z" transform="translate(-113.02 -201.89)"/><path class="cls-7" d="M234.87,637.85a24.5,24.5,0,0,1,4.8-9.42,25,25,0,0,1,3.65-3.62c16.44,6.68,31.15,16.18,40.57,29.69-.12.25-.24.5-.37.74a26.16,26.16,0,0,1-23.31,13.86,26.69,26.69,0,0,1-10.65-2.19,25.09,25.09,0,0,1-15.46-23A24,24,0,0,1,234.87,637.85Z" transform="translate(-113.02 -201.89)"/><path class="cls-8" d="M234.87,637.85a25.77,25.77,0,0,1,6.71-1.46,27.07,27.07,0,0,1,4,0,22,22,0,0,0-.09,5.59c.24,2.2.73,6.68,4,10.44s7.18,4.69,9.56,5.29a24.22,24.22,0,0,0,14.18-.88,17.42,17.42,0,0,1-3.94,3.85,18.12,18.12,0,0,1-10.24,3.18c.81.12,2,.28,3.52.45,2.34.24,2.94.24,3,.43.07.47-3.4,1.76-7.28,2.21-5.11.58-8.58-.59-8.73-.07a26.69,26.69,0,0,0,10.65,2.19,26.16,26.16,0,0,0,23.31-13.86,20.91,20.91,0,0,0,1.26-2.81c-.77-1.32-1.72-2.84-2.81-4.48a75,75,0,0,0-14.52-16.33,65.13,65.13,0,0,0-18-10.57,25.64,25.64,0,0,0-9.73,7.38A24.5,24.5,0,0,0,234.87,637.85Z" transform="translate(-113.02 -201.89)"/><path class="cls-9" d="M248.48,646.36a13,13,0,0,0,25.16,1.43,10.87,10.87,0,0,0,.37-1.52c-.5-.6-1.1-1.28-1.77-2a37.9,37.9,0,0,0-8.55-7,32,32,0,0,0-9.76-3.77,13,13,0,0,0-4.11,4.55A12.75,12.75,0,0,0,248.48,646.36Z" transform="translate(-113.02 -201.89)"/><path class="cls-4" d="M469.26,642.87a16,16,0,0,1-.63,7.22,15.1,15.1,0,0,1-6.56,8.15A14.61,14.61,0,0,1,451.43,660a27.94,27.94,0,0,0,6.8,1.68c.76.09,1.49.15,2.19.17a8.16,8.16,0,0,1-2.19,1.51,12,12,0,0,1-2,.68,15.07,15.07,0,0,0,9.23-1.43,17.94,17.94,0,0,0,8.2-9,20.32,20.32,0,0,0,1.5-10.06Z" transform="translate(-113.02 -201.89)"/><path class="cls-4" d="M459.7,656a8.58,8.58,0,0,0,2.48-1.29,10.67,10.67,0,0,0,3.61-5.5l-7.89-.9Z" transform="translate(-113.02 -201.89)"/><path class="cls-4" d="M243.94,642.87a16,16,0,0,0,.63,7.22,15.06,15.06,0,0,0,6.57,8.15A14.58,14.58,0,0,0,261.77,660a27.94,27.94,0,0,1-6.8,1.68c-.76.09-1.49.15-2.19.17a8.16,8.16,0,0,0,2.19,1.51,12,12,0,0,0,2,.68,15.07,15.07,0,0,1-9.23-1.43,17.94,17.94,0,0,1-8.2-9,20.32,20.32,0,0,1-1.5-10.06Z" transform="translate(-113.02 -201.89)"/><path class="cls-4" d="M253.5,656a8.71,8.71,0,0,1-2.48-1.29,10.67,10.67,0,0,1-3.61-5.5l7.89-.9Z" transform="translate(-113.02 -201.89)"/><path class="cls-6" d="M471.52,605.43a142.85,142.85,0,0,0-36.43,18.88c1.15-1.6,2.34-3.21,3.61-4.81A129.14,129.14,0,0,1,461.84,597a.89.89,0,1,0-1.07-1.41,130.34,130.34,0,0,0-23.46,22.85c-17.07,21.51-23,43.19-27.4,59a217.5,217.5,0,0,0-6.07,30.38.88.88,0,0,0,.77,1h.11a.89.89,0,0,0,.88-.78,215.68,215.68,0,0,1,6-30.13c2.63-9.56,5.87-21.28,11.8-33.77a84.43,84.43,0,0,1,9-11.86,94.37,94.37,0,0,1,12.23-11,117.14,117.14,0,0,1,27-15.41.22.22,0,0,0,.12-.28A.21.21,0,0,0,471.52,605.43Z" transform="translate(-113.02 -201.89)"/><path class="cls-6" d="M275.76,618.4a130.67,130.67,0,0,0-23.46-22.85.89.89,0,1,0-1.08,1.41,128.81,128.81,0,0,1,23.14,22.54c1.27,1.6,2.46,3.21,3.61,4.81a142.85,142.85,0,0,0-36.43-18.88.22.22,0,0,0-.28.13.22.22,0,0,0,.13.28,117.35,117.35,0,0,1,27,15.41,94.77,94.77,0,0,1,12.22,11,84.43,84.43,0,0,1,9,11.86c5.93,12.49,9.17,24.21,11.8,33.77a215.39,215.39,0,0,1,6,30.13.89.89,0,0,0,.88.78h.11a.88.88,0,0,0,.77-1,217.21,217.21,0,0,0-6.07-30.38C298.79,661.59,292.82,639.9,275.76,618.4Z" transform="translate(-113.02 -201.89)"/><path class="cls-6" d="M520.83,633.47c-.32.9-1.32,1.42-3.24,2.43a19.56,19.56,0,0,1-5.86,1.94c-6.42-7.13-15-10.2-24.41-10.72a59.88,59.88,0,0,0-13.3.78,70.58,70.58,0,0,0-7.55,1.76,73.87,73.87,0,0,0-37.69,25.9c-.21.27-.39.52-.53.73A87.4,87.4,0,0,0,422,667c-1.88,3.92-2.7,6.52-2.86,6.52s1.6-7.54,5.51-15.59c.41-.85,1.37-2.74,2.86-5.26.8-1.37,1.78-2.94,2.9-4.63a77.55,77.55,0,0,1,15-16.85A67.16,67.16,0,0,1,464,620.29a57,57,0,0,1,27.89-3.55c3.08.41,12.18,1.37,20.91,7.22C513.72,624.6,522,630.23,520.83,633.47Z" transform="translate(-113.02 -201.89)"/><path class="cls-6" d="M419.11,674.08l-.21,0-.22-.09-.1-.24c-.28-.72,1.9-8.53,5.54-16,.25-.52,1.21-2.47,2.88-5.3.84-1.44,1.83-3,2.92-4.64a78,78,0,0,1,15.09-17,67.73,67.73,0,0,1,18.77-11,57.74,57.74,0,0,1,28.16-3.58l.45,0c3.35.44,12.25,1.59,20.7,7.26,2.88,2,9.45,6.84,8.26,10.15h0c-.39,1.11-1.47,1.68-3.44,2.71a20.22,20.22,0,0,1-6.1,2l-.3,0-.2-.22c-5.79-6.44-13.88-10-24-10.53a58.31,58.31,0,0,0-13.18.77,68.39,68.39,0,0,0-7.49,1.75,73,73,0,0,0-37.39,25.7,5.94,5.94,0,0,0-.52.7,86.88,86.88,0,0,0-6.24,10.63c-1.09,2.27-1.83,4.12-2.27,5.23C419.62,673.89,419.55,674.08,419.11,674.08ZM485,616.85a58.33,58.33,0,0,0-20.84,4,65.88,65.88,0,0,0-18.46,10.8,77.19,77.19,0,0,0-14.88,16.73c-1.08,1.63-2,3.18-2.88,4.6-1.65,2.79-2.59,4.7-2.84,5.22a84.18,84.18,0,0,0-3.36,8,87,87,0,0,1,6-10.19c.14-.22.33-.48.55-.76a74.29,74.29,0,0,1,38-26.09,67.42,67.42,0,0,1,7.62-1.77,58.77,58.77,0,0,1,13.42-.79c10.33.56,18.6,4.15,24.59,10.67a19.16,19.16,0,0,0,5.4-1.83c1.77-.94,2.72-1.44,3-2.13h0c.71-2-3.42-5.88-7.83-8.86-8.23-5.52-17-6.65-20.23-7.07l-.44-.06A52.52,52.52,0,0,0,485,616.85Z" transform="translate(-113.02 -201.89)"/><path class="cls-6" d="M419.11,674.41l-.32-.06-.36-.14-.16-.38c-.4-1,2.14-9.27,5.55-16.29.25-.53,1.21-2.48,2.9-5.33.83-1.42,1.81-3,2.92-4.66a78.1,78.1,0,0,1,15.16-17,67.62,67.62,0,0,1,18.86-11,58.19,58.19,0,0,1,28.33-3.6l.44,0c3.37.44,12.32,1.6,20.84,7.31,3.66,2.49,9.6,7.16,8.4,10.55-.44,1.22-1.56,1.81-3.59,2.88a20.72,20.72,0,0,1-6.22,2.07l-.47.07-.32-.36c-5.74-6.36-13.74-9.87-23.8-10.42a58.71,58.71,0,0,0-13.1.77,69.42,69.42,0,0,0-7.45,1.73,72.85,72.85,0,0,0-37.22,25.58,8.24,8.24,0,0,0-.52.7,86.78,86.78,0,0,0-6.21,10.59c-1.08,2.26-1.82,4.1-2.26,5.2C419.92,674.06,419.78,674.41,419.11,674.41ZM485,617.18a58,58,0,0,0-20.72,3.94,65.76,65.76,0,0,0-18.37,10.76,76.31,76.31,0,0,0-14.81,16.66c-1.09,1.64-2.06,3.18-2.87,4.57-1.65,2.79-2.58,4.69-2.83,5.2-.46,1-.89,1.89-1.29,2.81,1-1.66,2.12-3.53,3.39-5.34.14-.21.33-.48.56-.77a74.67,74.67,0,0,1,38.13-26.2,71.49,71.49,0,0,1,7.66-1.78,60.51,60.51,0,0,1,13.5-.8c10.35.57,18.65,4.15,24.69,10.65a19.07,19.07,0,0,0,5.13-1.77c1.7-.89,2.6-1.37,2.8-1.94h0c.55-1.53-2.62-5-7.71-8.48-8.17-5.47-16.83-6.59-20.08-7l-.45-.06A51.75,51.75,0,0,0,485,617.18Z" transform="translate(-113.02 -201.89)"/><path class="cls-6" d="M419.11,675l-.42-.06-.69-.26-.24-.6c-.55-1.36,2.42-10.28,5.56-16.74.17-.37,1.13-2.35,2.92-5.37.83-1.43,1.82-3,2.93-4.68a78.9,78.9,0,0,1,15.28-17.18,68.11,68.11,0,0,1,19-11.12,58.53,58.53,0,0,1,28.6-3.64l.43.05c3.44.45,12.48,1.63,21.09,7.4,4.63,3.15,9.88,7.64,8.61,11.19-.51,1.43-1.77,2.1-3.85,3.19a21.86,21.86,0,0,1-6.39,2.13l-.77.12-.53-.59c-5.63-6.25-13.5-9.69-23.41-10.24a58.26,58.26,0,0,0-13,.76,70.64,70.64,0,0,0-7.39,1.73,72.28,72.28,0,0,0-36.93,25.37,8.21,8.21,0,0,0-.49.67,83.66,83.66,0,0,0-6.17,10.53c-1.08,2.23-1.81,4.06-2.25,5.15C420.4,674.33,420.15,675,419.11,675Zm-.26-1.18.29.07c.22,0,.28-.06.84-1.46.46-1.14,1.2-3,2.29-5.25a88.36,88.36,0,0,1,6.26-10.67c.13-.2.3-.44.53-.73A73.43,73.43,0,0,1,466.56,630a70.4,70.4,0,0,1,7.51-1.75,60.6,60.6,0,0,1,13.23-.78c10.21.56,18.34,4.13,24.18,10.61l.12.14.18,0a20.51,20.51,0,0,0,6-2c2-1.08,3-1.6,3.32-2.58.8-2.22-2.19-5.82-8.18-9.9-8.39-5.62-17.25-6.78-20.58-7.21l-.46-.06A57.75,57.75,0,0,0,463.86,620a67.24,67.24,0,0,0-18.71,10.95,77.82,77.82,0,0,0-15,16.93c-1.1,1.66-2.08,3.22-2.9,4.64-1.77,3-2.71,4.92-2.88,5.28-3.54,7.3-5.73,15-5.53,15.86Zm5.76-12.38-1-.5c.4-.93.84-1.87,1.3-2.83.1-.2,1-2.15,2.85-5.24.8-1.37,1.77-2.92,2.88-4.6a77.13,77.13,0,0,1,14.92-16.78A66.75,66.75,0,0,1,464.1,620.6a58.27,58.27,0,0,1,20.92-4,51.25,51.25,0,0,1,6.81.45l.43.06c3.3.42,12.05,1.55,20.33,7.1,4.09,2.79,8.58,6.79,8,9l0,.1c-.28.79-1.21,1.28-3.07,2.25a19.78,19.78,0,0,1-5.29,1.83l-.31.06-.2-.23c-5.93-6.39-14.1-9.91-24.31-10.47a60.58,60.58,0,0,0-13.38.78,71.53,71.53,0,0,0-7.59,1.78,74,74,0,0,0-37.84,26c-.23.29-.42.55-.55.75C426.86,657.68,425.73,659.47,424.61,661.4ZM485,617.73a57.27,57.27,0,0,0-20.53,3.91,65.26,65.26,0,0,0-18.21,10.67,75.84,75.84,0,0,0-14.7,16.53q-1.43,2.16-2.51,4a75.72,75.72,0,0,1,37-24.54,70.79,70.79,0,0,1,7.71-1.8,61.6,61.6,0,0,1,13.63-.8c10.38.57,18.74,4.13,24.85,10.6a18.63,18.63,0,0,0,4.69-1.67,7.9,7.9,0,0,0,2.52-1.6v0c.32-.91-1.79-3.93-7.5-7.83-8.06-5.4-16.62-6.5-19.84-6.92l-.45-.06A50.68,50.68,0,0,0,485,617.73Z" transform="translate(-113.02 -201.89)"/><path class="cls-6" d="M192.23,633.47c.32.9,1.32,1.42,3.24,2.43a19.61,19.61,0,0,0,5.87,1.94c6.41-7.13,15-10.2,24.4-10.72a59.84,59.84,0,0,1,13.3.78,70.76,70.76,0,0,1,7.56,1.76,73.88,73.88,0,0,1,37.68,25.9c.22.27.4.52.54.73A86.57,86.57,0,0,1,291.09,667c1.89,3.92,2.71,6.52,2.87,6.52s-1.6-7.54-5.52-15.59c-.4-.85-1.36-2.74-2.86-5.26-.8-1.37-1.78-2.94-2.9-4.63a77.29,77.29,0,0,0-15-16.85,67.25,67.25,0,0,0-18.61-10.9,57.06,57.06,0,0,0-27.9-3.55c-3.07.41-12.18,1.37-20.9,7.22C199.34,624.6,191.08,630.23,192.23,633.47Z" transform="translate(-113.02 -201.89)"/><path class="cls-6" d="M294.06,674.08H294c-.44,0-.51-.19-1.08-1.61-.45-1.1-1.19-3-2.28-5.24a87,87,0,0,0-6.23-10.62,8.09,8.09,0,0,0-.51-.7,73.11,73.11,0,0,0-37.41-25.71,68,68,0,0,0-7.5-1.75,58.22,58.22,0,0,0-13.17-.77c-10.14.55-18.23,4.09-24,10.53l-.2.22-.3,0a20.46,20.46,0,0,1-6-2c-2-1.07-3.11-1.64-3.5-2.75h0c-1.18-3.31,5.39-8.2,8.26-10.15,8.46-5.67,17.36-6.82,20.7-7.26l.45,0a57.63,57.63,0,0,1,28.16,3.58,67.49,67.49,0,0,1,18.77,11,78,78,0,0,1,15.1,17c1.1,1.66,2.08,3.23,2.91,4.64,1.67,2.83,2.63,4.78,2.88,5.31,3.65,7.49,5.83,15.3,5.54,16l-.09.23Zm-65.15-47.6a60.39,60.39,0,0,1,10.22.88,67.92,67.92,0,0,1,7.62,1.77,74.2,74.2,0,0,1,38,26.11c.21.26.4.52.55.75a88,88,0,0,1,6,10.2,82.1,82.1,0,0,0-3.37-8c-.25-.52-1.19-2.43-2.84-5.22-.82-1.41-1.79-3-2.88-4.6a76.93,76.93,0,0,0-14.88-16.73,65.88,65.88,0,0,0-18.46-10.8,56.71,56.71,0,0,0-27.61-3.53l-.45.06c-3.28.42-12,1.55-20.22,7.07-4.41,3-8.55,6.88-7.84,8.86h0c.24.69,1.19,1.19,2.91,2.1a19.17,19.17,0,0,0,5.45,1.86c6-6.52,14.26-10.11,24.59-10.67C226.77,626.51,227.84,626.48,228.91,626.48Z" transform="translate(-113.02 -201.89)"/><path class="cls-6" d="M294.12,674.41H294c-.66,0-.8-.35-1.4-1.83-.44-1.1-1.18-2.94-2.26-5.2a85.44,85.44,0,0,0-6.2-10.58,7.75,7.75,0,0,0-.5-.68,72.94,72.94,0,0,0-37.25-25.61,69.42,69.42,0,0,0-7.45-1.73,58.71,58.71,0,0,0-13.1-.77c-10,.55-18.06,4.06-23.79,10.43l-.33.35-.47-.07a20.62,20.62,0,0,1-6.14-2c-2.11-1.11-3.23-1.7-3.67-2.93-1.2-3.39,4.74-8.06,8.4-10.54,8.52-5.71,17.48-6.87,20.85-7.31l.44,0a58.16,58.16,0,0,1,28.32,3.6,67.48,67.48,0,0,1,18.86,11,77.59,77.59,0,0,1,15.16,17c1.13,1.69,2.11,3.27,2.93,4.67,1.69,2.86,2.64,4.8,2.9,5.33,3.4,7,5.94,15.27,5.54,16.28l-.14.37ZM228.9,626.14a62.17,62.17,0,0,1,10.29.88,72.84,72.84,0,0,1,7.66,1.79A74.62,74.62,0,0,1,285,655c.21.26.4.53.56.76,1.26,1.8,2.41,3.65,3.37,5.31-.4-.91-.83-1.85-1.29-2.79-.24-.52-1.17-2.4-2.82-5.2-.81-1.38-1.77-2.92-2.88-4.59a76.23,76.23,0,0,0-14.81-16.65,65.71,65.71,0,0,0-18.36-10.76,56.33,56.33,0,0,0-27.46-3.5l-.45.06c-3.25.42-11.91,1.54-20.08,7-5.08,3.46-8.26,6.95-7.71,8.48h0c.2.57,1.11,1.05,2.75,1.91a19,19,0,0,0,5.19,1.8c6-6.5,14.33-10.08,24.69-10.65C226.76,626.17,227.83,626.14,228.9,626.14Z" transform="translate(-113.02 -201.89)"/><path class="cls-6" d="M294.23,675H294c-1,0-1.29-.63-1.9-2.16-.46-1.12-1.19-2.95-2.26-5.18a86.09,86.09,0,0,0-6.15-10.5c-.14-.2-.3-.42-.48-.65a72.26,72.26,0,0,0-37-25.42,69.25,69.25,0,0,0-7.4-1.73,58.81,58.81,0,0,0-13-.76c-9.9.55-17.78,4-23.41,10.25l-.53.58-.77-.12a21.1,21.1,0,0,1-6.3-2.08c-2.22-1.17-3.43-1.81-3.94-3.24-1.27-3.56,4-8.05,8.6-11.19,8.62-5.77,17.67-7,21.07-7.39l.46-.06A58.75,58.75,0,0,1,249.6,619a68.16,68.16,0,0,1,19,11.12,79.24,79.24,0,0,1,15.27,17.17c1.11,1.69,2.1,3.27,2.94,4.69,1.63,2.75,2.58,4.67,2.92,5.38,3.14,6.45,6.1,15.37,5.56,16.73l-.23.58ZM228.9,627.37a60.71,60.71,0,0,1,10.08.86A70.91,70.91,0,0,1,246.5,630,73.48,73.48,0,0,1,284,655.79c.19.24.36.47.51.7a90.15,90.15,0,0,1,6.24,10.63c1.09,2.28,1.83,4.13,2.27,5.23.6,1.5.64,1.5.89,1.5H294l.21-.08,0-.14c.24-1-2.17-8.94-5.52-15.84-.33-.69-1.28-2.58-2.88-5.29-.83-1.41-1.8-3-2.91-4.64a77.51,77.51,0,0,0-15-16.93A67,67,0,0,0,249.2,620a57.52,57.52,0,0,0-28-3.58l-.44.06c-3.36.43-12.22,1.59-20.61,7.21-6,4.07-9,7.68-8.18,9.9.36,1,1.38,1.55,3.4,2.62a20.06,20.06,0,0,0,6,2l.17,0,.13-.14c5.83-6.48,14-10,24.17-10.61C226.8,627.4,227.85,627.37,228.9,627.37Zm59.55,34c-1.13-1.95-2.26-3.73-3.35-5.28-.15-.23-.34-.49-.53-.73a74,74,0,0,0-37.88-26,71,71,0,0,0-7.59-1.78,61.16,61.16,0,0,0-13.38-.78c-10.2.56-18.38,4.08-24.3,10.47l-.21.23-.31-.06a19.83,19.83,0,0,1-5.34-1.85c-1.82-1-2.74-1.45-3-2.22l0-.11c-.62-2.23,3.68-6.1,8-9,8.28-5.55,17-6.68,20.33-7.1l.44-.06A56.73,56.73,0,0,1,249,620.61a66.23,66.23,0,0,1,18.51,10.84,76.91,76.91,0,0,1,14.93,16.78c1.12,1.69,2.09,3.24,2.89,4.61,1.82,3.08,2.75,5,2.85,5.24.45.95.89,1.88,1.29,2.81ZM228.9,625.59a62.1,62.1,0,0,1,10.38.89,69.89,69.89,0,0,1,7.72,1.8,75.61,75.61,0,0,1,37,24.56c-.71-1.21-1.56-2.55-2.52-4a75.36,75.36,0,0,0-14.71-16.53,64.66,64.66,0,0,0-18.2-10.66,55.4,55.4,0,0,0-27.19-3.48l-.44.06c-3.23.42-11.79,1.52-19.85,6.92-5.71,3.89-7.82,6.92-7.49,7.83v0a8,8,0,0,0,2.47,1.58,18.83,18.83,0,0,0,4.74,1.69c6.11-6.47,14.47-10,24.85-10.6Q227.28,625.59,228.9,625.59Z" transform="translate(-113.02 -201.89)"/><path class="cls-6" d="M324.37,628.63q-1,16.26-2,32.54a3,3,0,0,1-.59,1.13,2.88,2.88,0,0,1-2.45.91c-1-.15-1.69-1.18-3-3.22l-2.87-4.57a188.21,188.21,0,0,0-15.27-23.29c-.16-.22-.35-.47-.6-.78-.66-.86-1.36-1.72-2.08-2.59l.37-26.62c1.46,1.07,3,2.19,4.49,3.38A161.7,161.7,0,0,1,324.37,628.63Z" transform="translate(-113.02 -201.89)"/><path class="cls-6" d="M270.22,586.69a223.9,223.9,0,0,1,20.52,11.85l-.34,24.27c-4.9-5.4-10-10.51-14-14.33L264.8,583.91C266.52,584.77,268.34,585.68,270.22,586.69Z" transform="translate(-113.02 -201.89)"/><path class="cls-6" d="M237.53,572.6c.94.31,5.93,2,10.82,3.95,1.83.72,5.72,2.29,10.93,4.7l9.49,20.21A468.24,468.24,0,0,0,227.6,569.4C230.31,570.22,233.69,571.28,237.53,572.6Z" transform="translate(-113.02 -201.89)"/><polygon class="cls-7" points="215.14 443.01 215.14 463.96 230.12 471.63 215.14 443.01"/><polygon class="cls-7" points="253.12 477.94 253.12 490.19 261.97 475.83 253.12 477.94"/><polygon class="cls-7" points="234.54 477.94 234.54 490.19 225.69 475.83 234.54 477.94"/><path class="cls-10" d="M581.12,578c7.77-18.69,6.19-36.89.78-55.81,2.79,9.75-1.08,20.91-8.89,27.26a29.15,29.15,0,0,1-2.81,1.94c-.44.26-.89.51-1.35.74q.57-1.76,1-3.57.92-3.28,1.58-6.65a101,101,0,0,0-1.7-48c-5.07-17.51-14.63-32.89-17.39-51.06a117.41,117.41,0,0,1-.46-31.34,41.4,41.4,0,0,1-10.88,9.16c-10.74,6.15-15.89,2.18-23.61,6.27a17.55,17.55,0,0,0-2,1.25c-4,2.74-6.52,6.68-8.46,10.84-4.22,8.93-5.53,18.76-11.33,19.24a6.76,6.76,0,0,1-3.23-.61,13,13,0,0,1-6.31-6.61c-4-9.56,6.13-19.34,11.77-25.78a88.38,88.38,0,0,0,6.57-8.32,40.9,40.9,0,0,0,7.36-18.24,43,43,0,0,0-7-29A85.87,85.87,0,0,0,477.05,343c-13.63-7.86-26-8-38.58-22.19a63.46,63.46,0,0,1-10.89-17.35c-2.95,5.57-5.43,12.82-2.95,19,2.31,5.72,8.35,9.39,11.71,14.45a29.07,29.07,0,0,1,3.52,7.66A35.78,35.78,0,0,1,441.3,356a53.4,53.4,0,0,1-3.73,17.63,57,57,0,0,1-7.51,13.71,80.14,80.14,0,0,1-12,12.58s0,0,0,0c-5,4-10.17,6.36-13,2.4-.7-1-.48-2.33-.36-3.54,1.67-14.79-12.73-25.6-23-33.63-3.33-2.6-6.31-4.84-9-6.77h0A172.89,172.89,0,0,0,356.54,348c-7.4-4.23-11.27-5.86-17.94-13.12-6-6.52-19.61-21.33-19.06-41.95a50.46,50.46,0,0,1,8.18-25.55,74.47,74.47,0,0,0-14.52,4.34,76.36,76.36,0,0,0-31.36,24.62c-14.83,19.77-20,46.3-7,69.6,1.26,2.28,2.63,4.41,4,6.44,7.81,11.43,16.41,19.78,14.51,36.17-.25,2.19-3.4,9.8-2.61,11.15a24.24,24.24,0,0,0-9.92-9,43,43,0,0,0-8.93-3.48c-7.45-2.06-15.25-2.83-22.52-5.44a45,45,0,0,1-12.86-7.23,49.2,49.2,0,0,1-18.16-33.64,47.05,47.05,0,0,1,3.16-21.21,108.7,108.7,0,0,0-15,15.36,100.74,100.74,0,0,0-12.64,20.3c-5.17,11.06-13.74,29.34-7.71,46.81a64,64,0,0,0,5.95,12.43,56.59,56.59,0,0,0,3.57,5.26c5.87,7.41,8.86,7.31,10.9,12.27,4.46,10.84-3.29,27.52-10.9,28.14a4.68,4.68,0,0,1-1.24-.06c-3.61-.49-6.88-4.19-8.75-6.31-3.89-4.41-4.58-8.21-6.34-12.25a36.79,36.79,0,0,0-3.1-5.61,38.19,38.19,0,0,0-13.7-12.54c-13.32-6.7-29,1.25-31.77,2.72a36.57,36.57,0,0,1,11,7.7,18.78,18.78,0,0,1,4.44,7.73c2.7,9.78-5.39,15.12-9.53,33.59-2.26,10.06-5,22.29.45,33.6a36.68,36.68,0,0,0,7.41,10c5.78,5.74,11.57,9,10.29,13.12-.83,2.69-4.28,4.36-7,4.45a9,9,0,0,1-5.17-1.66c-6-4-11.8-14.88-15.63-29.58a109,109,0,0,0-2.41,15.75,94.72,94.72,0,0,0,.76,21.67A81.48,81.48,0,0,0,131.64,584c2.25,5,6.18,13.58,12.6,20.71a40.4,40.4,0,0,0,3.06,3.08L142.07,613l4.52,4.5v0l16,16,12.84,12.84a17.79,17.79,0,0,0,6.82-7.93q-5.76-13.79-11.57-27.57c-.89-2.1-1.76-4.22-2.65-6.31,1.39-.63,2.78-1.23,4.16-1.84l11.59-5.13,2.72-35.1a16.72,16.72,0,0,1-4.85-4.55,17,17,0,0,1-2.42-5.1c-.87-2.93-.76-5.33-.3-5.47.3-.11.64.76,1.28,2a11.87,11.87,0,0,0,4.78,5.28,11.05,11.05,0,0,0,5.74,1.21c-.16-.93-2.25-13.46,4.31-25.39a34.93,34.93,0,0,1,7.2-9.1,37.06,37.06,0,0,1,22.43-9.49c.43-.06.87-.07,1.32-.09a37.62,37.62,0,0,1,11.92,1.51c.82.23,1.64.5,2.46.8a33.84,33.84,0,0,1-2.74-7.86,34.93,34.93,0,0,1-.6-10.59,17,17,0,0,0,3,6.34,17.23,17.23,0,0,0,4.25,3.95,15,15,0,0,0,2.5,1.31,18.82,18.82,0,0,0,9.6,1.11,27.79,27.79,0,0,1-7.87-11.5,28.61,28.61,0,0,1,0-18.76c.34,1.71,2.4,11.27,11.5,16.94a25.63,25.63,0,0,0,15.15,3.72c1.85-2.56,15.07-20.41,36-20.71,14-.22,24.74,7.52,29,10.59,10.26,7.38,12.94,14.29,15.45,17a4.22,4.22,0,0,0,.89.78c1.1-.69,2.08-2.27,3.52-4.41a48.93,48.93,0,0,1,12.82-13.35c4.26-3.07,15-10.81,29-10.59,20.9.3,34.13,18.15,36,20.71a25.83,25.83,0,0,0,12.75-2.42,21.87,21.87,0,0,0,2.4-1.3l.33-.21c8.82-5.71,10.83-15,11.17-16.73a28.61,28.61,0,0,1,0,18.76,27.69,27.69,0,0,1-7.88,11.5A18.12,18.12,0,0,0,468.75,506,17.63,17.63,0,0,0,473,502a17.37,17.37,0,0,0,3-6.34,35,35,0,0,1-.61,10.59,34.35,34.35,0,0,1-2.73,7.86,37.54,37.54,0,0,1,38.13,7.27c15,13.6,11.72,33.31,11.5,34.49a11,11,0,0,0,5.74-1.21c4.45-2.4,5.35-7.48,6.07-7.25s.58,5.88-2.72,10.57a16.74,16.74,0,0,1-4.86,4.55l2.72,35.1,15.75,7q-7.11,16.92-14.22,33.88a17.82,17.82,0,0,0,6.83,7.93l20.85-20.84,8-8v0L571,613l-7.55-7.55c2.22-2.56,4.35-5.19,6.33-7.91A92.1,92.1,0,0,0,581.12,578Z" transform="translate(-113.02 -201.89)"/><path class="cls-10" d="M356.54,243.53c-7,19-22.46,37.07-15.9,58.42,2.72,8.88,8.86,15.89,15.9,21.76C359.2,326,362,328,364.79,330c1.12.78,4.44,3.31,8.49,6.22,2.87,2.07,6.08,4.32,9.11,6.3h.05c5.28,3.42,10,5.92,11.23,4.91,2.21-1.81-5.79-15.77-6.52-18-3.45-10.52-1.94-22,1.14-32.51,4.23-14.51,13.53-28.66,14.36-44.27.84-15.87-9.51-31.75-24.35-37.51a24.68,24.68,0,0,0-3-1,43.39,43.39,0,0,0-12.82-1.33h0c-.86,0-1.36.09-1.36.09A39.51,39.51,0,0,0,350,215.58a1.45,1.45,0,0,1-.22.09,20.13,20.13,0,0,1,6.69,7.13l.09.18c3.68,7,1.9,14.86.71,18.52C357,242.18,356.79,242.85,356.54,243.53Z" transform="translate(-113.02 -201.89)"/><path class="cls-11" d="M557.62,610.37c-2,2.73-4.11,5.37-6.34,7.93l7.23,7.24-20.9,20.88a17.84,17.84,0,0,1-6.84-7.95q7.11-17,14.25-34l-15.78-7-2.73-35.18a16.67,16.67,0,0,0,4.87-4.56c3.31-4.7,3.45-10.37,2.72-10.6s-1.62,4.87-6.07,7.27a11,11,0,0,1-5.76,1.21c.21-1.17,3.49-20.93-11.53-34.56a37.63,37.63,0,0,0-38.22-7.29,34.48,34.48,0,0,0,2.75-7.88,35.12,35.12,0,0,0,.6-10.62,17.19,17.19,0,0,1-7.28,10.32,18.15,18.15,0,0,1-12.14,2.42,27.79,27.79,0,0,0,7.9-11.53,28.77,28.77,0,0,0,0-18.79c-.34,1.69-2.36,11-11.19,16.76a27.71,27.71,0,0,0-1-3.85,26.76,26.76,0,0,1-1.71,5.37,25.91,25.91,0,0,1-12.77,2.42c-1.86-2.56-15.11-20.45-36.07-20.76-14-.21-24.8,7.54-29.08,10.62a49.09,49.09,0,0,0-12.84,13.38,50.61,50.61,0,0,0-4.42,3.64c-2.51-2.69-5.2-9.62-15.49-17-4.27-3.08-15.05-10.83-29.07-10.62-21,.31-34.21,18.2-36.07,20.76a25.67,25.67,0,0,1-15.18-3.72c-9.12-5.69-11.19-15.27-11.53-17a28.7,28.7,0,0,0,0,18.79,27.79,27.79,0,0,0,7.9,11.53,18.74,18.74,0,0,1-9.62-1.1,26.66,26.66,0,0,1-10.5-16.31,28.67,28.67,0,0,0,0,18.8,25,25,0,0,0,1.59,3.57,38.21,38.21,0,0,0-12-1.52,18.23,18.23,0,0,1-1.16-3.26c-.09,1-.16,2.1-.16,3.35a37.12,37.12,0,0,0-22.48,9.52,34.93,34.93,0,0,0-7.22,9.12,35.43,35.43,0,0,0-14.86,18.94c-.39,1.19-.71,2.37-1,3.51a42.16,42.16,0,0,0-.69,15.91,11,11,0,0,1-5.76-1.21c-4.45-2.41-5.36-7.5-6.08-7.27s-.58,5.9,2.73,10.6a16.8,16.8,0,0,0,4.86,4.56l-2.12,27.41-4.17,1.83c.9,2.1,1.77,4.22,2.66,6.33q-7.43,3.31-14.88,6.59c2.26,5.38,4.53,10.74,6.77,16.12l-16.07-16.07v0l-4.52-4.5,5.23-5.24c-1.08-1-2.1-2-3.06-3.08-6.43-7.15-10.37-15.79-12.63-20.76a81.2,81.2,0,0,1-6.36-21.51,21.86,21.86,0,0,0,5.09,5.06,9.07,9.07,0,0,0,5.19,1.66c2.76-.09,6.21-1.76,7.05-4.46,1.28-4.09-4.52-7.39-10.31-13.15a36.48,36.48,0,0,1-7.43-10c-.13-.27-.25-.52-.36-.79A110.77,110.77,0,0,1,126,524.87c3.83,14.73,9.61,25.64,15.66,29.64a9,9,0,0,0,5.19,1.66c2.76-.09,6.22-1.76,7.05-4.45,1.29-4.1-4.52-7.4-10.31-13.15a36.69,36.69,0,0,1-7.43-10.05c-5.47-11.33-2.71-23.59-.45-33.68,4.15-18.51,12.26-23.86,9.55-33.66a18.83,18.83,0,0,0-4.45-7.75,24.82,24.82,0,0,1,8.6,2.48,38.35,38.35,0,0,1,13.74,12.56,37,37,0,0,1,3.1,5.63c1.77,4,2.46,7.86,6.36,12.28,2.09,2.37,5.92,6.7,10,6.38,4.4-.36,8.87-6.1,11-13a4.73,4.73,0,0,0,1.25,0c7.63-.62,15.39-17.34,10.92-28.21-2.05-5-5-4.86-10.92-12.29a56.43,56.43,0,0,1-3.58-5.27,64.88,64.88,0,0,1-6-12.46c-6-17.51,2.55-35.83,7.73-46.91a101,101,0,0,1,12.67-20.35c1-.89,1.93-1.71,2.85-2.48a47.08,47.08,0,0,0-3.17,21.26,49.29,49.29,0,0,0,18.21,33.71,45,45,0,0,0,12.88,7.25c7.29,2.62,15.11,3.39,22.58,5.45s15,5.83,18.88,12.51c-.78-1.35,2.37-9,2.62-11.17a34.18,34.18,0,0,0-.33-10.76,24.25,24.25,0,0,1,9.94,9c-.79-1.35,2.37-9,2.62-11.17,1.9-16.43-6.72-24.8-14.54-36.26-1.39-2-2.76-4.17-4-6.45-13-23.36-7.82-49.94,7-69.75a73.54,73.54,0,0,1,19.21-11.76A74.29,74.29,0,0,1,315,279.39a50.53,50.53,0,0,0-8.19,25.6c-.55,20.67,13.09,35.51,19.1,42.05,6.68,7.27,10.56,8.91,18,13.15a172.82,172.82,0,0,1,16.21,10.5h0c2.69,1.94,5.68,4.18,9,6.79,10.3,8,24.74,18.88,23.06,33.71-.12,1.21-.34,2.55.36,3.54,5.81,8.22,21.82-10.71,25-15a1.55,1.55,0,0,0,.2-.28s0,0,0,0a80,80,0,0,0,12-12.61A56.93,56.93,0,0,0,437.33,373a53.1,53.1,0,0,0,3.74-17.68,35.57,35.57,0,0,0-1.44-11.45c8.09,4.42,16.32,6.3,25.05,11.35A86,86,0,0,1,492.55,382a43.23,43.23,0,0,1,7,29,41.24,41.24,0,0,1-7.38,18.28,90.53,90.53,0,0,1-6.59,8.34c-5.65,6.45-15.77,16.25-11.8,25.83,1.68,4,5.88,7.54,9.57,7.24,4.58-.38,6.36-6.54,9-13.53a6.68,6.68,0,0,0,3.24.61c5.81-.48,7.13-10.34,11.35-19.28,6.81-2.74,12,.2,21.92-5.49a41.38,41.38,0,0,0,10.9-9.17,117.59,117.59,0,0,0,.47,31.41c2.76,18.21,12.34,33.62,17.42,51.17a101.77,101.77,0,0,1,.13,54.77c-.32,1.22-.68,2.41-1.06,3.58.47-.23.91-.48,1.36-.74,9.67-5.76,14.84-18.39,11.72-29.26.66,2.3,1.25,4.58,1.79,6.84q-.67,3.38-1.59,6.67c-.32,1.21-.68,2.4-1.05,3.58q.69-.35,1.35-.75a29.3,29.3,0,0,0,2.82-1.94c2.3,13.91,1.69,27.58-4.1,41.53A91.83,91.83,0,0,1,557.62,610.37Z" transform="translate(-113.02 -201.89)"/><path class="cls-11" d="M378.67,326.79c.92,2.21,10.1,15.65,8,17.65-.58.56-2.05.32-4.07-.41l-.05,0c-3.06-2-6.32-4.28-9.21-6.37-4.1-2.95-7.47-5.51-8.6-6.3-2.83-2-5.65-4.06-8.35-6.35-7.12-5.94-13.33-13-16.08-22-6.64-21.6,9.05-39.85,16.08-59.11.25-.69.49-1.37.72-2.05,1.21-3.71,3-11.63-.72-18.75a.76.76,0,0,0-.09-.18,20.31,20.31,0,0,0-6.76-7.21l.21-.09a40.05,40.05,0,0,1,11.28-2.7s.51-.06,1.37-.09h0C377,218,387.81,232.65,388.21,248.1c.39,15.82-7.86,30.84-11,45.8C375,304.73,374.36,316.45,378.67,326.79Z" transform="translate(-113.02 -201.89)"/><path class="cls-12" d="M838.17,505.16l43.19,64.43V735.78l-65.15-65.16h21.23V591.55l-18.31-37.34v56.38L775.21,654.7V590.09l-17.57-35.88V670.62h21.23l-65.16,65.16V571.05l-42.1-65.89Zm-143.5,3.66-.73,2.93h1.47v-2.93Zm5.13,33.68v.73c.12,1,.61,1.47,1.46,1.47H702V544a1.29,1.29,0,0,0-1.46-1.46Zm1.46-12.45v1.47a5.41,5.41,0,0,1,2.93,1.46,2,2,0,0,1,2.2-2.2v-.73h-.73a5.6,5.6,0,0,1-2.2.73A5.77,5.77,0,0,0,701.26,530.05Zm4.4,16.11v.73h4.39q3.66-2,3.66-2.93V542.5H713Q708.41,546.16,705.66,546.16Zm5.12,3.66-.73,1.46c.85,0,2.07,1.23,3.66,3.67v.73a1.3,1.3,0,0,0,1.46-1.47L713.71,552l.73-1.47Zm5.12,1.46v2.2c2,0,2.93.49,2.93,1.47l3.66-.74v-1.46l-3.66.73c0-.73-.73-1.46-2.19-2.2Zm.74,8.06v2.93q4,0,5.12-2.93a1.29,1.29,0,0,1-1.46-1.47A8,8,0,0,1,716.64,559.34Zm0,16.84c0,.73,1,1.46,2.93,2.19l.73-1.46v-2.2A8,8,0,0,1,716.64,576.18Zm.73,6.58a5.72,5.72,0,0,1-.73,2.2h1.46v-2.2Zm2.2,5.86-.74,1.47v.73h3.66v-1.47A5.76,5.76,0,0,1,719.57,588.62Zm1.46-19a5.69,5.69,0,0,1-.73,2.19h1.46v-2.19ZM727.62,593v.74l1.46,2.19v.74c-3.9,2.19-5.85,3.66-5.85,4.39a1.29,1.29,0,0,1-1.47,1.46l-1.46-.73V604c1.71,0,3.41-1.22,5.12-3.66h2.2a.65.65,0,0,1-.73.73,7.54,7.54,0,0,1,.73,3.66l3.66-.73h2.2a5.77,5.77,0,0,1,.73-2.93l-1.47-.73c0,1.95-.49,2.92-1.46,2.92a1.29,1.29,0,0,1-1.46-1.46l.73-1.46h-2.93q0-.92,7.32-6.59h-.73a5.79,5.79,0,0,1-2.93.73,1.3,1.3,0,0,0-1.46-1.47ZM721,574v.73H724V574Zm.73-16.84v.73H724v-.73Zm2.2,2.2v1.46a5.74,5.74,0,0,1,2.19-.73v-.73Zm.73,26.35v.74h1.46v-.74Zm4.39-17.57c0,1.47-1.22,2.2-3.66,2.2v2.93l3.66-2.2,2.93.73a11,11,0,0,1,5.86-2.19v-.73l-2.93-.74-5.12.74A.66.66,0,0,0,729.08,568.12Zm-2.93,10.25v2.2a1.3,1.3,0,0,0,1.47-1.47Zm4.4-2.19v1.46a1.29,1.29,0,0,0,1.46-1.46v-1.47C731,574.84,730.55,575.32,730.55,576.18Zm8.05-20.5q0,3.66-6.59,3.66c0,.73,1,1.71,2.93,2.93a5.65,5.65,0,0,1,2.2-.74.65.65,0,0,0,.73.74c.12-1,.61-1.47,1.46-1.47h4.4v.73a5.65,5.65,0,0,0-.74,2.2h1.47c0-1.46.48-2.2,1.46-2.2l1.47.74c0-.86,1.7-1.59,5.12-2.2-.24-2.44-2.2-3.66-5.86-3.66,0,.73-.73,1.46-2.19,2.2a1.3,1.3,0,0,1-1.47-1.47v-.73l.74-1.46H743a5.74,5.74,0,0,1-2.19.73ZM732.74,574v.73h1.47V574Zm0,8v1.47c.12,1,.61,1.46,1.47,1.46l.73-1.46v-2.93h-.73C733.23,580.69,732.74,581.18,732.74,582Zm0,7.32v2.2h.74a5.36,5.36,0,0,1,2.92-1.46v-1.47A7.43,7.43,0,0,1,732.74,589.35ZM740.8,604q0,3.66-1.47,3.66h-2.19c-1,0-1.47-1-1.47-2.93h-1.46c.48.49.73,2.44.73,5.86h.73c0-1.47.49-2.2,1.47-2.2s1.46.61,1.46,1.46v1.47c0,.49-1,1.22-2.93,2.19a5.6,5.6,0,0,1,.73,2.2h1.47q.54-5.12,2.93-5.12h2.93l3.66.73v-2.93c-2.93,0-4.4-1.47-4.4-4.39Zm-6.59,26.35v.73h1.46v-.73Zm.73-30a5.32,5.32,0,0,1,1.46,2.92h2.93v-.73l-.73-1.46c0-1.83,1.47-3.05,4.39-3.66q.18-1.47,1.47-1.47c.73,0,2.19,1.23,4.39,3.66h2.93v-.73L746.65,593l.74-1.46h-.74c-1,0-2.44,1.22-4.39,3.66l-6.59,5.13Zm.73-21.24v.74h.73a5.65,5.65,0,0,1,2.2-.74v-.73h-.73A5.6,5.6,0,0,1,735.67,579.1Zm.73,37.34v.73q.18,1.47,1.47,1.47h2.93v-.73a5.83,5.83,0,0,1-3.66-1.47Zm0,22v1.46h1.47A1.29,1.29,0,0,0,736.4,638.41Zm1.47-10.25h2.2V626C739.33,626,738.6,626.69,737.87,628.16Zm0,2.92v2.2l2.2,1.47V634a5.31,5.31,0,0,1-1.47-2.93ZM754,564.46q-7.34,9-7.33,9.52-5.85,2.57-5.85,3.66c1.46,0,2.19.49,2.19,1.46,0,.74-1.22,2.2-3.66,4.4V585q.18,1.47,1.47,1.47h.73V582q3.66-2.92,5.86-2.93c.36-2.92,1.34-4.87,2.92-5.85q2.21,2.38,3.67,8.78h.73v-6.59a6.23,6.23,0,0,1,0-5.85v-5.13Zm-13.91,3.66v.74l2.92.73,8.79-6.59c-1.95,0-5.62,1.71-11,5.12Zm.73,72.48c0,2.2-.25,3.66-.73,4.4h.73l2.19-1.47a5.77,5.77,0,0,1-.73-2.93Zm0,6.59v.73h1.46v-.73Zm1.46-59.3v.73H743a5.77,5.77,0,0,1,2.2-.73v-.73h-.73A5.6,5.6,0,0,1,742.26,587.89Zm.73,26.36V615h1.47v-.73Zm0,8h2.2c.37-3.9,1.1-5.86,2.2-5.86s1.46,1.71,1.46,5.13h.73c.37-2.44,1.1-3.66,2.2-3.66a5.77,5.77,0,0,0,2.93.73v-.73c0-.74-.73-1.47-2.2-2.2a1.29,1.29,0,0,1-1.46,1.46c-.74,0-1.47-.73-2.2-2.19-3.42,0-5.12,1.95-5.12,5.86C743.24,620.84,743,621.32,743,622.3Zm0,16.11v1.46h1.47v-1.46Zm5.86-27.82v.73h1.46v-.73Zm.73-21.24v2.2h1.47a5.61,5.61,0,0,1-.74-2.2Zm3.66-30.74v.73h1.47v-.73Zm0,2.92a5.65,5.65,0,0,1,.74,2.2h.73v-2.2Zm41-22.69q0,5.31-8,7.32,0,2.93-5.13,2.93,0-1.47-2.19-1.47l-3.66.74-.74-1.47-1.46.73a.64.64,0,0,1-.73-.73,5.79,5.79,0,0,1-2.93.73,6.37,6.37,0,0,1,1.46,4.4c.49,0,2-1,4.4-2.93h.73c1,.12,1.46.61,1.46,1.46v.73L773,555l-2.2-1.47a5.76,5.76,0,0,1-2.92.73.65.65,0,0,0-.74-.73c0,1.47-.49,2.2-1.46,2.2A.65.65,0,0,0,765,555a.65.65,0,0,1-.74.73Q763.31,552,762,552a5.92,5.92,0,0,1-.73,2.93q7.13,15.36,8.78,15.37l3.66.73a5.85,5.85,0,0,1,1.47-3.66,1.3,1.3,0,0,1-1.47-1.46v-2.2l3.66-3.66h1.47v1.46h.73a12.75,12.75,0,0,1,1.46-4.39c-2.44,0-3.66-.49-3.66-1.46v-1.47c.12-1,.61-1.46,1.47-1.46h1.46c1,.12,1.47.61,1.47,1.46v3.66q5.12,0,5.12,2.93,2.39,1.47,10.25,3.66a1.94,1.94,0,0,1,2.2-2.19V560.8c-2.93,0-4.4-.48-4.4-1.46l.74-1.47a7.91,7.91,0,0,1-1.47-3.66,5.87,5.87,0,0,1,2.93-.73v-.73c-1,0-1.46-.24-1.46-.73l-1.47.73h-.73a1.29,1.29,0,0,1-1.46-1.47q0-1.1,2.19-2.19h1.47l1.46.73-3.66-4.39V544c0-1.34,1.71-2.31,5.12-2.93v-2.19l-2.19,1.46Zm-24.16,17.57h.73c1,.12,1.47.61,1.47,1.46v1.47a1.29,1.29,0,0,1-1.47,1.46h-1.46a1.29,1.29,0,0,1-1.46-1.46C768.62,557.39,769.35,556.41,770.08,556.41Zm6.59,10.25v.73a2.66,2.66,0,0,1-2.93,4.39,8.5,8.5,0,0,0,1.47,4.4,7.91,7.91,0,0,1,3.66-1.47v-2.93l-1.47-5.12Zm1.47-4.39a5.57,5.57,0,0,1-.74,2.19v.73h.74a5.61,5.61,0,0,1,.73-2.19v-.73Zm10.24-13.91c.74,0,1.47.73,2.2,2.19V552a1.29,1.29,0,0,1-1.46,1.46l-1.47-.73a1.29,1.29,0,0,1-1.46,1.46h-1.47a1.29,1.29,0,0,1-1.46-1.46V552Q783.26,551.29,788.38,548.36Zm2.93,8.78h.74c1,.12,1.46.61,1.46,1.47s-.73,1.46-2.2,2.19a1.29,1.29,0,0,1-1.46-1.46v-.73C790,557.63,790.46,557.14,791.31,557.14Zm6.59,8.79v4.39l2.2-1.46.73,1.46,1.47-.73h2.19q1.47,0,1.47,3.66h.73a5.6,5.6,0,0,1,.73-2.2q-2.74-3.66-4.39-3.66a1.3,1.3,0,0,1-1.47-1.46v-1.47h2.93q2-3.66,2.93-3.66h.73q2.93,3.66,3.66,3.66a6.35,6.35,0,0,1,1.47-4.39,5.77,5.77,0,0,1-.73-2.93q-2.2,0-13.92,8.79Zm0-8.79c0,.73.73,1.47,2.2,2.2h1.46v-1.47Zm2.93-6.59-.73,3.66c.85,0,1.58-1.22,2.2-3.66ZM806,552v3.66l-.74,1.46h2.93a5.85,5.85,0,0,1,1.47-3.66A8.06,8.06,0,0,0,806,552Zm2.19,15.37a5.79,5.79,0,0,1,.73,2.93h.74v-2.93Zm2.2,2.93a5.87,5.87,0,0,1,.73,2.93h.73l.74-2.93Zm.73-15.37v.73h1.47V555Zm1.47,24.15h3.66l.73-7.32v-.73q-1.47.18-3.66,7.32A.65.65,0,0,0,812.55,579.1Zm.73-15.37v2.2h2.19a1.3,1.3,0,0,0,1.47-1.47v-.73Zm0,4.39v1.47h2.19v-1.47Zm1.46-11.71v.73q1.47,0,1.47,3.66h.73c0-2.44-.25-3.66-.73-3.66Zm25.63,106.16v9.51c0,1-2.45,1.71-7.33,2.2a5.76,5.76,0,0,0-2.92-.73h-3.67v4.39c0,1.1,1.22,1.83,3.67,2.2l1.46-.73h2.2c0-1.1,1.21-2.32,3.66-3.67a.64.64,0,0,1,.73-.73c1,.12,1.46.61,1.46,1.47L836,681.6v.73l.73,1.47c3.91-.61,5.86-2.08,5.86-4.39H844v.73c-.74,2-1.47,2.93-2.2,2.93l.73,1.46v.73l-.73,3.66,1.46.73H844q0-2.19,5.85-4.39l3.66,2.2h.74a43.47,43.47,0,0,1-2.2-6.59c1.1,0,2.07-1.46,2.93-4.39a5.6,5.6,0,0,1-.73-2.2l.73-3.66h-1.47v-5.13h-2.93l1.47,2.2a1.3,1.3,0,0,1-1.47,1.47q-5.67-6.6-6.58-6.59a1.3,1.3,0,0,1-1.47,1.46Zm-1.47-82V582h.73v-1.46Zm7.32,43.93c0,1.46-1,2.19-2.93,2.19v1.47c2,.24,2.93,1,2.93,2.19v2.2a1.29,1.29,0,0,1-1.46,1.46h-1.47v-1.46c-.73,0-1.71,1-2.92,2.93v1.46l1.46,2.2v2.19a5.65,5.65,0,0,1,2.2.74v-.74l-1.47-2.19q.18-1.47,1.47-1.47h.73c1,0,1.46.74,1.46,2.2h1.47l-.74-2.93c.49-2,1.47-2.93,2.93-2.93q-2.93-4.2-2.93-5.12a5.77,5.77,0,0,0,.74-2.93A1.29,1.29,0,0,0,846.22,624.5Zm-5.85,32.21v1.46h.73v-1.46Zm7.32-7.32v.73l1.46,2.2v1.46a1.3,1.3,0,0,1-1.46,1.47c-1.23,0-2-1-2.2-2.93h-2.2v2.93q2.21,0,6.59,5.85a5.74,5.74,0,0,1,.73-2.19l3.67.73H855l-.73-5.13-2.2,1.47-2.2-3.66v-.74l1.47-2.19Zm-2.93,16.1h.73c.73,0,1.71,1.23,2.93,3.67a1.3,1.3,0,0,1-1.47,1.46h-.73q-.91,0-2.93-3.66Q843.47,665.49,844.76,665.49Zm0-44.65V623a1.29,1.29,0,0,0,1.46-1.46ZM847,647.19v1.47h.74v-1.47Zm4.4,41-.74,1.46a5.65,5.65,0,0,1,2.2.74v-.74A1.29,1.29,0,0,0,851.35,688.19Zm.73-12.45h2.2a1.3,1.3,0,0,1-1.47,1.47Zm1.46-23.42v1.46h.74v-1.46Zm2.2,8.78A5.87,5.87,0,0,1,855,664a5.74,5.74,0,0,1,2.19.73v-2.93Zm1.46,5.13-.73,2.93c1,0,1.47,1,1.47,2.92h.73v-4.39A1.3,1.3,0,0,0,857.2,666.23Zm5.13,2.93v1.46h2.2v-2.93h-.74C862.82,667.81,862.33,668.3,862.33,669.16Zm13.18-10.25v1.46h.73v-1.46Z" transform="translate(-113.02 -201.89)"/><path class="cls-12" d="M896.56,505.16H980.2l43.19,64.43V736.51q-25.44-30.93-52.71-47T896.74,673ZM901.13,563v.73a4,4,0,0,0,2.93,2.93v-1.47C904.06,564.46,903.08,563.73,901.13,563Zm1.47,23.43v2.92a5.69,5.69,0,0,1,2.19-.73v-2.93A5.67,5.67,0,0,1,902.6,586.43Zm.73-16.11v1.46h1.46A1.29,1.29,0,0,0,903.33,570.32Zm16.84-35.87q0,2.19-1.47,2.19h-1.46l-1.47-.73v1.46c2.32,0,3.78,2,4.4,5.86a1.3,1.3,0,0,1-1.47,1.47l-1.46-.74a1.3,1.3,0,0,1-1.47,1.47h-1.46c-.61,0-2.08-1.95-4.39-5.86a5.79,5.79,0,0,1-2.93.73l.73,3.66h2.2c0-1.46.48-2.19,1.46-2.19v1.46a.65.65,0,0,1-.73.73c0,1,1.22,2.44,3.66,4.4l-1.46,2.19a8.06,8.06,0,0,1,1.46,3.66c2.93-1.46,4.63-2.19,5.12-2.19a8.58,8.58,0,0,1-1.46-4.4q0-.92,5.12-3.66a1.29,1.29,0,0,1-1.46-1.46,5.6,5.6,0,0,0,.73-2.2c-1.46-.48-2.19-1.95-2.19-4.39h1.46A1.29,1.29,0,0,0,920.17,534.45ZM907,550.55v.73h2.19v-.73Zm0,3.66v1.47h.73v-1.47Zm3.66-.73a1.3,1.3,0,0,1-1.47,1.47l.74,1.46-.74,1.46v.74h.74c0-1.47,1-2.2,2.93-2.2V555a1.3,1.3,0,0,0-1.47-1.47Zm-.73-5.12v1.46h1.46A1.29,1.29,0,0,0,909.92,548.36Zm0,30v.73h1.46v-.73Zm.73-4.39v2.2c.73,0,1.46-.74,2.2-2.2Zm5.12-44.66-4.39,5.13a5.76,5.76,0,0,1,.73,2.92h.74v-1.46l-.74-1.46a5.65,5.65,0,0,0,.74-2.2h5.85a1.3,1.3,0,0,0,1.47-1.47,5.79,5.79,0,0,1-3.66-1.46Zm-3.66,68.82-.73,1.46H915v-.73A5.79,5.79,0,0,1,912.11,598.14Zm1.47-39.53v.73l.73,3.66c-1,.12-1.46.61-1.46,1.46v.73h2.92a2.59,2.59,0,0,1,2.93-2.92V560.8l-1.46.73h-.73c-1,0-1.47-1-1.47-2.92Zm10.25,38.8v1.46l-2.2-1.46h-2.2v.73l.74,1.46a5.74,5.74,0,0,1-5.13,2.93l1.47,2.2-2.93,2.93a11.11,11.11,0,0,0,4.39,1.46v-.73l-.73-2.93,2.93-2.2a.65.65,0,0,1,.73.74,5.62,5.62,0,0,1,2.19-.74v-.73c-1.46,0-2.19-.48-2.19-1.46l1.46-.73c.12,1,.61,1.46,1.47,1.46H926v-.73q-2.19,0-2.19-1.47c0-1,1-1.46,2.93-1.46v-.73Zm-8.06-19.77v.73l.74,1.47-.74,4.39,1.47.73H918c0-2.31.49-4,1.46-5.12v-.74c-1.95,0-2.92-.48-2.92-1.46Zm0,36.61v2.19a1.29,1.29,0,0,0,1.47-1.46v-.73Zm2.93-2.93v1.46q.18,1.47,1.47,1.47l.73-1.47v-.73A5.6,5.6,0,0,1,918.7,611.32Zm1.47-20.5a5.61,5.61,0,0,1,2.19.73v-2.2h-.73C920.65,589.48,920.17,590,920.17,590.82Zm.73-33v1.47h.73v-1.47Zm0,58.57v2.2l2.93-1.47,1.46.74a7.42,7.42,0,0,1,3.66-.74v-.73q0-1.1-2.19-2.19h-1.47Q922.55,616.44,920.9,616.44Zm2.19-65.89-1.46,2.2v.73h.73V552h.73c1,0,1.47,1.46,1.47,4.39,1.46,0,2.2-1.46,2.2-4.39A8,8,0,0,1,923.09,550.55Zm-.73,56.37c0,.74.73,1.47,2.2,2.2v-.73a1.3,1.3,0,0,0-1.47-1.47Zm2.2-30c1,.12,1.46.61,1.46,1.46V582h1.47l-.73-1.46c0-.73.73-1.47,2.19-2.2,1.47,0,2.44,2.44,2.93,7.32l1.46-.73,1.47.73V583.5q-2.74,0-5.13-11.72c-1,0-1.46-.24-1.46-.73C926.76,571.05,925.53,573,924.56,576.91Zm.73-7.32v.73h1.47v-.73ZM929,601.8a5.89,5.89,0,0,1-1.46,3.66l2.19,1.46a5.77,5.77,0,0,1,2.2-.73.64.64,0,0,0,.73.73v-.73a6.34,6.34,0,0,1-1.46-4.39Zm-.73-3.66v.73h1.46v-.73Zm.73-11v.73h2.2v-1.46A5.6,5.6,0,0,1,929,587.16Zm1.47-27.09c0,2.2-.25,3.66-.74,4.39h.74a5.69,5.69,0,0,1,2.19-.73c.49.61.73,2.32.73,5.13h.74c0-2.2.24-3.67.73-4.4a5.77,5.77,0,0,0-2.2-.73c.12-1,.61-1.46,1.47-1.46l1.46.73a5.6,5.6,0,0,1,2.2-.73V560.8h-1.47l-3.66.73a1.29,1.29,0,0,0-1.46-1.46Zm.73,30a5.32,5.32,0,0,1-1.47,2.92v3.67h.74c0-2.93.24-4.4.73-4.4h.73v-2.19Zm-1.47,21.23c.12,1,.61,1.46,1.47,1.46l.73-1.46Zm.74,8.78a.66.66,0,0,1-.74.74,5.62,5.62,0,0,1,.74,2.19,5.86,5.86,0,0,1,2.92-.73v-.73A5.32,5.32,0,0,1,930.42,620.1Zm2.92-26.35v2.93a5.6,5.6,0,0,1,2.2.73c0-1,.24-1.47.73-1.47a5.51,5.51,0,0,1-.73-2.19Zm0,13.17q.18,1.47,1.47,1.47l.73-1.47Zm.74-37.33v1.46h.73v-1.46Zm.73,43.92c1,.13,1.46.62,1.46,1.47l-1.46,2.19a5.62,5.62,0,0,1,2.19.74q0-3.48,1.47-5.13v-1.46H937Q935.91,611.32,934.81,613.51Zm1.46-56.37v1.47a5.6,5.6,0,0,1,2.2.73v-2.2Zm0,31.48v2.2h2.2v-2.2Zm0,33.68c.61,2.44,1.34,3.66,2.2,3.66v-5.12Zm.73-49V574c.12,1,.61,1.46,1.47,1.46v-2.19Zm0,25.62.74,1.47v1.46l-.74,3.66a1.3,1.3,0,0,0,1.47-1.46v-5.86Zm3.67-49v78.34q29.1,11.16,38.8,19.76v-57.1l-20.5-41Zm0,85.66h.73a1.3,1.3,0,0,0,1.46-1.47h-.73C941.15,634.14,940.67,634.63,940.67,635.48Zm41.73-6.59V640.6q2.19,0,2.19,1.47c0,1-.73,1.46-2.19,1.46v2.2l1.46,2.19v1.47q-2,4.4-2.93,4.39,0-.91-5.85-5.86a1.3,1.3,0,0,1-1.47,1.47h-1.46l.73-3.66-1.47-.73v1.46H970v-.73l.73-1.47c-2.93-.48-4.39-1-4.39-1.46a5.6,5.6,0,0,1-2.2.73q0,1.65,5.86,3.66v.73a1.3,1.3,0,0,1-1.46,1.47h-.74a13,13,0,0,1-5.85-11l-1.47.73Q954,634,948,634c0,2-.49,2.93-1.47,2.93a5.79,5.79,0,0,0-2.19-.73l-.74,1.46,3.66,2.2c.12-2.44.86-3.66,2.2-3.66,2.2,1.46,3.9,2.2,5.13,2.2v3.66c0,1-.74,1.46-2.2,1.46l-3.66-.73V645l3.66-.74.73,1.47-2.2,3.66h.74l3.66-.73c.73,2,1.46,2.92,2.19,2.92l-.73,1.47a5.77,5.77,0,0,1,.73,2.93l3.66-.73-.73-1.47v-.73q3.66-2,3.66-2.93h.74c2.43,0,3.66,2,3.66,5.86l2.92-2.2h3.67v.73l-.74,1.47,1.47.73c0-1.46.48-2.2,1.46-2.2h3.66c1,0,2,1.47,2.93,4.4,3.9-.49,5.86-1.22,5.86-2.2a5.6,5.6,0,0,0-2.2-.73v-.73q.56-4.39,2.2-4.4h2.93c1.46,0,2.19,1,2.19,2.93h.73a7.47,7.47,0,0,1,.74-3.66,1.3,1.3,0,0,1-1.47-1.46l1.47-.74c0,1,1.21,1.47,3.66,1.47-2-2.93-2.93-5.37-2.93-7.32.48-1.47,1-2.2,1.46-2.2a5.6,5.6,0,0,1-.73-2.2H997c0,3.42-1.47,5.13-4.39,5.13l-.74-1.47,1.47-2.19h-1.47a5.56,5.56,0,0,1-2.19.73l-.74-1.46v-1.47a5.31,5.31,0,0,0,2.93-1.46l2.2,1.46c0-2.44.24-3.66.73-3.66a5.77,5.77,0,0,1-.73-2.93H989c.13,1,.61,1.47,1.47,1.47a5.61,5.61,0,0,1,2.2-.74l.73,1.47a1.29,1.29,0,0,1-1.47,1.46l-1.46-.73-5.13,5.13c-1.09,0-1.83-1.22-2.19-3.66l2.19-1.47c-.48-.73-.73-2.2-.73-4.39Zm-37.34,17.57v1.46a1.29,1.29,0,0,0,1.46-1.46Zm9.52,7.32c.12,1,.6,1.47,1.46,1.47v-1.47ZM959.7,645h.73v1.46a1.29,1.29,0,0,1-1.46,1.46l-.73-1.46C958.36,645.48,958.85,645,959.7,645Zm6.59,10.25a1.29,1.29,0,0,1-1.46,1.46h-.74l-1.46-.73v2.19h2.2a5.36,5.36,0,0,1,2.92-1.46A1.29,1.29,0,0,0,966.29,655.25Zm-1.46,21.23v2.93a5.85,5.85,0,0,1,1.46,3.66H967l.73-2.93c-1.09,0-1.83-1.22-2.19-3.66Zm.73-16.84v2.19c.12,1,.61,1.47,1.46,1.47l.73-1.47Q967.75,660.74,965.56,659.64Zm0,5.85v2.2h.73v-2.2Zm5.12,1.47v.73l2.2,2.93c-1,0-2,1.46-2.93,4.39,1,.12,1.46.61,1.46,1.47q0,3.66-2.19,3.66v.73h1.46l1.47-2.2V675l-.74-1.46a10.2,10.2,0,0,1,6.59-2.2h.74v2.2L978,675l2.2,1.47,1.46-2.2q0-4.75-4.39-5.86v1.47Zm1.47-15.38h1.46v1.47A1.29,1.29,0,0,1,972.15,651.58Zm2.19,6.59v3.66q.18,1.47,1.47,1.47c0-2.32.48-4,1.46-5.13v-1.46A5.31,5.31,0,0,1,974.34,658.17Zm1.47,6.59v1.47h.73v-1.47ZM978,579.84v1.46h.74v-1.46Zm.74,97.37v.73h1.46v-.73ZM982.4,667a5.65,5.65,0,0,1-.74,2.2,5.77,5.77,0,0,1,2.93.73h.73v-.73c-1,0-1.46-.74-1.46-2.2Zm0-70.28v3.66h.73v-3.66Zm1.46,57.1h1.46a1.29,1.29,0,0,1-1.46,1.47Zm2.2-2.93.73,1.47v.73h-2.2v-.73Q984.77,650.85,986.06,650.85ZM985.32,604v.73h1.47V604Zm0,3.66v.73h1.47v-.73Zm0,20.5H989a5.77,5.77,0,0,1-.73-2.2h-.73C986.79,626,986.06,626.69,985.32,628.16Zm4.4,13.17c1,.13,1.46.62,1.46,1.47-1.34,3.9-2.32,5.86-2.93,5.86a5.34,5.34,0,0,0-2.93-1.47v-1.46q2.38,0,2.93-4.4Zm-3.66,21.24v2.19h2.19c1,0,1.47-1.46,1.47-4.39h.73l1.46.73v-2.19h-.73Q987.34,662.57,986.06,662.57Zm.73,5.12H989v-1.46h-.73C987.27,666.35,986.79,666.84,986.79,667.69ZM989,620.1v2.2h1.47v-.73A1.3,1.3,0,0,0,989,620.1Zm1.47-5.85v1.46h.73v-1.46Zm1.46,39.53a5.65,5.65,0,0,1,.74,2.2h1.46a5.6,5.6,0,0,1-.73-2.2Zm7.32-18.3v1.46h.74v-1.46Zm1.47-13.18v1.46h1.46A1.29,1.29,0,0,0,1000.7,622.3Zm2.2,21.23v2.93a5.61,5.61,0,0,1,2.19.73,5.9,5.9,0,0,1,.73-2.93l-1.46-.73Zm0,20.5v.73h1.46V664Zm2.19,3.66q.18,1.47,1.47,1.47l2.19-2.93H1008A5.41,5.41,0,0,1,1005.09,667.69Zm1.47-20.5v1.47a1.3,1.3,0,0,0,1.46-1.47Zm0,11.72v1.46a1.29,1.29,0,0,0,1.46-1.46Zm1.46-6.59v1.46h.73v-1.46Zm1.46-16.84v1.46h.74v-1.46Zm.74,25.62v2.2a1.3,1.3,0,0,0,1.46-1.47Zm0,8.79v1.46h1.46v-1.46Zm2.93-1.47v1.47h.73v-1.47Z" transform="translate(-113.02 -201.89)"/><path class="cls-12" d="M1167.28,486.13V737.24l-82.73-142.76v98.1l-43.92-21.23V568.86l-41.73-63.7h84.19l40.26,58.57V506.62Zm-112,158.13V645h1.46v-.74Zm2.93,9.52,1.46.73c.12-1,.61-1.46,1.47-1.46h2.19v1.46h1.47v-1.46c-1,0-2.2-.73-3.66-2.2A4,4,0,0,0,1058.2,653.78Zm2.93,2.2v4.39h.73l1.46-.73v.73c0,1.46-1,2.2-2.93,2.2v2.19l1.47-.73h3.66c1,.12,1.46.61,1.46,1.46l-1.46,2.2v4.39c0,.74.73,1.47,2.19,2.2h.74l-.74-3.66a5.79,5.79,0,0,1,2.93-.73v-1.47l-1.46-2.19v-1.47l.73-1.46q-3.66,0-3.66-1.47a5.77,5.77,0,0,1,2.2-.73v-1.46C1068.45,658.54,1066,657.32,1061.13,656Zm0-35.14v2.92c.11,1,.6,1.47,1.46,1.47l.73-1.47V620.1A5.67,5.67,0,0,1,1061.13,620.84Zm11.71,5.85v.73c3.41.49,5.12,1.23,5.12,2.2v2.2c1,.12,1.47.61,1.47,1.46V634h-2.2c-3.42,0-5.12-2.19-5.12-6.59h-.74q0,2.21-2.92,3.66c0,2-.49,2.93-1.47,2.93l-1.46-.73a10.89,10.89,0,0,0-2.93,5.13c-1,.12-1.46.61-1.46,1.46h4.39l2.93-2.2c0,.74.73,1.47,2.19,2.2h.73v-1.46l-.73-5.13,1.47-.73q.92,0,3.66,5.12c.12-1,.61-1.46,1.46-1.46h.73l1.47.73c0-1,1-1.46,2.93-1.46v-3.66l-1.47-2.2.73-1.46q-6.58-.74-8-1.47Zm-10.25,16.84V645c.12,1,.61,1.46,1.46,1.46V645A1.3,1.3,0,0,0,1062.59,643.53Zm1.46-16.11v2.2a5.37,5.37,0,0,1,1.47,2.93h.73c0-1.47.49-2.2,1.46-2.2a5.87,5.87,0,0,1-.73-2.93Zm1.47-7.32v1.47A1.29,1.29,0,0,1,1067,623h.73v-1.46Zm.73,23.43v.73h2.2v-.73Zm2.93,1.47c0,1.46-1,2.19-2.93,2.19v2.2q3.3,2.19,4.39,2.19v1.47a5.79,5.79,0,0,1-.73,2.93v.73h.73q0-4.4,6.59-4.39a5.56,5.56,0,0,1,.73,2.19l2.2-1.46h.73l1.47.73v-8a5.79,5.79,0,0,1-2.93.73v.73a.64.64,0,0,0,.73.73c-.73,2-1.46,2.93-2.2,2.93q-2.93,0-4.39-5.85h-.73a5.74,5.74,0,0,1-.73,2.19,5.9,5.9,0,0,1,.73,2.93l-1.47.73h-1.46v-.73a5.79,5.79,0,0,1,.73-2.93,5.56,5.56,0,0,1-.73-2.19Zm-1.47-19v.73h1.47V626Zm.74-24.89q0,1.09,2.19,2.19l.73-1.46v-.73Zm0,5.12v3.66a1.29,1.29,0,0,0,1.46-1.46v-2.2Zm2.19,9.52v.73h.73l3.66-.73V615h-2.19A5.6,5.6,0,0,1,1070.64,615.71Zm2.2,3.66a7.91,7.91,0,0,1-1.47,3.66l1.47.73c.12-1,.61-1.46,1.46-1.46h2.93v1.46a1.29,1.29,0,0,0,1.47-1.46C1078.7,621,1076.74,620,1072.84,619.37Zm2.93-53.44h-3.66v4.39c0,1,1.46,1.95,4.39,2.93q0-1.65,3.66-5.86c-2,0-2.93-.73-2.93-2.2Zm-3.66,35.87v.73h1.46v-.73Zm0,41v.73h1.46q6-2.92,8.79-2.93v-1.46h-3.66Q1074.67,642.8,1072.11,642.8Zm2.19,24.89v.73l1.47.74v-.74Zm2.2-8.78c0,.73.73,1.46,2.2,2.19h.73v-2.19Zm2.93,7.32q0,3.66-2.93,3.66v.73h.73a21.61,21.61,0,0,0,2.93-.73,5.6,5.6,0,0,0,2.2.73v-2.2C1082.36,667.69,1081.38,667,1079.43,666.23Zm-2.2-63v1.47h2.93V604Zm1.47,11-1.47,2.19,4.39,2.2.74-1.47v-.73Q1081.07,616.44,1078.7,614.25Zm-1.47,32.21v1.46h1.47A1.3,1.3,0,0,0,1077.23,646.46Zm2.93-83.46v2.93h.73a5.65,5.65,0,0,1,2.2-.74v-.73A5.34,5.34,0,0,1,1080.16,563Zm0,57.84v.73c1,0,1.46.73,1.46,2.19h.74v-2.19l-1.47-.73Zm.73-36.61V585h2.2v-.73Zm0,74.68v2.19h.73v-2.19Zm4.39-93v.73c1.47,0,2.2.49,2.2,1.46v1.47h-4.39l.73,1.46a5.6,5.6,0,0,0-.73,2.2l2.93,1.46q0-4.4,3.66-4.39c0-2-1.22-3.42-3.66-4.39Zm-2.19,13.91v1.46h.73v-1.46Zm8.05-15.38v2.2a1.3,1.3,0,0,0,1.47-1.47Zm22.7,74.68a5.89,5.89,0,0,1,1.46,3.66h.73v-3.66ZM1138,640.6l-2.2,2.93,1.47.73-.74,1.47v.73q5.13.91,5.13,2.93v.73a1.29,1.29,0,0,1-1.47,1.46q-5.85,0-5.85-4.39h-.74c0,3.42-.48,5.13-1.46,5.13a.65.65,0,0,0-.73-.74.65.65,0,0,1-.73.74,8,8,0,0,1-1.47-3.66l-5.12.73c0-.73-.74-1.47-2.2-2.2-.73,1.95-1.46,2.93-2.2,2.93q3.86,8.24,8.06,11h-1.47v1.47c3.3-2.44,5.49-3.66,6.59-3.66l-.73-1.47q2-5.12,2.93-5.12h.73c1,.12,1.47.61,1.47,1.46h-.74q0,2.38,5.86,3.66c0,1.47.49,2.2,1.46,2.2h.74v-.73a5.65,5.65,0,0,1-.74-2.2l1.47-.73-.73-1.47v-2.19c.12-1,.61-1.47,1.46-1.47h.73c1,.13,1.47.61,1.47,1.47v.73l-.74,3.66a5.6,5.6,0,0,1,2.2.73,11.75,11.75,0,0,1,1.47-5.12,1.3,1.3,0,0,1-1.47-1.47l1.47-.73q4,0,5.12,2.93a5.6,5.6,0,0,1,2.2-.73v-.74l-2.2-3.66a11.22,11.22,0,0,1-4.39,1.47,5.37,5.37,0,0,1-1.47-2.93H1149q0,3.66-5.13,5.12a1.29,1.29,0,0,1-1.46-1.46v-.73c0-1,.73-1.47,2.2-1.47v-.73q-3.12,0-5.13-5.86Zm-13.18,10.25h.73c1,.13,1.47.61,1.47,1.47l-2.2,1.46a1.3,1.3,0,0,1-1.47-1.46Q1123.53,650.85,1124.82,650.85Zm4.39,2.2c1,.12,1.47.61,1.47,1.46V656a1.47,1.47,0,0,1-2.93,0v-1.47C1127.87,653.54,1128.36,653.05,1129.21,653.05Zm2.93,9.52a1.94,1.94,0,0,1-2.2,2.19l.74,1.47a5.76,5.76,0,0,1,2.92-.74,5.86,5.86,0,0,1-.73-2.92Zm1.46-3.66v.73l5.13.73v-1.46l-1.46.73a1.3,1.3,0,0,1-1.47-1.47A5.65,5.65,0,0,1,1133.6,658.91Zm5.13,14.64a5.44,5.44,0,0,1-1.46,2.93c2.43.12,3.66.85,3.66,2.19v.74c-2,.11-2.93,1.09-2.93,2.92h2.93q.72-5.85,3.66-5.85v-.74h-.74a5.62,5.62,0,0,1-2.19.74C1141.66,675.74,1140.68,674.77,1138.73,673.55Zm0-2.2v.73h1.46v-.73Zm1.46,13.91v1.47h.74v-1.47Zm8.06-14.64c0,2-.25,2.93-.74,2.93a5.57,5.57,0,0,1,.74,2.19h.73c0-1,.24-1.46.73-1.46a7.45,7.45,0,0,1-.73-3.66Zm1.46,0h2.2v-1.46h-.73C1150.2,669.28,1149.71,669.77,1149.71,670.62Zm2.93-11.71c0,1-.73,1.46-2.2,1.46v.73a5.34,5.34,0,0,1,2.93,1.47l3.66-.74v-.73A6.8,6.8,0,0,1,1152.64,658.91Zm8.79-27.09v.73a57.83,57.83,0,0,1,2.19,7.32l-4.39,2.2H1157a1.29,1.29,0,0,1-1.46-1.47v-3.66c-1,0-1.47-.24-1.47-.73-.73,0-1.71,1-2.92,2.93l.73,1.46v.73l-.73,1.47q2.92,2.75,9.51,3.66c0-2,.49-2.93,1.47-2.93,0,.73.73,1.47,2.19,2.2V631.08h-.73A5.67,5.67,0,0,1,1161.43,631.82Zm-8.79,24.89v.73h1.46v-.73Zm2.2,7.32a8,8,0,0,0-1.47,3.66h1.47c0-2,.48-2.93,1.46-2.93V664Zm.73,8.05H1157v-1.46C1156.05,670.74,1155.57,671.23,1155.57,672.08Zm2.19-9.51h2.2v-2.2C1159.23,660.37,1158.5,661.1,1157.76,662.57Zm5.13-11.72c0,1.47-1,2.2-2.93,2.2-1,0-1.46,1.71-1.46,5.12h.73l2.2-1.46c.73,1.95,1.46,2.93,2.19,2.93l.73-1.47v-2.92h-2.19v-.74c0-1,.73-1.46,2.19-1.46v-2.2Zm-3.66-.73v.73a5.87,5.87,0,0,1,2.93-.73,5.6,5.6,0,0,1-.73-2.2C1160.69,647.92,1160,648.66,1159.23,650.12Zm.73-25.62q0,3.66,1.47,3.66a5.57,5.57,0,0,1,2.19-.74,5.76,5.76,0,0,1-.73-2.92Zm1.47-7.33-.74,1.47v.73q2.93,0,2.93,5.13h.73v-4.4C1164.35,619.37,1163.38,618.4,1161.43,617.17Zm0,47.59v.73l.73,2.93h-.73a5.77,5.77,0,0,1,.73,2.2h.73a5.89,5.89,0,0,1,1.46-3.66v-1.47Zm1.46-3.66v1.47h1.46V661.1Zm.73-84.19v2.19h.73v-2.19Z" transform="translate(-113.02 -201.89)"/><path class="cls-12" d="M1406.34,506.08l-63.69,65.16v-20.5h-80.54l-17.57,17.57h79.8V755.73L1177.19,673l22.69-43.2h62.23l-19,22q36,18.3,37.34,18.3V612.23h-102.5V570.5l41.73-64.42Zm-214.51,49.78v2.2h1.46a5.6,5.6,0,0,1-.73-2.2Zm7.32-14.64v1.46h1.46A1.29,1.29,0,0,0,1199.15,541.22Zm1.46,4.39v1.47h.74v-1.47Zm3.66,3.66a5.34,5.34,0,0,1-1.46,2.93l1.46.73h.74a5.34,5.34,0,0,1,1.46-2.93l-1.46-.73Zm.74-4.39v1.46h.73v-1.46Zm0,25.62v.74h1.46v-.74Zm1.46-7.32-.73,1.47c0,.73.73,1.46,2.2,2.19v-2.19A1.3,1.3,0,0,0,1206.47,563.18Zm.73-8.78a7.48,7.48,0,0,1-.73,3.66v.73h.73q0-1.47,2.93-4.39Zm11-16.11c0,1-1,1.46-2.93,1.46V542a5.74,5.74,0,0,1,2.19.73q3.66-2.74,3.66-3.66A5.76,5.76,0,0,1,1218.19,538.29Zm22,117.14v1.46h.73v-1.46Zm.73-141.3a5.6,5.6,0,0,1,.73,2.2h.74v-2.2Zm1.47,2.93v1.46c2,0,2.92.73,2.92,2.2a1.3,1.3,0,0,0,1.47-1.47l-1.47-2.92A5.86,5.86,0,0,1,1242.35,517.06Zm5.12,123.73V643c.73,0,1.46-.73,2.2-2.19v-.74A5.65,5.65,0,0,1,1247.47,640.79Zm8,24.89c0,1-.73,1.46-2.19,1.46v.73h1.46c0-1,1-1.46,2.93-1.46v-.73Zm-.73,5.86v.73c.12,1,.61,1.46,1.47,1.46h.73v-2.19Zm1.47-153V520a1.3,1.3,0,0,0,1.46-1.47ZM1257,509v.74h2.19V509Zm.73,5.13a5.6,5.6,0,0,1,.73,2.2h.73a1.3,1.3,0,0,0,1.47-1.47v-2.19C1258.69,513,1257.72,513.52,1257.72,514.13Zm.73,159.6q.18,1.47,1.47,1.47l.73-1.47V673A5.6,5.6,0,0,1,1258.45,673.73Zm.73-6.59,1.47.73a5.87,5.87,0,0,1,2.93-.73,5.77,5.77,0,0,1-.74-2.93Q1259.56,665.68,1259.18,667.14Zm.74,3.66v.74h2.92v-.74ZM1265,515.59v1.47a1.29,1.29,0,0,0,1.46-1.47Zm1.46-6.59v2.93a8,8,0,0,1,3.67-1.46V509Zm0,158.87v.74H1268v-.74Zm2.93-150.81v.73l1.47,2.2-.73,1.46h.73c.73,0,1.46-.73,2.19-2.2v-1.46A7.48,7.48,0,0,1,1269.43,517.06Zm0,155.94v.73l3.66.73V673Zm3.66-164v1.47l2.93.73c0-1,1-1.46,2.93-1.46V509Zm1.47,7.33v1.46c1.58-1.46,2.8-2.2,3.66-2.2V513.4h-.73C1276.75,513.4,1275.78,514.38,1274.56,516.33Zm.73,157.4c.12,1,.61,1.47,1.46,1.47v-1.47Zm2.2-153.74a7.44,7.44,0,0,1-.74,3.66h.74a1.3,1.3,0,0,0,1.46-1.47v-.73A1.29,1.29,0,0,0,1277.49,520Zm1.46-4.4v.74h1.47v-.74ZM1279,673c.12,1,.61,1.46,1.47,1.46V673Zm2.2-155.21q0,5.87,8,5.86c0,.49.73.73,2.2.73h1.46l-.73-1.46v-1.47l.73-1.46h-.73q-.74,2.19-4.39,2.19Q1283.71,517.79,1281.15,517.79Zm1.46-8c0,1,.73,1.46,2.2,1.46l3.66-.73q0,1.47,6.59,5.86l1.46-.74c.73,0,2.2,1.22,4.39,3.66,0-2,.49-2.92,1.47-2.92h2.2a21.38,21.38,0,0,0,.73,5.12h1.46v-.73a8.47,8.47,0,0,0-2.19-5.13v-3.66h-.74l-3.66.74V511.2l1.47-2.2h-15.38Zm.73,23.42c0,.74.74,1.47,2.2,2.2l.73-1.46-.73-1.47A5.6,5.6,0,0,1,1283.34,533.16Zm0,82a43.77,43.77,0,0,1,1.47,5.86h.73a6.25,6.25,0,0,0,0-5.86,5.77,5.77,0,0,1,2.2-.73,5.65,5.65,0,0,1-.74-2.2h-.73C1285.54,612.23,1284.56,613.21,1283.34,615.16Zm0,9.52v3.66a42.84,42.84,0,0,0,5.86,1.46,5.76,5.76,0,0,1-.73-2.92h-.73l-2.2,1.46-1.46-3.66Zm0,9.52v.73l.74,1.46-.74,4.4,2.2-1.47a5.6,5.6,0,0,0,2.2.73l1.46-2.19c-3.42-1.22-5.12-2.44-5.12-3.66Zm0,13.91v2.19q.18,1.47,1.47,1.47a5.34,5.34,0,0,1,2.93-1.47c0-.73-.74-1.46-2.2-2.19Zm2.93,10.25c-1,0-1.46-.73-1.46-2.2h-1.47l.74,7.32h1.46l-.73-3.66,1.46-.73,3.66.73a16.91,16.91,0,0,0,5.13-1.46l-.73-1.47.73-1.46c-1,0-1.47-1-1.47-2.93A32,32,0,0,0,1286.27,658.36Zm-2.19-35.88V624h.73v-1.47Zm0,22a5.74,5.74,0,0,1,.73,2.19h.73c0-1.95.73-2.93,2.2-2.93V643H1287C1285.05,643.35,1284.08,643.84,1284.08,644.45Zm.73-116.41q0,1.65,4.39,4.39v1.47a5.65,5.65,0,0,1,2.2-.74v-.73Q1289,528,1284.81,528Zm0,145c.12,1,.61,1.46,1.46,1.46L1287,673Zm.73,20.5v.73H1287v-.73ZM1287,514.86v.73c0,.74.74,1.47,2.2,2.2h.73A4,4,0,0,0,1287,514.86Zm0,161.8v.73h2.2v-.73Zm1.47-140.57-.73,1.47v2.19l1.46-.73h1.47c1.09,0,1.83,1.22,2.19,3.66h.73a8.5,8.5,0,0,1,1.47-4.39A9.31,9.31,0,0,1,1288.47,536.09Zm-.73,154.48v2.93c2.93-.61,4.39-1.35,4.39-2.2C1289.93,691.3,1288.47,691.06,1287.74,690.57Zm.73-81.27q0,.93,3.66,3.67l2.2-3.67Zm0,13.92v1.46h1.46a5.8,5.8,0,0,1,.74-2.93h-.74C1289,621.87,1288.47,622.36,1288.47,623.22Zm.73,26.35v2.2h2.2v-2.2Zm0,21.23v1.47h1.47V670.8Zm.73-4.39v1.46h.74v-1.46Zm.74-11h1.46v.73h-1.46Zm.73-16.11h1.46v-1.46C1291.88,638,1291.4,638.47,1291.4,639.32Zm.73,6.59v.73h1.46v-.73Zm.73-29.28v1.46h.73v-1.46Zm0,11v1.46h.73v-1.46Zm0,14.64v1.46a5.87,5.87,0,0,1,2.93-.73v-.73Zm0,27.82h1.47v-1.46C1293.35,668.73,1292.86,669.22,1292.86,670.07Zm2.93-5.86c0,2-.73,2.93-2.2,2.93v.73h1.47c0-1,1-1.46,2.93-1.46V665A5.61,5.61,0,0,1,1295.79,664.21Zm-.73-17.57-.73,1.47v.73a5.76,5.76,0,0,1,2.92-.73v-.73A5.57,5.57,0,0,1,1295.06,646.64Zm-.73,41.73a5.9,5.9,0,0,1,.73,2.93h2.19a5.77,5.77,0,0,1-.73-2.93Zm.73-66.62v.73h1.46v-.73Zm.73-98.83v3.66h1.46a5.77,5.77,0,0,1,.74-2.93A5.72,5.72,0,0,1,1295.79,522.92Zm0,22.69v1.47h1.46v-1.47Zm2.2-32.94h2.19v1.46a1.29,1.29,0,0,1-1.46,1.46H1298a1.29,1.29,0,0,1-1.47-1.46C1296.64,513.15,1297.13,512.67,1298,512.67Zm-1.47,114.21v.73A8.47,8.47,0,0,1,1298,632v1.46l-1.47,2.2H1298a1.29,1.29,0,0,0,1.46-1.46,5.77,5.77,0,0,1-.73-2.93c2.44-.85,3.66-2.32,3.66-4.39Zm.73,30c1.47,2.2,2.2,3.66,2.2,4.4l1.46-.74,1.47.74,5.12-3.66H1309v-.74l-3.66-.73c0,1.47-.49,2.2-1.47,2.2l-2.93-2.2Zm0,32.22h.74l3.66-.74v-.73h-2.93Q1297.25,687.82,1297.25,689.11Zm.74-49.06v1.47h.73a1.3,1.3,0,0,0,1.46-1.47Zm3.66,24.9q-2,3.66-3.66,3.66c.12,1,.61,1.46,1.46,1.46,0-1.46,2.2-2.2,6.59-2.2-.37-2-.86-2.92-1.46-2.92a5.6,5.6,0,0,1-2.2.73A.65.65,0,0,0,1301.65,665ZM1298,708.87v2.93h.73v-2.93Zm.73,3.66v2.2c.85,0,2.07.73,3.66,2.2v-1.47c0-.73-1-1.71-2.93-2.93Zm1.46-36.6v.73a5.6,5.6,0,0,1,2.2.73h.73v-.73a5.77,5.77,0,0,1-2.2-.73Zm3.66-30.75v.73a5.65,5.65,0,0,1,.74,2.2h.73v-.73a5.6,5.6,0,0,1-.73-2.2Zm1.47,28.55v.73h1.46v-.73Zm0,34.41v1.46a1.29,1.29,0,0,0,1.46-1.46Zm.73-68.82v2.93l1.46-.73a5.6,5.6,0,0,1-.73-2.2Zm5.86,69.55q0,3.86-4.4,5.86h-.73v.73h.73l1.47-.73a12.75,12.75,0,0,1,4.39,1.46c.24-2,1-2.92,2.2-2.92h.73l2.2,1.46h.73q0-1.1-5.13-5.13v-.73Zm-4.4-198.4a5.37,5.37,0,0,1,1.47,2.93h.73l4.39-2.93,1.47.73v-1.46a5.65,5.65,0,0,1-2.2-.74A16.8,16.8,0,0,1,1307.5,510.47Zm0,139.1V651H1309v-1.47Zm1.47,46.12,1.46,2.2-1.46,2.93h.73l4.39-3.66-.73-1.47V695l.73-1.46h-.73Q1309,693.86,1309,695.69Zm.73-45.39c.12,1,.61,1.47,1.46,1.47h.74v-2.2A5.6,5.6,0,0,1,1309.7,650.3Zm.73,13.18c.37,2,.85,2.93,1.47,2.93q2,0,3.66-3.66l-1.47-.73A5.83,5.83,0,0,1,1310.43,663.48Zm.73,54.18v2.93h.74a1.3,1.3,0,0,0,1.46-1.47v-2.19A5.77,5.77,0,0,1,1311.16,717.66Zm2.93,8.05-2.19,4.39,1.46.74,2.2-1.47h.73c1,.12,1.46.61,1.46,1.47a.65.65,0,0,1-.73.73l.73,1.46a1.3,1.3,0,0,1-1.46,1.47L1317,736v.73c0,1-1,1.47-2.93,1.47v2.19c1.47,0,2.44,1.22,2.93,3.66l2.2,1.47h1.46l-.73-3.66c.73,0,1.46-.73,2.2-2.2v-4.39c-1.47,0-2.2-.49-2.2-1.47l2.2-2.92v-2.93l-.74-1.47-3.66,1.47Zm-1.46-86.39v.73h1.46v-.73Zm0,6.59v1.47h.73v-1.47Zm2.93,57.84a5.74,5.74,0,0,1,.73,2.19h1.46V703H1317Zm1.46,13.91v.73c1.47,0,2.2.49,2.2,1.46v.74h-1.47v2.19a5.34,5.34,0,0,1,2.93,1.47h1.47v-5.86c-.37,0-1.83-.24-4.4-.73Zm.73-11v.73h1.47v-.73Zm2.93-1.47h1.47v-1.46C1321.17,703.87,1320.68,704.36,1320.68,705.21Zm.73,4.39v1.47h.74V709.6Z" transform="translate(-113.02 -201.89)"/><path class="cls-12" d="M1410.73,505.16h169.12l-45.39,66.62v-22h-38.07v99.57l-43.93,87.12V549.82H1412.2a1.3,1.3,0,0,1-1.47-1.46Zm52.71,120.07-2.19,2.93,1.46.73h1.47a5.77,5.77,0,0,1,.73-2.93Zm2.93-26.36-1.46-.73v1.46h2.93a1.29,1.29,0,0,0,1.46-1.46v-.73h-.73Zm.74-3.66v1.47h.73v-1.47Zm1.46,10.25v.73a1.3,1.3,0,0,1,1.46,1.47h.74v-.74A5.76,5.76,0,0,1,1470,604C1469.06,604.12,1468.57,604.61,1468.57,605.46Zm1.46-8.78v.73c.12,1,.61,1.46,1.47,1.46h.73v-2.19Zm.74-8.06v.73h2.92l-.73-1.46v-.73c0-1,1-1.47,2.93-1.47v-2.93h-.73C1474.06,582.76,1472.6,584.72,1470.77,588.62Zm2.19,19.77v5.86h-2.19V615q2.19,0,6.59,3.66a5.6,5.6,0,0,1,.73-2.2c-2-4.14-2.93-6.83-2.93-8.05Zm.73,16.84v2.93h2.93C1476.62,627.42,1475.65,626.45,1473.69,625.23Zm3.67,15.37v1.47h-.74l-1.46-.74a5.87,5.87,0,0,1-.73,2.93l1.46.74a5.65,5.65,0,0,1,2.2-.74.65.65,0,0,0,.73.74v-4.4Zm-1.47-38.07V604h.73v-1.47Zm2.2,71-1.47,2.19h.74l4.39-.73v-1.46H1481a5.77,5.77,0,0,1-2.2.73A.65.65,0,0,0,1478.09,673.55Zm0-98.11a5.87,5.87,0,0,1-.73,2.93l2.92,1.47-.73-4.4Zm0,21.24v2.19q8.06,2.57,8.05,4.39a11.61,11.61,0,0,1-2.2,5.86v1.47a5.76,5.76,0,0,0,.74,2.92l-2.93,10.25h1.46q0-5.12,2.93-5.12v-5.86l1.46-2.19-1.46-2.2q2.56-4.39,3.66-4.39v-2.2q-.91-1.09-7.32-3.66a1.29,1.29,0,0,1-1.46,1.46c-1,0-1.47-1-1.47-2.92Zm0,41.73v1.46h.73v-1.46Zm1.46-47.59v1.46h.73v-1.46Zm0,40.26.73,1.47-.73,1.46H1481v-3.66Zm1.47-58.56V574a4.3,4.3,0,0,1,3.66,2.2l-.74,1.46v.73h2.93v-2.93a2.59,2.59,0,0,1-2.93-2.92l-1.46.73Zm2.92,62.23c.74,0,1.47.73,2.2,2.19v5.13c0,.49-1.71,2.19-5.12,5.12a5.77,5.77,0,0,1,.73,2.2h2.19l-.73-1.47v-.73c0-.73.73-1.46,2.2-2.19a5.74,5.74,0,0,0,2.19.73,5.77,5.77,0,0,1-.73-2.2c0-1.22.25-4.88.73-11C1485.16,633.16,1483.94,633.89,1483.94,634.75Zm-.73,32.21v1.46h.73a1.29,1.29,0,0,0,1.47-1.46v-.73A5.6,5.6,0,0,1,1483.21,667Zm.73-78.34v1.47h.74v-1.47Zm.74,72.48v.73a5.77,5.77,0,0,1,.73,2.2h.73a5.6,5.6,0,0,1,.73-2.2l-1.46-.73Zm2.92-34.41v4.39q1.11,0,5.86-11.71v-.73a5.51,5.51,0,0,1-2.19-.73Q1487.59,617.91,1487.6,626.69Zm1.47-57.83v.73h1.46v-.73Zm2.93,1.46.73,1.46v2.93h-3.66a7.07,7.07,0,0,1,2.2,5.13h.73c0-1.47.48-2.2,1.46-2.2a.64.64,0,0,0-.73-.73l.73-5.13v-1.46Zm-1.47,68.09v2.92h.74v-2.92Zm.74-31.49v.74h1.46v-.74Zm0,28.56,1.46.73.73-1.46V634h-.73C1491.75,634.14,1491.27,634.63,1491.27,635.48ZM1492,593c.12,1,.61,1.47,1.46,1.47V593Zm0,55.65v.73c.12,1,.61,1.46,1.46,1.46v-2.19Zm.73-46.86v2.93h.73V601.8Zm46.12-41.73v1.46h.73v-1.46Zm2.93-48.32a5.41,5.41,0,0,1-1.46,2.93h5.12V514C1544.59,514,1543.37,513.21,1541.78,511.75Zm2.2,16.11v2.19a5.9,5.9,0,0,1,2.93.73l1.46-2.19h-.73a5.6,5.6,0,0,1-2.2.73A1.29,1.29,0,0,0,1544,527.86Zm0,14.64v2.2c0,1,.73,1.46,2.19,1.46l-.73,3.66v.73h1.47c0-1.46.48-2.19,1.46-2.19a8.48,8.48,0,0,1-1.46-4.4,5.69,5.69,0,0,1,2.19-.73l1.47.73h.73v-.73a1.94,1.94,0,0,1-2.2-2.2h-1.46A5.85,5.85,0,0,1,1544,542.5Zm.73-20.5v1.46h.73V522Zm2.2.73c.12,1,.61,1.47,1.46,1.47l1.46-2.2h-.73A5.61,5.61,0,0,1,1546.91,522.73Zm14.64.73c-.37,2.45-1.1,3.66-2.2,3.66l.73,1.47q0,.92-3.66,3.66h-.73c-.73,0-1.46-.73-2.19-2.2,0-.61,1.21-1.83,3.66-3.66a5.62,5.62,0,0,1-.74-2.19l-4.39,2.92.73,3.66q-1.1,0-2.93,5.13l2.93,1.46c0-2.92.74-4.39,2.2-4.39h3.66q0-1.1,5.12-8.78A5.62,5.62,0,0,1,1561.55,523.46Zm-11-13.17v1.46H1552A1.29,1.29,0,0,0,1550.57,510.29Zm5.12,0c0,1-1,1.46-2.93,1.46v1.46h1.47l5.12-.73Q1559.35,510.83,1555.69,510.29Zm0,11.71v1.46h.73a5.77,5.77,0,0,1,2.2-.73V522Zm6.59-8.79c0,1.47-1,2.2-2.93,2.2v.73h2.2a5.34,5.34,0,0,1,1.46-2.93Zm6.59-1.46q0,6-7.32,7.32v1.47c2,0,2.93.73,2.93,2.19.73,0,1.46-1,2.19-2.93a.64.64,0,0,1-.73-.73q2.38-.36,5.86-6.59v-.73Zm-4.39-3.66v.73a5.77,5.77,0,0,1,.73,2.2h1.46c.74,0,1.47-.73,2.2-2.2v-.73Z" transform="translate(-113.02 -201.89)"/><path class="cls-12" d="M1586.07,505.16h168.39l-43.19,43.93H1630v17.57h63.7L1630,609.85v19h13.18q48.87,0,71-47.59l-22,90.78,22,66.63q-52.54-64.44-128.13-65.71Zm22,65.89v2.2h.73v-2.2Zm1.46-18.3c.12,1,.61,1.46,1.47,1.46h.73a1.3,1.3,0,0,0-1.47-1.46Zm.73-11.72a5.65,5.65,0,0,1,2.2.74v-2.93C1611.7,538.84,1611,539.57,1610.23,541Zm5.86,24.9v.73l2.2,2.93v.73a.65.65,0,0,1-.73.73l.73,1.47c-.49,1.46-2,2.19-4.39,2.19v.73a5.76,5.76,0,0,1,2.92.74q.18-1.47,1.47-1.47c.12,1,.61,1.47,1.46,1.47q0-1.47,2.93-3.66a5.6,5.6,0,0,1-.73-2.2q4.4,0,4.39-4.39l-3.66.73a1.29,1.29,0,0,1-1.46-1.47v-.73L1622,563l-1.47-.73Q1618.29,565.93,1616.09,565.93Zm0-16.84a5.89,5.89,0,0,1-1.46,3.66h.73c.73,0,1.71-1,2.93-2.93v-.73Zm-.73-27.82c.12,1,.61,1.46,1.46,1.46a.65.65,0,0,1,.74-.73,5.65,5.65,0,0,1-.74-2.2C1615.85,519.93,1615.36,520.42,1615.36,521.27Zm6.59,32.94-2.2-1.46a.64.64,0,0,1-.73.73,5.82,5.82,0,0,0,2.93,3.66l1.46-.73c1,.12,1.47.61,1.47,1.46a5.65,5.65,0,0,1-2.2.74q1.65,3.66,5.13,3.66V548.36c-2,0-3.42,1.95-4.4,5.85Zm3.66-23.43-1.47,2.2v.73l3.67-.73C1627.81,532.25,1627.07,531.52,1625.61,530.78Zm1.46,9.52q.56,2,3.66,3.66a.65.65,0,0,1,.74-.73Q1630.74,540.3,1627.07,540.3Zm6.59-1.46c.12,1,.61,1.46,1.47,1.46l1.46-2.19v-.74h-1.46Q1633.66,537.57,1633.66,538.84Zm5.13-5.13v.74H1641v-.74Zm2.93,0h1.46v-1.46C1642.2,532.37,1641.72,532.86,1641.72,533.71Zm1.46,8.79v3.66q.91,0,3.66-3.66v-.73Zm.73-2.93a22,22,0,0,1,5.13.73,7.91,7.91,0,0,1-1.47-3.66Q1643.91,538.47,1643.91,539.57Zm8.06,3.66v2.93h2.19a5.77,5.77,0,0,1-.73-2.93Zm0,27.09v.73h1.46v-.73Zm0,112v1.47h.73v-1.47Zm.73-10.25v2.2c.12,1,.61,1.46,1.46,1.46h.73v-4.39A5.56,5.56,0,0,1,1652.7,672.08Zm23.43-6.59v4.4c-1.35,3.41-2.32,5.12-2.93,5.12q0-5.12-8.06-5.12a17.22,17.22,0,0,0-.73,5.12c1.47,0,2.2.49,2.2,1.47,0,.73-.73,1.46-2.2,2.19a1.29,1.29,0,0,1-1.46-1.46l-1.47.73h-.73c-1,0-1.46-.73-1.46-2.2q-5.13.74-5.13,2.2a15.5,15.5,0,0,0,5.86,3.66,2,2,0,0,1,3.66,1.47h2.2v-2.93h.73c1,.12,1.46.61,1.46,1.46v3.66l2.93,2.2h2.2l.73-4.39-1.47-.74a.65.65,0,0,1-.73.74l-.73-1.47v-1.46q3.66-2.94,3.66-5.86h1.47l1.46.73c.37-2.93,1.34-4.88,2.93-5.85a5.74,5.74,0,0,0,2.19.73v-2.2l-3.66.73a5.38,5.38,0,0,1-1.46-2.93Zm-19-93.71v.74l3.66-.74q.18,1.47,1.47,1.47l1.46-3.66h-4.39C1658.55,569.59,1657.82,570.32,1657.09,571.78ZM1660,673.55V675h.73v-1.46Zm.73,10.25q2,3.66,2.93,3.66V686a5.56,5.56,0,0,1-.73-2.19Zm.73-141.3.74,3.66h.73V542.5Zm2.93,27.09a5.61,5.61,0,0,1,.73,2.19h4.4c1.83,0,4,1.22,6.59,3.66,0-1,1.46-1.46,4.39-1.46v-.73c-1.47,0-2.2-.49-2.2-1.47a5.51,5.51,0,0,0,.73-2.19l-2.92,2.93h-2.93v-1.47l.73-1.46h-.73a.65.65,0,0,0-.74.73l-5.12-.73Zm.73,4.39v2.93c1,.12,1.47.61,1.47,1.46l-1.47,2.2,1.47.73h2.19l4.4-2.93c-2-2.31-2.93-3.78-2.93-4.39Zm.74,90.78-.74,1.47a5.89,5.89,0,0,1,3.66,1.46h1.47v-1.46A12.49,12.49,0,0,1,1665.88,664.76Zm11-34.41v2.93h2.19v-.73a5.6,5.6,0,0,1-.73-2.2Zm1.46,30.75v.73a1.3,1.3,0,0,1,1.47,1.47h.73v-1.47l-1.47-.73Zm1.47,11.72a5.67,5.67,0,0,1-.74,2.19l2.2,1.47h2.2l-1.47-2.2.73-1.46Zm.73-23.43v2.19l2.19-1.46c.74,0,1.71,1,2.93,2.93a16,16,0,0,0-2.19,5.12h1.46a5.77,5.77,0,0,1,2.2-.73.64.64,0,0,0,.73.73l.73-1.46,1.47.73h2.19v-3.66q-2.93-3.1-9.52-5.12A5.74,5.74,0,0,1,1680.52,649.39ZM1682,664v.73h1.47q1.82,0,5.12-2.19l2.2,1.46h.73V661.1A15.76,15.76,0,0,0,1682,664Zm.73-94.44v1.46a1.29,1.29,0,0,0,1.47-1.46Z" transform="translate(-113.02 -201.89)"/><path class="cls-12" d="M1887,505.16V609.67l-39.54,20.5Q1887,661.66,1887,731.93l-82-96.64V673l-43.93,19.4V505.16Zm-123.73,2.75v1.46q0,.92,3.66,2.93h.73l.73-4.39Zm0,8.78v.73h1.46v-.73Zm0,2.2v1.46c0,.73.73,1.47,2.19,2.2h1.47v-1.47Q1765.62,521.08,1763.25,518.89Zm8.78,9.51c0,.86-.73,2.08-2.19,3.67.12,1,.61,1.46,1.46,1.46a5.77,5.77,0,0,1,2.93-.73,11.14,11.14,0,0,1-1.46-4.4Zm2.93-5.12v1.46h.73v-1.46Zm15.38,3.66a.65.65,0,0,1-.74.73l.74,1.47-.74,1.46-5.12-.73H1783v3.66h.74c0-1.46.48-2.2,1.46-2.2l3.66,2.2c.12-1,.61-1.46,1.47-1.46h.73l2.19,1.46q3.3-1.46,3.67-2.93Zm6.59,90c0,1.47-1.23,3.91-3.67,7.32h2.2v-1.46h.73q1.65,0,2.2,5.12c-.73,0-1.46.74-2.2,2.2v.73h.74a4,4,0,0,0,2.92-2.93,5.76,5.76,0,0,1-.73-2.92l3.66-7.33-3.66.74Zm.73-12.44c.12,1,.61,1.46,1.46,1.46l.73-1.46v-.74A5.62,5.62,0,0,1,1797.66,604.55Zm2.93,23.42v1.47h1.46V628Zm2.19-87.85v2.2c0,.73.73,1.46,2.2,2.19v-3.66A5.6,5.6,0,0,1,1802.78,540.12Zm0,84.93v1.46h1.47v-1.46Zm2.2-75.41V587l38.07-19.77V549.64Zm0,72.48v.73h1.46v-.73Zm2.2.73a7.54,7.54,0,0,1,.73,3.66h.73a5.89,5.89,0,0,1,1.46-3.66.64.64,0,0,1-.73-.73A5.61,5.61,0,0,1,1807.18,622.85Zm2.19,6.59v.73h1.47v-.73Zm.73,2.93-.73,2.92h2.2c0-.73,1-1.7,2.93-2.92h-.74a5.76,5.76,0,0,1-2.92.73A.65.65,0,0,0,1810.1,632.37Zm.74-93.72a6.42,6.42,0,0,1,1.46,4.4h.73c0-1.47.24-2.2.73-2.2a5.55,5.55,0,0,1-.73-2.2Zm.73,65.16.73,3.66H1816l1.46.74V606l-3.66.73-.73-1.46,2.2-3.66a.65.65,0,0,1-.73-.73c.61-.49,2.07-.74,4.39-.74a5.94,5.94,0,0,1,2.19,4.4h2.2a5.34,5.34,0,0,1-1.46-2.93v-2.2c-2.93,0-4.4-1-4.4-2.93Q1814.31,596.49,1811.57,603.81Zm2.19,35.88v.73c0,.73.74,1.46,2.2,2.2v-2.93Zm5.86-98.84c0,2.44-.49,3.66-1.46,3.66H1816l-1.46-.73v2.93h3.66q0-1.28,2.19-3.66v-2.2Zm-2.2,83.46v2.93c.86,0,2.08.73,3.66,2.2a5.77,5.77,0,0,1,.74-2.93l-3.66-2.2Zm0,7.32v2.2h.74v-2.2Zm.74,11v.73c1,0,2.44,1,4.39,2.93,0-1.22,1-1.95,2.93-2.2a1.3,1.3,0,0,0-1.47-1.46,2,2,0,0,1-3.66-1.47h-.73C1818.64,641.28,1818.16,641.76,1818.16,642.62Zm.73-24.9v1.47a4.07,4.07,0,0,0,3.66,4.39v2.2H1824v-2.93Q1822.55,622.85,1818.89,617.72Zm1.46,19v.73h1.47v-.73Zm3.66-52.71a5.77,5.77,0,0,1,.74,2.93c-.74,0-1.71,1-2.93,2.92,1,.13,1.46.61,1.46,1.47a5.77,5.77,0,0,0-.73,2.93l1.46.73c0-.37,1.22-2.56,3.66-6.59l-.73-1.46v-.74c0-1,1.47-1.46,4.39-1.46v-1.47c-1.95,0-2.92-.48-2.92-1.46s3.41-2.07,10.25-3.66h.73c.24,1.95,1,2.93,2.19,2.93,0-1,.25-1.47.74-1.47,0-1.09-2.2-2.56-6.59-4.39Q1824,579.1,1824,584.05Zm-1.46-38.81V546l2.93.73v-1.47Zm2.2,57.11-.74,1.46h.74a5.69,5.69,0,0,1,2.19-.73v-.73Zm-.74,30c0,.73.74,1.46,2.2,2.19h.73V633.1Zm0,4.39v2.93h.74l.73-2.93Zm2.2,13.18a21.89,21.89,0,0,1-.73,5.12h2.19a7.47,7.47,0,0,1,.74-3.66,1.29,1.29,0,0,1-1.47-1.46Zm0-54.91v.73c1.46,0,2.2.49,2.2,1.46a.66.66,0,0,1-.74.74,5.62,5.62,0,0,1,.74,2.19h.73q0-2.55,5.86-7.32h2.19q0,2.92,3.66,2.93h.73a5.41,5.41,0,0,1-1.46-2.93,5.56,5.56,0,0,0,.73-2.19c-1.95.24-2.93,1-2.93,2.19-2.8-3.9-4.76-5.85-5.85-5.85q-2.94,0-3.66,8Zm0,12.44v.74l.73,3.66,1.47-.73h1.46c1,0,1.46,1.22,1.46,3.66h2.2v-1.47a5.83,5.83,0,0,1-1.46-3.66l-1.47.73Zm1.46,11.72a5.6,5.6,0,0,1-.73,2.2c1.47,0,2.2.48,2.2,1.46l-.73,1.46h1.46a5.56,5.56,0,0,1,.73-2.19A4,4,0,0,0,1827.67,619.19Zm0-4.39V617c1.95-.73,2.93-1.46,2.93-2.19Zm0,43.19v1.46a1.29,1.29,0,0,0,1.47-1.46Zm.74-30v1.47c1.95,0,2.92.49,2.92,1.46v.73l-1.46,2.2v.73h.73l1.47-.73a5.77,5.77,0,0,1,.73,2.2q0,.74-2.93,4.39l2.2,1.46q1.28-5.85,3.66-5.85l-.73-1.47v-.73l.73-1.46Q1829.86,628,1828.41,628Zm2.92,29.29a12.47,12.47,0,0,1-1.46,4.39h1.46a7.47,7.47,0,0,1,.74-3.66v-.73Zm1.47-65.89.73,1.46v.73h-.73a1.29,1.29,0,0,1-1.47-1.46Zm0,16.1v2.2h1.46v-.73A1.3,1.3,0,0,0,1832.8,607.47Zm1.46,16.84-.73,1.47c0,.73.73,1.46,2.2,2.19l1.46-.73a5.6,5.6,0,0,0,2.2.73Q1837.19,624.31,1834.26,624.31Zm0-48.32h.74c1,.13,1.46.62,1.46,1.47v.73h-.73a1.3,1.3,0,0,1-1.47-1.46Zm0,22.7,1.47.73-.73,1.47v.73h.73c0-1,.24-1.47.73-1.47a5.77,5.77,0,0,1-.73-2.93Q1834.26,597.42,1834.26,598.69Zm0,50.51v.74a21.44,21.44,0,0,1,.74,5.12h.73c0-1.95.48-2.93,1.46-2.93A4,4,0,0,0,1834.26,649.2Zm0,6.59v1.47h1.47A1.3,1.3,0,0,0,1834.26,655.79Zm0,6.59v1.47h2.2v-2.2A5.6,5.6,0,0,1,1834.26,662.38Zm.74-59.3v.73h1.46v-.73Zm2.19,7.32c0,2-.73,2.93-2.19,2.93.12,1,.6,1.47,1.46,1.47a1.94,1.94,0,0,1,2.2-2.2v-.73A1.3,1.3,0,0,0,1837.19,610.4Zm-.73-27.09,2.93,4.4h2.93V587q-4.39,0-4.4-3.67Zm2.2,71v2.2a5.83,5.83,0,0,1,3.66-1.47v-.73Zm2.92-48.32a1.94,1.94,0,0,1-2.19,2.2l.73,1.46,3.66-.73h2.2v-1.47A6.37,6.37,0,0,1,1841.58,606Zm-2.19,41.73v1.46h.73a1.29,1.29,0,0,0,1.46-1.46Zm.73-32.21v.73h1.46v-2.2C1840.61,614.19,1840.12,614.67,1840.12,615.53Zm0,9.52v1.46a5.77,5.77,0,0,1,2.2.73v-2.19Zm2.93-24.9v2.93h2.2v-.73C1845.25,601.62,1844.51,600.89,1843.05,600.15Zm0,60v.73c.12,1,.61,1.46,1.46,1.46h.74v-.73a1.3,1.3,0,0,0-1.47-1.46Zm1.46-21.24v1.47c.74,0,1.47-.73,2.2-2.2v-.73H1846C1845,637.61,1844.51,638.1,1844.51,639Zm.74,8.06v.73a5.54,5.54,0,0,1,4.39,2.2,5.6,5.6,0,0,1,.73-2.2l-3.66-.73Zm1.46-34.41v1.46h.73V612.6Zm3.66,30.75h-.73l-2.2-1.47v.74q0,.74,5.86,2.92v.74h.73a21.38,21.38,0,0,1-.73-5.13Zm-2.2-24.16v.73h1.47v-2.2Q1848.17,617.92,1848.17,619.19Zm.74-21.23a5.61,5.61,0,0,1,2.19.73l3.66-2.93,1.47.73a5.56,5.56,0,0,1,.73-2.19c-1,0-1.47-.25-1.47-.74-2,2-3.66,2.93-5.12,2.93C1849.39,596.62,1848.91,597.1,1848.91,598Zm.73,6.59c0,2.19-.25,3.66-.73,4.39a5.76,5.76,0,0,1,2.92.73v-5.12Zm2.19,6.59v1.46h.74v-1.46Zm2.2,2.92v2.2a5.77,5.77,0,0,1,2.93-.73v-1.47Zm2.93-12.44c.12,1,.61,1.46,1.46,1.46v-1.46Zm.73,5.85v1.47h.73v-1.47Z" transform="translate(-113.02 -201.89)"/></svg>